<svg width="101" height="101" viewBox="0 0 101 101" fill="none" xmlns="http://www.w3.org/2000/svg">
<rect x="0.276367" y="0.630615" width="100" height="100" rx="50" fill="#A90000"/>
<mask id="mask0_11_1515" style="mask-type:alpha" maskUnits="userSpaceOnUse" x="38" y="27" width="25" height="25">
<rect x="38.2764" y="27.6306" width="24" height="24" fill="#D9D9D9"/>
</mask>
<g mask="url(#mask0_11_1515)">
<path d="M54.5191 44.9339L50.2764 40.6913L46.0338 44.9339L44.9731 43.8733L49.2157 39.6306L44.9731 35.388L46.0338 34.3273L50.2764 38.57L54.5191 34.3273L55.5797 35.388L51.3371 39.6306L55.5797 43.8733L54.5191 44.9339Z" fill="white"/>
</g>
<path d="M39.2195 61.7783H37.4468C37.3786 61.3996 37.2517 61.0662 37.0661 60.7783C36.8805 60.4905 36.6533 60.2461 36.3843 60.0454C36.1154 59.8446 35.8142 59.6931 35.4809 59.5908C35.1514 59.4886 34.801 59.4374 34.4298 59.4374C33.7593 59.4374 33.1589 59.606 32.6286 59.9431C32.1021 60.2802 31.6855 60.7746 31.3786 61.4261C31.0756 62.0776 30.9241 62.873 30.9241 63.8124C30.9241 64.7594 31.0756 65.5586 31.3786 66.2102C31.6855 66.8617 32.104 67.3541 32.6343 67.6874C33.1646 68.0208 33.7612 68.1874 34.4241 68.1874C34.7915 68.1874 35.14 68.1382 35.4695 68.0397C35.8029 67.9374 36.104 67.7878 36.373 67.5908C36.6419 67.3939 36.8692 67.1533 37.0548 66.8693C37.2442 66.5814 37.3749 66.2518 37.4468 65.8806L39.2195 65.8863C39.1249 66.4583 38.9411 66.9848 38.6684 67.4658C38.3995 67.9431 38.0529 68.356 37.6286 68.7045C37.2082 69.0492 36.7271 69.3162 36.1855 69.5056C35.6438 69.695 35.0529 69.7897 34.4127 69.7897C33.4052 69.7897 32.5074 69.5511 31.7195 69.0738C30.9317 68.5927 30.3105 67.9052 29.8559 67.0113C29.4052 66.1174 29.1798 65.0511 29.1798 63.8124C29.1798 62.57 29.407 61.5037 29.8616 60.6136C30.3161 59.7196 30.9374 59.034 31.7252 58.5568C32.5131 58.0757 33.4089 57.8352 34.4127 57.8352C35.0302 57.8352 35.6059 57.9242 36.14 58.1022C36.6779 58.2764 37.1608 58.534 37.5889 58.8749C38.0169 59.2121 38.3711 59.6249 38.6514 60.1136C38.9317 60.5984 39.1211 61.1533 39.2195 61.7783ZM42.8829 57.9943V69.6306H41.184V57.9943H42.8829ZM48.8445 69.8068C48.0264 69.8068 47.3124 69.6193 46.7025 69.2443C46.0927 68.8693 45.6192 68.3446 45.282 67.6704C44.9449 66.9961 44.7764 66.2083 44.7764 65.3068C44.7764 64.4014 44.9449 63.6098 45.282 62.9318C45.6192 62.2537 46.0927 61.7272 46.7025 61.3522C47.3124 60.9772 48.0264 60.7897 48.8445 60.7897C49.6627 60.7897 50.3767 60.9772 50.9866 61.3522C51.5964 61.7272 52.0699 62.2537 52.407 62.9318C52.7442 63.6098 52.9127 64.4014 52.9127 65.3068C52.9127 66.2083 52.7442 66.9961 52.407 67.6704C52.0699 68.3446 51.5964 68.8693 50.9866 69.2443C50.3767 69.6193 49.6627 69.8068 48.8445 69.8068ZM48.8502 68.3806C49.3805 68.3806 49.8199 68.2405 50.1684 67.9602C50.5169 67.6799 50.7745 67.3068 50.9411 66.8408C51.1116 66.3749 51.1968 65.8617 51.1968 65.3011C51.1968 64.7443 51.1116 64.2329 50.9411 63.767C50.7745 63.2973 50.5169 62.9204 50.1684 62.6363C49.8199 62.3522 49.3805 62.2102 48.8502 62.2102C48.3161 62.2102 47.873 62.3522 47.5207 62.6363C47.1722 62.9204 46.9127 63.2973 46.7423 63.767C46.5756 64.2329 46.4923 64.7443 46.4923 65.3011C46.4923 65.8617 46.5756 66.3749 46.7423 66.8408C46.9127 67.3068 47.1722 67.6799 47.5207 67.9602C47.873 68.2405 48.3161 68.3806 48.8502 68.3806ZM61.3488 63.034L59.809 63.3068C59.7446 63.1098 59.6424 62.9223 59.5022 62.7443C59.3659 62.5662 59.1803 62.4204 58.9454 62.3068C58.7106 62.1931 58.417 62.1363 58.0647 62.1363C57.5837 62.1363 57.1821 62.2443 56.8602 62.4602C56.5382 62.6723 56.3772 62.9469 56.3772 63.284C56.3772 63.5757 56.4852 63.8105 56.7011 63.9886C56.917 64.1666 57.2655 64.3124 57.7465 64.4261L59.1329 64.7443C59.9359 64.9299 60.5344 65.2158 60.9284 65.6022C61.3223 65.9886 61.5193 66.4905 61.5193 67.1079C61.5193 67.6306 61.3678 68.0965 61.0647 68.5056C60.7655 68.9109 60.3469 69.2291 59.809 69.4602C59.2749 69.6912 58.6556 69.8068 57.9511 69.8068C56.9738 69.8068 56.1765 69.5984 55.559 69.1818C54.9416 68.7613 54.5628 68.1647 54.4227 67.392L56.0647 67.142C56.167 67.57 56.3772 67.8939 56.6954 68.1136C57.0136 68.3295 57.4284 68.4374 57.9397 68.4374C58.4965 68.4374 58.9416 68.3219 59.2749 68.0908C59.6083 67.856 59.7749 67.57 59.7749 67.2329C59.7749 66.9602 59.6727 66.731 59.4681 66.5454C59.2674 66.3598 58.9587 66.2196 58.542 66.1249L57.0647 65.8011C56.2503 65.6155 55.6481 65.32 55.2579 64.9147C54.8715 64.5094 54.6784 63.9961 54.6784 63.3749C54.6784 62.8598 54.8223 62.409 55.1102 62.0227C55.3981 61.6363 55.7958 61.3352 56.3034 61.1193C56.8109 60.8996 57.3924 60.7897 58.0477 60.7897C58.9909 60.7897 59.7333 60.9943 60.2749 61.4033C60.8166 61.8086 61.1746 62.3522 61.3488 63.034ZM67.1485 69.8068C66.2887 69.8068 65.5481 69.623 64.9269 69.2556C64.3095 68.8844 63.8322 68.3636 63.4951 67.6931C63.1618 67.0189 62.9951 66.2291 62.9951 65.3238C62.9951 64.4299 63.1618 63.642 63.4951 62.9602C63.8322 62.2783 64.3019 61.7461 64.9042 61.3636C65.5103 60.981 66.2186 60.7897 67.0292 60.7897C67.5216 60.7897 67.9989 60.8711 68.461 61.034C68.9231 61.1969 69.3379 61.4526 69.7053 61.8011C70.0728 62.1496 70.3625 62.6022 70.5747 63.159C70.7868 63.7121 70.8928 64.3844 70.8928 65.1761V65.7783H63.9553V64.5056H69.2281C69.2281 64.0586 69.1372 63.6628 68.9553 63.3181C68.7735 62.9696 68.5178 62.695 68.1883 62.4943C67.8625 62.2935 67.48 62.1931 67.0406 62.1931C66.5633 62.1931 66.1466 62.3105 65.7906 62.5454C65.4383 62.7764 65.1656 63.0795 64.9724 63.4545C64.783 63.8257 64.6883 64.2291 64.6883 64.6647V65.659C64.6883 66.2424 64.7906 66.7386 64.9951 67.1477C65.2035 67.5568 65.4932 67.8693 65.8644 68.0852C66.2356 68.2973 66.6694 68.4033 67.1656 68.4033C67.4875 68.4033 67.7811 68.3579 68.0463 68.267C68.3114 68.1723 68.5406 68.0321 68.7338 67.8465C68.9269 67.6609 69.0747 67.4318 69.1769 67.159L70.7849 67.4488C70.6561 67.9223 70.425 68.3371 70.0917 68.6931C69.7622 69.0454 69.3474 69.32 68.8474 69.517C68.3512 69.7102 67.7849 69.8068 67.1485 69.8068Z" fill="white"/>
</svg>
