<svg width="100" height="101" viewBox="0 0 100 101" fill="none" xmlns="http://www.w3.org/2000/svg">
<rect y="0.938477" width="100" height="100" rx="50" fill="#A90000"/>
<mask id="mask0_11_1521" style="mask-type:alpha" maskUnits="userSpaceOnUse" x="38" y="27" width="24" height="25">
<rect x="38" y="27.9385" width="24" height="24" fill="#D9D9D9"/>
</mask>
<g mask="url(#mask0_11_1521)">
<path d="M49.25 46.6885V40.6885H43.25V39.1885H49.25V33.1885H50.75V39.1885H56.75V40.6885H50.75V46.6885H49.25Z" fill="white"/>
</g>
<path d="M22.2784 69.9385V58.3021H29.5739V59.8135H24.0341V63.3589H29.1932V64.8646H24.0341V68.4271H29.642V69.9385H22.2784ZM33.1236 61.2112L35.0497 64.6089L36.9929 61.2112H38.8509L36.1293 65.5748L38.8736 69.9385H37.0156L35.0497 66.6771L33.0895 69.9385H31.2259L33.9418 65.5748L31.2599 61.2112H33.1236ZM40.5952 73.2112V61.2112H42.2543V62.626H42.3963C42.4948 62.4442 42.6368 62.2339 42.8224 61.9953C43.008 61.7567 43.2656 61.5483 43.5952 61.3703C43.9247 61.1885 44.3603 61.0976 44.902 61.0976C45.6065 61.0976 46.2353 61.2756 46.7884 61.6317C47.3414 61.9877 47.7751 62.501 48.0895 63.1714C48.4077 63.8419 48.5668 64.6487 48.5668 65.5919C48.5668 66.5351 48.4096 67.3438 48.0952 68.018C47.7808 68.6885 47.349 69.2055 46.7997 69.5692C46.2505 69.929 45.6236 70.1089 44.919 70.1089C44.3887 70.1089 43.955 70.0199 43.6179 69.8419C43.2846 69.6639 43.0232 69.4555 42.8338 69.2169C42.6444 68.9782 42.4986 68.7661 42.3963 68.5805H42.294V73.2112H40.5952ZM42.2599 65.5748C42.2599 66.1885 42.349 66.7264 42.527 67.1885C42.705 67.6506 42.9626 68.0123 43.2997 68.2737C43.6368 68.5313 44.0497 68.6601 44.5384 68.6601C45.0459 68.6601 45.4702 68.5256 45.8111 68.2567C46.152 67.9839 46.4096 67.6146 46.5838 67.1487C46.7618 66.6828 46.8509 66.1582 46.8509 65.5748C46.8509 64.9991 46.7637 64.482 46.5895 64.0237C46.419 63.5654 46.1615 63.2036 45.8168 62.9385C45.4759 62.6733 45.0497 62.5407 44.5384 62.5407C44.0459 62.5407 43.6293 62.6676 43.2884 62.9214C42.9512 63.1752 42.6955 63.5294 42.5213 63.9839C42.3471 64.4385 42.2599 64.9688 42.2599 65.5748ZM53.0099 70.1317C52.4569 70.1317 51.9569 70.0294 51.5099 69.8248C51.063 69.6165 50.7088 69.3154 50.4474 68.9214C50.1899 68.5275 50.0611 68.0445 50.0611 67.4726C50.0611 66.9801 50.1558 66.5748 50.3452 66.2567C50.5346 65.9385 50.7902 65.6866 51.1122 65.501C51.4342 65.3154 51.794 65.1752 52.1918 65.0805C52.5895 64.9858 52.9948 64.9139 53.4077 64.8646C53.9304 64.804 54.3546 64.7548 54.6804 64.7169C55.0062 64.6752 55.2429 64.6089 55.3906 64.518C55.5384 64.4271 55.6122 64.2794 55.6122 64.0748V64.0351C55.6122 63.5389 55.4721 63.1544 55.1918 62.8817C54.9152 62.6089 54.5024 62.4726 53.9531 62.4726C53.3812 62.4726 52.9304 62.5995 52.6009 62.8532C52.2751 63.1032 52.0497 63.3817 51.9247 63.6885L50.3281 63.3248C50.5175 62.7945 50.794 62.3665 51.1577 62.0407C51.5251 61.7112 51.9474 61.4726 52.4247 61.3248C52.902 61.1733 53.4039 61.0976 53.9304 61.0976C54.2789 61.0976 54.6482 61.1392 55.0384 61.2226C55.4323 61.3021 55.7997 61.4498 56.1406 61.6657C56.4853 61.8817 56.7675 62.1904 56.9872 62.5919C57.2069 62.9896 57.3168 63.5067 57.3168 64.143V69.9385H55.6577V68.7453H55.5895C55.4796 68.965 55.3149 69.1809 55.0952 69.393C54.8755 69.6051 54.5933 69.7813 54.2486 69.9214C53.9039 70.0616 53.491 70.1317 53.0099 70.1317ZM53.3793 68.768C53.849 68.768 54.2505 68.6752 54.5838 68.4896C54.9209 68.304 55.1766 68.0616 55.3509 67.7623C55.5289 67.4593 55.6179 67.1354 55.6179 66.7907V65.6657C55.5573 65.7264 55.4399 65.7832 55.2656 65.8362C55.0952 65.8854 54.9001 65.929 54.6804 65.9669C54.4607 66.001 54.2467 66.0332 54.0384 66.0635C53.83 66.09 53.6558 66.1127 53.5156 66.1317C53.1861 66.1733 52.8849 66.2434 52.6122 66.3419C52.3433 66.4404 52.1274 66.5824 51.9645 66.768C51.8054 66.9498 51.7259 67.1923 51.7259 67.4953C51.7259 67.9157 51.8812 68.2339 52.1918 68.4498C52.5024 68.662 52.8982 68.768 53.3793 68.768ZM61.2784 64.7567V69.9385H59.5795V61.2112H61.2102V62.6317H61.3182C61.5189 62.1695 61.8333 61.7983 62.2614 61.518C62.6932 61.2377 63.2367 61.0976 63.892 61.0976C64.4867 61.0976 65.0076 61.2226 65.4545 61.4726C65.9015 61.7188 66.2481 62.0862 66.4943 62.5748C66.7405 63.0635 66.8636 63.6676 66.8636 64.3873V69.9385H65.1648V64.5919C65.1648 63.9593 65 63.465 64.6705 63.1089C64.3409 62.7491 63.8883 62.5692 63.3125 62.5692C62.9186 62.5692 62.5682 62.6544 62.2614 62.8248C61.9583 62.9953 61.7178 63.2453 61.5398 63.5748C61.3655 63.9006 61.2784 64.2945 61.2784 64.7567ZM72.4091 70.1089C71.7045 70.1089 71.0758 69.929 70.5227 69.5692C69.9735 69.2055 69.5417 68.6885 69.2273 68.018C68.9167 67.3438 68.7614 66.5351 68.7614 65.5919C68.7614 64.6487 68.9186 63.8419 69.233 63.1714C69.5511 62.501 69.9867 61.9877 70.5398 61.6317C71.0928 61.2756 71.7197 61.0976 72.4205 61.0976C72.9621 61.0976 73.3977 61.1885 73.7273 61.3703C74.0606 61.5483 74.3182 61.7567 74.5 61.9953C74.6856 62.2339 74.8295 62.4442 74.9318 62.626H75.0341V58.3021H76.733V69.9385H75.0739V68.5805H74.9318C74.8295 68.7661 74.6818 68.9782 74.4886 69.2169C74.2992 69.4555 74.0379 69.6639 73.7045 69.8419C73.3712 70.0199 72.9394 70.1089 72.4091 70.1089ZM72.7841 68.6601C73.2727 68.6601 73.6856 68.5313 74.0227 68.2737C74.3636 68.0123 74.6212 67.6506 74.7955 67.1885C74.9735 66.7264 75.0625 66.1885 75.0625 65.5748C75.0625 64.9688 74.9754 64.4385 74.8011 63.9839C74.6269 63.5294 74.3712 63.1752 74.0341 62.9214C73.697 62.6676 73.2803 62.5407 72.7841 62.5407C72.2727 62.5407 71.8466 62.6733 71.5057 62.9385C71.1648 63.2036 70.9072 63.5654 70.733 64.0237C70.5625 64.482 70.4773 64.9991 70.4773 65.5748C70.4773 66.1582 70.5644 66.6828 70.7386 67.1487C70.9129 67.6146 71.1705 67.9839 71.5114 68.2567C71.8561 68.5256 72.2803 68.6601 72.7841 68.6601Z" fill="white"/>
</svg>
