<svg width="514" height="400" viewBox="0 0 514 400" fill="none" xmlns="http://www.w3.org/2000/svg">
<g clip-path="url(#clip0_318_290)">
<path d="M277.678 130.632C277.746 130.564 277.815 130.496 277.883 130.428C277.951 130.36 278.019 130.292 278.087 130.224" stroke="url(#paint0_linear_318_290)" stroke-opacity="0.5" stroke-width="1.12223" stroke-miterlimit="10"/>
<path d="M216.653 191.726L216.449 191.93" stroke="url(#paint1_linear_318_290)" stroke-opacity="0.5" stroke-width="1.12223" stroke-miterlimit="10"/>
<path d="M313.435 105.228C313.367 106.318 313.367 107.408 313.435 108.429H313.367V218.424V245.872C313.367 262.354 307.374 277.474 297.43 289.121C286.669 303.219 271.14 313.435 253.296 317.522C250.435 318.203 247.438 318.68 244.442 319.02C250.231 318.271 255.611 316.023 260.038 312.686C260.106 312.618 260.175 312.55 260.311 312.482C261.945 311.256 263.512 309.825 264.874 308.259C275.839 297.089 282.582 281.833 282.582 264.942V125.729L321.131 87.1113C317.522 90.9254 314.934 95.7611 313.844 101.142C313.708 102.504 313.503 103.866 313.435 105.228Z" fill="url(#paint2_linear_318_290)" fill-opacity="0.5"/>
<path d="M313.435 105.228C313.367 106.318 313.367 107.408 313.435 108.429H313.367V218.424V245.872C313.367 262.354 307.374 277.474 297.43 289.121C286.669 303.219 271.14 313.435 253.296 317.522C250.435 318.203 247.438 318.68 244.442 319.02C250.231 318.271 255.611 316.023 260.038 312.686C260.106 312.618 260.175 312.55 260.311 312.482C261.945 311.256 263.512 309.825 264.874 308.259C275.839 297.089 282.582 281.833 282.582 264.942V125.729L321.131 87.1113C317.522 90.9254 314.934 95.7611 313.844 101.142C313.708 102.504 313.503 103.866 313.435 105.228Z" stroke="url(#paint3_linear_318_290)" stroke-opacity="0.5" stroke-width="1.12223" stroke-miterlimit="10" stroke-linejoin="bevel"/>
<path d="M282.786 125.524C281.629 126.682 279.109 129.27 278.155 130.156L282.786 125.524Z" stroke="url(#paint4_linear_318_290)" stroke-opacity="0.5" stroke-width="1.12223" stroke-miterlimit="10" stroke-linejoin="bevel"/>
<path d="M247.438 167.683V167.752" stroke="url(#paint5_linear_318_290)" stroke-opacity="0.5" stroke-width="1.12223" stroke-miterlimit="10"/>
<path d="M270.391 96.0328C270.391 99.7106 267.462 102.639 263.784 102.639C262.763 102.639 261.809 102.435 260.924 101.958C259.562 101.345 258.063 100.937 256.497 100.8C256.156 100.732 255.748 100.732 255.339 100.732C252.342 100.732 249.618 101.481 247.37 103.116L258.676 91.9463L259.698 90.9928C260.856 90.1074 262.286 89.5625 263.852 89.5625C265.01 89.5625 266.168 89.903 267.122 90.4479C269.029 91.4695 270.391 93.5809 270.391 96.0328Z" fill="url(#paint6_linear_318_290)" fill-opacity="0.5"/>
<path d="M270.391 96.0328C270.391 99.7106 267.462 102.639 263.784 102.639C262.763 102.639 261.809 102.435 260.924 101.958C259.562 101.345 258.063 100.937 256.497 100.8C256.156 100.732 255.748 100.732 255.339 100.732C252.342 100.732 249.618 101.481 247.37 103.116L258.676 91.9463L259.698 90.9928C260.856 90.1074 262.286 89.5625 263.852 89.5625C265.01 89.5625 266.168 89.903 267.122 90.4479C269.029 91.4695 270.391 93.5809 270.391 96.0328Z" fill="url(#paint7_linear_318_290)" fill-opacity="0.5" stroke="url(#paint8_linear_318_290)" stroke-opacity="0.5" stroke-width="1.12223" stroke-miterlimit="10" stroke-linejoin="bevel"/>
<path d="M271.208 253.568C268.075 251.116 264.67 248.936 261.128 247.097C260.719 246.893 260.243 246.621 259.834 246.416L259.766 246.348C255.884 244.441 251.797 242.943 247.506 241.785C242.058 240.355 236.405 239.605 230.547 239.605C225.78 239.605 221.148 240.082 216.721 241.036C214.065 241.581 211.409 242.33 208.889 243.215C213.725 238.856 216.721 232.59 216.721 225.711V148C216.721 145.957 215.972 144.186 214.678 142.755C213.52 141.53 212.022 140.644 210.319 140.372L216.721 133.97L245.872 104.819L247.506 103.185V209.229C247.779 212.09 248.256 214.882 248.937 217.675C251.729 229.594 257.791 240.287 266.032 248.8C267.598 250.435 269.369 252.001 271.208 253.568Z" fill="url(#paint9_linear_318_290)" fill-opacity="0.5"/>
<path d="M271.208 253.568C268.075 251.116 264.67 248.936 261.128 247.097C260.719 246.893 260.243 246.621 259.834 246.416L259.766 246.348C255.884 244.441 251.797 242.943 247.506 241.785C242.058 240.355 236.405 239.605 230.547 239.605C225.78 239.605 221.148 240.082 216.721 241.036C214.065 241.581 211.409 242.33 208.889 243.215C213.725 238.856 216.721 232.59 216.721 225.711V148C216.721 145.957 215.972 144.186 214.678 142.755C213.52 141.53 212.022 140.644 210.319 140.372L216.721 133.97L245.872 104.819L247.506 103.185V209.229C247.779 212.09 248.256 214.882 248.937 217.675C251.729 229.594 257.791 240.287 266.032 248.8C267.598 250.435 269.369 252.001 271.208 253.568Z" stroke="url(#paint10_linear_318_290)" stroke-opacity="0.5" stroke-width="1.12223" stroke-miterlimit="10" stroke-linejoin="bevel"/>
<path d="M275.363 145.956C275.703 146.705 275.839 147.523 275.839 148.408C275.839 152.086 272.843 155.015 269.233 155.015C266.781 155.015 264.602 153.652 263.512 151.677C262.967 150.724 262.626 149.634 262.626 148.408C262.626 146.842 263.171 145.411 264.057 144.322L264.125 144.253L265.078 143.3L265.146 143.232L277.747 130.632C275.431 133.084 274.001 136.353 274.001 139.963C274.001 140.371 274.001 140.712 274.069 141.121C274.205 142.619 274.545 143.981 275.09 145.275V145.343C275.158 145.548 275.295 145.752 275.363 145.956Z" fill="url(#paint11_linear_318_290)" fill-opacity="0.5"/>
<path d="M275.363 145.956C275.703 146.705 275.839 147.523 275.839 148.408C275.839 152.086 272.843 155.015 269.233 155.015C266.781 155.015 264.602 153.652 263.512 151.677C262.967 150.724 262.626 149.634 262.626 148.408C262.626 146.842 263.171 145.411 264.057 144.322L264.125 144.253L265.078 143.3L265.146 143.232L277.747 130.632C275.431 133.084 274.001 136.353 274.001 139.963C274.001 140.371 274.001 140.712 274.069 141.121C274.205 142.619 274.545 143.981 275.09 145.275V145.343C275.158 145.548 275.295 145.752 275.363 145.956Z" fill="url(#paint12_linear_318_290)" fill-opacity="0.5" stroke="url(#paint13_linear_318_290)" stroke-opacity="0.5" stroke-width="1.12223" stroke-miterlimit="10" stroke-linejoin="bevel"/>
<path d="M271.208 253.567C271.821 254.044 272.366 254.521 272.979 254.93C272.979 254.93 272.979 254.93 273.047 254.998C276.044 257.313 279.313 259.425 282.718 261.196" stroke="url(#paint14_linear_318_290)" stroke-opacity="0.5" stroke-width="1.12223" stroke-miterlimit="10"/>
<path d="M247.438 167.683C247.438 167.819 247.438 167.955 247.37 168.091" stroke="url(#paint15_linear_318_290)" stroke-opacity="0.5" stroke-width="1.12223" stroke-miterlimit="10"/>
<path d="M309.417 268.619L313.64 268.823C316.16 268.823 318.611 268.687 321.063 268.415C321.2 268.415 321.268 268.415 321.404 268.347" stroke="url(#paint16_linear_318_290)" stroke-opacity="0.5" stroke-width="1.12223" stroke-miterlimit="10"/>
<path d="M277.678 130.632C277.746 130.564 277.815 130.496 277.883 130.428C277.951 130.36 278.019 130.292 278.087 130.224" stroke="url(#paint17_linear_318_290)" stroke-opacity="0.5" stroke-width="1.12223" stroke-miterlimit="10"/>
<path d="M348.647 254.384C348.647 257.245 347.081 259.765 344.697 261.127C344.697 261.127 344.697 261.127 344.629 261.127C344.493 261.195 344.356 261.263 344.152 261.332C344.152 261.332 344.084 261.331 344.084 261.4C337.137 265.009 329.441 267.393 321.336 268.347C328.01 267.529 333.119 261.808 333.119 254.929V254.793C333.119 254.589 333.119 254.453 333.119 254.248C333.187 250.026 336.592 246.62 340.883 246.62C345.174 246.688 348.647 250.162 348.647 254.384Z" fill="url(#paint18_linear_318_290)" fill-opacity="0.5"/>
<path d="M348.647 254.384C348.647 257.245 347.081 259.765 344.697 261.127C344.697 261.127 344.697 261.127 344.629 261.127C344.493 261.195 344.356 261.263 344.152 261.332C344.152 261.332 344.084 261.331 344.084 261.4C337.137 265.009 329.441 267.393 321.336 268.347C328.01 267.529 333.119 261.808 333.119 254.929V254.793C333.119 254.589 333.119 254.453 333.119 254.248C333.187 250.026 336.592 246.62 340.883 246.62C345.174 246.688 348.647 250.162 348.647 254.384Z" fill="url(#paint19_linear_318_290)" fill-opacity="0.5" stroke="url(#paint20_linear_318_290)" stroke-opacity="0.5" stroke-width="1.12223" stroke-miterlimit="10" stroke-linejoin="bevel"/>
<path d="M197.311 190.84C196.561 195.063 192.543 197.855 188.32 197.106C187.775 197.038 187.299 196.834 186.822 196.698C186.822 196.698 186.822 196.698 186.754 196.698C186.686 196.629 186.549 196.629 186.481 196.561C186.481 196.561 186.413 196.561 186.413 196.493C185.46 196.085 184.506 195.812 183.485 195.608C179.058 194.791 174.699 196.289 171.702 199.218C170.953 199.899 170.272 200.716 169.727 201.601C169.659 201.738 169.591 201.874 169.522 202.01C170.067 200.988 170.68 199.967 171.293 199.013C174.903 193.292 179.398 188.184 184.438 183.893C184.642 183.757 184.779 183.621 184.983 183.416C184.983 183.416 185.051 183.416 185.051 183.348C186.686 182.122 188.865 181.509 191.045 181.918C195.267 182.667 198.06 186.686 197.311 190.84Z" fill="url(#paint21_linear_318_290)" fill-opacity="0.5"/>
<path d="M197.311 190.84C196.561 195.063 192.543 197.855 188.32 197.106C187.775 197.038 187.299 196.834 186.822 196.698C186.822 196.698 186.822 196.698 186.754 196.698C186.686 196.629 186.549 196.629 186.481 196.561C186.481 196.561 186.413 196.561 186.413 196.493C185.46 196.085 184.506 195.812 183.485 195.608C179.058 194.791 174.699 196.289 171.702 199.218C170.953 199.899 170.272 200.716 169.727 201.601C169.659 201.738 169.591 201.874 169.522 202.01C170.067 200.988 170.68 199.967 171.293 199.013C174.903 193.292 179.398 188.184 184.438 183.893C184.642 183.757 184.779 183.621 184.983 183.416C184.983 183.416 185.051 183.416 185.051 183.348C186.686 182.122 188.865 181.509 191.045 181.918C195.267 182.667 198.06 186.686 197.311 190.84Z" fill="url(#paint22_linear_318_290)" fill-opacity="0.5" stroke="url(#paint23_linear_318_290)" stroke-opacity="0.5" stroke-width="1.12223" stroke-miterlimit="10" stroke-linejoin="bevel"/>
<path d="M265.078 143.232L264.057 144.254C264.397 143.845 264.738 143.505 265.078 143.232Z" stroke="url(#paint24_linear_318_290)" stroke-opacity="0.5" stroke-width="1.12223" stroke-miterlimit="10"/>
<path d="M244.442 319.088C243.624 319.156 242.807 319.224 241.99 319.292C239.946 319.428 237.971 319.497 235.86 319.497C193.02 319.497 158.353 284.761 158.353 241.989C158.353 227.346 162.371 213.656 169.454 202.01" stroke="url(#paint25_linear_318_290)" stroke-opacity="0.5" stroke-width="1.12223" stroke-miterlimit="10" stroke-linejoin="round"/>
<path d="M252.955 317.726C253.023 317.658 253.159 317.59 253.228 317.521" stroke="url(#paint26_linear_318_290)" stroke-opacity="0.5" stroke-width="1.12223" stroke-miterlimit="10" stroke-linejoin="round"/>
<path d="M102.776 349.123C85.8854 349.123 72.1276 335.434 72.1276 318.475C80.573 318.475 88.2692 321.88 93.786 327.465C99.3709 332.982 102.776 340.678 102.776 349.123Z" stroke="url(#paint27_linear_318_290)" stroke-opacity="0.5" stroke-width="2.80558" stroke-miterlimit="10"/>
<path d="M132.54 304.648C115.649 304.648 101.891 318.338 101.891 335.297C110.336 335.297 118.033 331.892 123.549 326.307C129.134 320.722 132.54 313.094 132.54 304.648Z" stroke="url(#paint28_linear_318_290)" stroke-opacity="0.5" stroke-width="2.80558" stroke-miterlimit="10"/>
<path d="M102.776 318.816C85.8854 318.816 72.1276 305.126 72.1276 288.167C80.573 288.167 88.2692 291.572 93.786 297.157C99.3709 302.742 102.776 310.37 102.776 318.816Z" stroke="url(#paint29_linear_318_290)" stroke-opacity="0.5" stroke-width="2.80558" stroke-miterlimit="10"/>
<path d="M132.54 274.341C115.649 274.341 101.891 288.031 101.891 304.99C110.336 304.99 118.033 301.584 123.549 295.999C129.134 290.482 132.54 282.786 132.54 274.341Z" stroke="url(#paint30_linear_318_290)" stroke-opacity="0.5" stroke-width="2.80558" stroke-miterlimit="10"/>
<path d="M98.9622 289.665C86.6346 278.086 86.0216 258.675 97.6001 246.348C103.798 252.137 106.999 259.901 107.271 267.734C107.544 275.566 104.751 283.467 98.9622 289.665Z" stroke="url(#paint31_linear_318_290)" stroke-opacity="0.5" stroke-width="2.80558" stroke-miterlimit="10"/>
<path d="M119.327 366.968C119.327 350.077 133.016 336.319 149.975 336.319C149.975 344.765 146.57 352.461 140.985 357.978C135.468 363.495 127.84 366.968 119.327 366.968Z" stroke="url(#paint32_linear_318_290)" stroke-opacity="0.5" stroke-width="2.80558" stroke-miterlimit="10"/>
<path d="M163.869 396.731C163.869 379.84 150.18 366.082 133.221 366.082C133.221 374.527 136.626 382.224 142.211 387.74C147.728 393.257 155.356 396.731 163.869 396.731Z" stroke="url(#paint33_linear_318_290)" stroke-opacity="0.5" stroke-width="2.80558" stroke-miterlimit="10"/>
<path d="M149.635 366.968C149.635 350.077 163.325 336.319 180.284 336.319C180.284 344.765 176.878 352.461 171.293 357.978C165.776 363.495 158.08 366.968 149.635 366.968Z" stroke="url(#paint34_linear_318_290)" stroke-opacity="0.5" stroke-width="2.80558" stroke-miterlimit="10"/>
<path d="M194.11 396.731C194.11 379.84 180.42 366.082 163.461 366.082C163.461 374.527 166.866 382.224 172.451 387.74C177.968 393.257 185.664 396.731 194.11 396.731Z" stroke="url(#paint35_linear_318_290)" stroke-opacity="0.5" stroke-width="2.80558" stroke-miterlimit="10"/>
<path d="M178.785 363.154C190.364 350.827 209.774 350.214 222.102 361.792C216.313 367.99 208.548 371.191 200.716 371.464C192.884 371.736 184.983 368.944 178.785 363.154Z" stroke="url(#paint36_linear_318_290)" stroke-opacity="0.5" stroke-width="2.80558" stroke-miterlimit="10"/>
<path d="M92.4238 386.378C100.662 386.378 107.34 379.7 107.34 371.463C107.34 363.225 100.662 356.547 92.4238 356.547C84.1861 356.547 77.5081 363.225 77.5081 371.463C77.5081 379.7 84.1861 386.378 92.4238 386.378Z" stroke="url(#paint37_linear_318_290)" stroke-opacity="0.5" stroke-width="2.80558" stroke-miterlimit="10"/>
<path d="M392.986 52.7842C409.877 52.7842 423.634 66.4739 423.634 83.4329C415.189 83.4329 407.493 80.0275 401.976 74.4426C396.459 68.9258 392.986 61.2296 392.986 52.7842Z" stroke="url(#paint38_linear_318_290)" stroke-opacity="0.5" stroke-width="2.80558" stroke-miterlimit="10"/>
<path d="M363.222 97.2591C380.113 97.2591 393.871 83.5693 393.871 66.6104C385.426 66.6104 377.729 70.0158 372.213 75.6006C366.696 81.1174 363.222 88.8137 363.222 97.2591Z" stroke="url(#paint39_linear_318_290)" stroke-opacity="0.5" stroke-width="2.80558" stroke-miterlimit="10"/>
<path d="M392.986 83.0928C409.877 83.0928 423.634 96.7825 423.634 113.742C415.189 113.742 407.493 110.336 401.976 104.751C396.459 99.1663 392.986 91.5382 392.986 83.0928Z" stroke="url(#paint40_linear_318_290)" stroke-opacity="0.5" stroke-width="2.80558" stroke-miterlimit="10"/>
<path d="M363.222 127.568C380.113 127.568 393.871 113.878 393.871 96.9189C385.426 96.9189 377.729 100.324 372.213 105.909C366.696 111.426 363.222 119.054 363.222 127.568Z" stroke="url(#paint41_linear_318_290)" stroke-opacity="0.5" stroke-width="2.80558" stroke-miterlimit="10"/>
<path d="M396.8 112.243C409.127 123.822 409.74 143.232 398.162 155.56C391.964 149.771 388.763 142.006 388.491 134.174C388.286 126.342 391.011 118.373 396.8 112.243Z" stroke="url(#paint42_linear_318_290)" stroke-opacity="0.5" stroke-width="2.80558" stroke-miterlimit="10"/>
<path d="M376.435 34.9404C376.435 51.8313 362.746 65.5892 345.787 65.5892C345.787 57.1437 349.192 49.4475 354.777 43.9307C360.294 38.3458 367.99 34.9404 376.435 34.9404Z" stroke="url(#paint43_linear_318_290)" stroke-opacity="0.5" stroke-width="2.80558" stroke-miterlimit="10"/>
<path d="M331.961 5.17676C331.961 22.0676 345.65 35.8255 362.609 35.8255C362.609 27.3801 359.204 19.6838 353.619 14.1671C348.034 8.58217 340.406 5.17676 331.961 5.17676Z" stroke="url(#paint44_linear_318_290)" stroke-opacity="0.5" stroke-width="2.80558" stroke-miterlimit="10"/>
<path d="M346.127 34.9404C346.127 51.8313 332.437 65.5892 315.478 65.5892C315.478 57.1437 318.884 49.4475 324.469 43.9307C330.054 38.3458 337.682 34.9404 346.127 34.9404Z" stroke="url(#paint45_linear_318_290)" stroke-opacity="0.5" stroke-width="2.80558" stroke-miterlimit="10"/>
<path d="M301.653 5.17676C301.653 22.0676 315.342 35.8255 332.301 35.8255C332.301 27.3801 328.896 19.6838 323.311 14.1671C317.794 8.58217 310.098 5.17676 301.653 5.17676Z" stroke="url(#paint46_linear_318_290)" stroke-opacity="0.5" stroke-width="2.80558" stroke-miterlimit="10"/>
<path d="M316.977 38.7545C305.398 51.0821 285.988 51.6951 273.66 40.1167C279.449 33.9188 287.214 30.7178 295.046 30.4453C302.878 30.1729 310.779 32.8972 316.977 38.7545Z" stroke="url(#paint47_linear_318_290)" stroke-opacity="0.5" stroke-width="2.80558" stroke-miterlimit="10"/>
<path d="M417.666 34.7704C420.042 26.9221 415.577 18.6245 407.693 16.2372C399.809 13.8499 391.491 18.277 389.114 26.1253C386.738 33.9736 391.203 42.2712 399.087 44.6585C406.972 47.0458 415.29 42.6188 417.666 34.7704Z" stroke="url(#paint48_linear_318_290)" stroke-opacity="0.5" stroke-width="2.80558" stroke-miterlimit="10"/>
<path d="M441.002 136.898C447.677 156.718 451.218 177.9 451.218 199.967C451.218 309.485 362.405 398.23 252.955 398.23C243.692 398.23 234.634 397.617 225.712 396.391" stroke="url(#paint49_linear_318_290)" stroke-opacity="0.5" stroke-width="2.80558" stroke-miterlimit="10"/>
<path d="M67.9049 271.412C59.3913 249.277 54.6918 225.166 54.6918 199.966C54.6918 90.5163 143.505 1.70312 252.955 1.70312C263.103 1.70312 273.047 2.45232 282.787 3.9507" stroke="url(#paint50_linear_318_290)" stroke-opacity="0.5" stroke-width="2.80558" stroke-miterlimit="10"/>
</g>
<path d="M110 204.4C110 204.4 110 204.8 110 206C119.8 206.6 125.4 214.2 125.4 226.4V253C118.8 260.2 109.8 265.8 97.8 267.4C62.2 272 36 252.2 25.2 217C14.4 181.6 26.8 141.2 61 133.8C87.2 128.2 111 145.4 125.6 168.6H127L133 145.8C116 134.6 103 129 81.4 129C41.8 129 6 161 6 200.6C6 240.2 38 272.2 77.4 272.2C116.6 272.2 135.8 251 141.2 239.4V217.8C141.2 210.6 142.6 207.8 145.6 206C145.6 205.6 145.6 204.4 145.6 204.4H110ZM185.339 132.6C185.339 132.2 185.339 131 185.339 131H160.539C160.539 131 160.539 132.2 160.539 132.6C163.539 134.4 164.939 137.4 164.939 144.4V257.8C164.939 264.8 163.539 267.8 160.539 269.6C160.539 270 160.539 271 160.539 271H185.339C185.339 271 185.339 270 185.339 269.6C182.139 267.8 180.739 264.8 180.739 257.8V144.4C180.739 137.4 182.139 134.4 185.339 132.6ZM276.759 131H201.359C201.359 131 201.359 132.2 201.359 132.6C204.359 134.4 205.759 137.4 205.759 144.4V257.8C205.759 264.8 204.359 267.8 201.359 269.6C201.359 270 201.359 271 201.359 271H225.959C225.959 271 225.959 270 225.959 269.6C222.959 267.8 221.559 264.8 221.559 257.8V199.6L267.559 204V193.8L221.559 198V132.6H238.359C260.559 132.6 273.159 145.8 282.159 156L283.159 155.4L276.759 131ZM397.156 131H295.556L289.156 155.4L290.356 156C299.356 145.8 311.956 132.6 334.156 132.6H338.556V257.8C338.556 264.8 336.956 267.8 333.956 269.6C333.956 270 333.956 271 333.956 271H358.756C358.756 271 358.756 270 358.756 269.6C355.756 267.8 354.156 264.8 354.156 257.8V132.6H358.556C380.756 132.6 393.356 145.8 402.356 156L403.556 155.4L397.156 131ZM463.256 129C431.056 129 418.056 149.2 418.056 165.4C418.056 215.6 504.056 202 498.856 244.6C497.256 257.2 483.056 268.2 466.056 268.2C439.856 268.2 421.256 250 411.056 229.6H409.656L403.656 252.4C419.256 264.2 434.056 272.2 457.856 272.2C486.256 272.2 507.656 255.4 507.656 231.6C507.656 181.6 421.856 194.8 425.656 154.8C426.856 142.8 438.256 131.6 458.056 131.6C473.856 131.6 488.456 141.8 499.856 168.6H501.256L507.256 147.8C495.456 138.6 478.656 129 463.256 129Z" fill="white"/>
<defs>
<linearGradient id="paint0_linear_318_290" x1="277.883" y1="130.224" x2="277.883" y2="130.632" gradientUnits="userSpaceOnUse">
<stop stop-color="#E7A800"/>
<stop offset="1" stop-color="#E7A800" stop-opacity="0.28"/>
</linearGradient>
<linearGradient id="paint1_linear_318_290" x1="216.551" y1="191.726" x2="216.551" y2="191.93" gradientUnits="userSpaceOnUse">
<stop stop-color="#E7A800"/>
<stop offset="1" stop-color="#E7A800" stop-opacity="0.28"/>
</linearGradient>
<linearGradient id="paint2_linear_318_290" x1="282.786" y1="87.1113" x2="282.786" y2="319.02" gradientUnits="userSpaceOnUse">
<stop stop-color="#E7A800"/>
<stop offset="1" stop-color="#E7A800" stop-opacity="0.28"/>
</linearGradient>
<linearGradient id="paint3_linear_318_290" x1="282.786" y1="87.1113" x2="282.786" y2="319.02" gradientUnits="userSpaceOnUse">
<stop stop-color="#E7A800"/>
<stop offset="1" stop-color="#E7A800" stop-opacity="0.28"/>
</linearGradient>
<linearGradient id="paint4_linear_318_290" x1="280.471" y1="125.524" x2="280.471" y2="130.156" gradientUnits="userSpaceOnUse">
<stop stop-color="#E7A800"/>
<stop offset="1" stop-color="#E7A800" stop-opacity="0.28"/>
</linearGradient>
<linearGradient id="paint5_linear_318_290" x1="247.938" y1="167.683" x2="247.938" y2="167.752" gradientUnits="userSpaceOnUse">
<stop stop-color="#E7A800"/>
<stop offset="1" stop-color="#E7A800" stop-opacity="0.28"/>
</linearGradient>
<linearGradient id="paint6_linear_318_290" x1="258.88" y1="89.5625" x2="258.88" y2="103.116" gradientUnits="userSpaceOnUse">
<stop stop-color="#E7A800"/>
<stop offset="1" stop-color="#E7A800" stop-opacity="0.28"/>
</linearGradient>
<linearGradient id="paint7_linear_318_290" x1="258.88" y1="89.5625" x2="258.88" y2="103.116" gradientUnits="userSpaceOnUse">
<stop stop-color="#E7A800"/>
<stop offset="1" stop-color="#E7A800" stop-opacity="0.28"/>
</linearGradient>
<linearGradient id="paint8_linear_318_290" x1="258.88" y1="89.5625" x2="258.88" y2="103.116" gradientUnits="userSpaceOnUse">
<stop stop-color="#E7A800"/>
<stop offset="1" stop-color="#E7A800" stop-opacity="0.28"/>
</linearGradient>
<linearGradient id="paint9_linear_318_290" x1="240.049" y1="103.185" x2="240.049" y2="253.568" gradientUnits="userSpaceOnUse">
<stop stop-color="#E7A800"/>
<stop offset="1" stop-color="#E7A800" stop-opacity="0.28"/>
</linearGradient>
<linearGradient id="paint10_linear_318_290" x1="240.049" y1="103.185" x2="240.049" y2="253.568" gradientUnits="userSpaceOnUse">
<stop stop-color="#E7A800"/>
<stop offset="1" stop-color="#E7A800" stop-opacity="0.28"/>
</linearGradient>
<linearGradient id="paint11_linear_318_290" x1="270.186" y1="130.632" x2="270.186" y2="155.015" gradientUnits="userSpaceOnUse">
<stop stop-color="#E7A800"/>
<stop offset="1" stop-color="#E7A800" stop-opacity="0.28"/>
</linearGradient>
<linearGradient id="paint12_linear_318_290" x1="270.186" y1="130.632" x2="270.186" y2="155.015" gradientUnits="userSpaceOnUse">
<stop stop-color="#E7A800"/>
<stop offset="1" stop-color="#E7A800" stop-opacity="0.28"/>
</linearGradient>
<linearGradient id="paint13_linear_318_290" x1="270.186" y1="130.632" x2="270.186" y2="155.015" gradientUnits="userSpaceOnUse">
<stop stop-color="#E7A800"/>
<stop offset="1" stop-color="#E7A800" stop-opacity="0.28"/>
</linearGradient>
<linearGradient id="paint14_linear_318_290" x1="276.963" y1="253.567" x2="276.963" y2="261.196" gradientUnits="userSpaceOnUse">
<stop stop-color="#E7A800"/>
<stop offset="1" stop-color="#E7A800" stop-opacity="0.28"/>
</linearGradient>
<linearGradient id="paint15_linear_318_290" x1="247.404" y1="167.683" x2="247.404" y2="168.091" gradientUnits="userSpaceOnUse">
<stop stop-color="#E7A800"/>
<stop offset="1" stop-color="#E7A800" stop-opacity="0.28"/>
</linearGradient>
<linearGradient id="paint16_linear_318_290" x1="315.41" y1="268.347" x2="315.41" y2="268.823" gradientUnits="userSpaceOnUse">
<stop stop-color="#E7A800"/>
<stop offset="1" stop-color="#E7A800" stop-opacity="0.28"/>
</linearGradient>
<linearGradient id="paint17_linear_318_290" x1="277.883" y1="130.224" x2="277.883" y2="130.632" gradientUnits="userSpaceOnUse">
<stop stop-color="#E7A800"/>
<stop offset="1" stop-color="#E7A800" stop-opacity="0.28"/>
</linearGradient>
<linearGradient id="paint18_linear_318_290" x1="334.991" y1="246.62" x2="334.991" y2="268.347" gradientUnits="userSpaceOnUse">
<stop stop-color="#E7A800"/>
<stop offset="1" stop-color="#E7A800" stop-opacity="0.28"/>
</linearGradient>
<linearGradient id="paint19_linear_318_290" x1="334.991" y1="246.62" x2="334.991" y2="268.347" gradientUnits="userSpaceOnUse">
<stop stop-color="#E7A800"/>
<stop offset="1" stop-color="#E7A800" stop-opacity="0.28"/>
</linearGradient>
<linearGradient id="paint20_linear_318_290" x1="334.991" y1="246.62" x2="334.991" y2="268.347" gradientUnits="userSpaceOnUse">
<stop stop-color="#E7A800"/>
<stop offset="1" stop-color="#E7A800" stop-opacity="0.28"/>
</linearGradient>
<linearGradient id="paint21_linear_318_290" x1="183.477" y1="181.792" x2="183.477" y2="202.01" gradientUnits="userSpaceOnUse">
<stop stop-color="#E7A800"/>
<stop offset="1" stop-color="#E7A800" stop-opacity="0.28"/>
</linearGradient>
<linearGradient id="paint22_linear_318_290" x1="183.477" y1="181.792" x2="183.477" y2="202.01" gradientUnits="userSpaceOnUse">
<stop stop-color="#E7A800"/>
<stop offset="1" stop-color="#E7A800" stop-opacity="0.28"/>
</linearGradient>
<linearGradient id="paint23_linear_318_290" x1="183.477" y1="181.792" x2="183.477" y2="202.01" gradientUnits="userSpaceOnUse">
<stop stop-color="#E7A800"/>
<stop offset="1" stop-color="#E7A800" stop-opacity="0.28"/>
</linearGradient>
<linearGradient id="paint24_linear_318_290" x1="264.568" y1="143.232" x2="264.568" y2="144.254" gradientUnits="userSpaceOnUse">
<stop stop-color="#E7A800"/>
<stop offset="1" stop-color="#E7A800" stop-opacity="0.28"/>
</linearGradient>
<linearGradient id="paint25_linear_318_290" x1="201.397" y1="202.01" x2="201.397" y2="319.497" gradientUnits="userSpaceOnUse">
<stop stop-color="#E7A800"/>
<stop offset="1" stop-color="#E7A800" stop-opacity="0.28"/>
</linearGradient>
<linearGradient id="paint26_linear_318_290" x1="253.091" y1="317.521" x2="253.091" y2="317.726" gradientUnits="userSpaceOnUse">
<stop stop-color="#E7A800"/>
<stop offset="1" stop-color="#E7A800" stop-opacity="0.28"/>
</linearGradient>
<linearGradient id="paint27_linear_318_290" x1="87.4519" y1="318.475" x2="87.4519" y2="349.123" gradientUnits="userSpaceOnUse">
<stop stop-color="#E7A800"/>
<stop offset="1" stop-color="#E7A800" stop-opacity="0.28"/>
</linearGradient>
<linearGradient id="paint28_linear_318_290" x1="117.215" y1="304.648" x2="117.215" y2="335.297" gradientUnits="userSpaceOnUse">
<stop stop-color="#E7A800"/>
<stop offset="1" stop-color="#E7A800" stop-opacity="0.28"/>
</linearGradient>
<linearGradient id="paint29_linear_318_290" x1="87.4519" y1="288.167" x2="87.4519" y2="318.816" gradientUnits="userSpaceOnUse">
<stop stop-color="#E7A800"/>
<stop offset="1" stop-color="#E7A800" stop-opacity="0.28"/>
</linearGradient>
<linearGradient id="paint30_linear_318_290" x1="117.215" y1="274.341" x2="117.215" y2="304.99" gradientUnits="userSpaceOnUse">
<stop stop-color="#E7A800"/>
<stop offset="1" stop-color="#E7A800" stop-opacity="0.28"/>
</linearGradient>
<linearGradient id="paint31_linear_318_290" x1="98.2953" y1="246.348" x2="98.2953" y2="289.665" gradientUnits="userSpaceOnUse">
<stop stop-color="#E7A800"/>
<stop offset="1" stop-color="#E7A800" stop-opacity="0.28"/>
</linearGradient>
<linearGradient id="paint32_linear_318_290" x1="134.651" y1="336.319" x2="134.651" y2="366.968" gradientUnits="userSpaceOnUse">
<stop stop-color="#E7A800"/>
<stop offset="1" stop-color="#E7A800" stop-opacity="0.28"/>
</linearGradient>
<linearGradient id="paint33_linear_318_290" x1="148.545" y1="366.082" x2="148.545" y2="396.731" gradientUnits="userSpaceOnUse">
<stop stop-color="#E7A800"/>
<stop offset="1" stop-color="#E7A800" stop-opacity="0.28"/>
</linearGradient>
<linearGradient id="paint34_linear_318_290" x1="164.959" y1="336.319" x2="164.959" y2="366.968" gradientUnits="userSpaceOnUse">
<stop stop-color="#E7A800"/>
<stop offset="1" stop-color="#E7A800" stop-opacity="0.28"/>
</linearGradient>
<linearGradient id="paint35_linear_318_290" x1="178.785" y1="366.082" x2="178.785" y2="396.731" gradientUnits="userSpaceOnUse">
<stop stop-color="#E7A800"/>
<stop offset="1" stop-color="#E7A800" stop-opacity="0.28"/>
</linearGradient>
<linearGradient id="paint36_linear_318_290" x1="200.444" y1="353.493" x2="200.444" y2="371.482" gradientUnits="userSpaceOnUse">
<stop stop-color="#E7A800"/>
<stop offset="1" stop-color="#E7A800" stop-opacity="0.28"/>
</linearGradient>
<linearGradient id="paint37_linear_318_290" x1="92.4238" y1="356.547" x2="92.4238" y2="386.378" gradientUnits="userSpaceOnUse">
<stop stop-color="#E7A800"/>
<stop offset="1" stop-color="#E7A800" stop-opacity="0.28"/>
</linearGradient>
<linearGradient id="paint38_linear_318_290" x1="408.31" y1="52.7842" x2="408.31" y2="83.4329" gradientUnits="userSpaceOnUse">
<stop stop-color="#E7A800"/>
<stop offset="1" stop-color="#E7A800" stop-opacity="0.28"/>
</linearGradient>
<linearGradient id="paint39_linear_318_290" x1="378.547" y1="66.6104" x2="378.547" y2="97.2591" gradientUnits="userSpaceOnUse">
<stop stop-color="#E7A800"/>
<stop offset="1" stop-color="#E7A800" stop-opacity="0.28"/>
</linearGradient>
<linearGradient id="paint40_linear_318_290" x1="408.31" y1="83.0928" x2="408.31" y2="113.742" gradientUnits="userSpaceOnUse">
<stop stop-color="#E7A800"/>
<stop offset="1" stop-color="#E7A800" stop-opacity="0.28"/>
</linearGradient>
<linearGradient id="paint41_linear_318_290" x1="378.547" y1="96.9189" x2="378.547" y2="127.568" gradientUnits="userSpaceOnUse">
<stop stop-color="#E7A800"/>
<stop offset="1" stop-color="#E7A800" stop-opacity="0.28"/>
</linearGradient>
<linearGradient id="paint42_linear_318_290" x1="397.47" y1="112.243" x2="397.47" y2="155.56" gradientUnits="userSpaceOnUse">
<stop stop-color="#E7A800"/>
<stop offset="1" stop-color="#E7A800" stop-opacity="0.28"/>
</linearGradient>
<linearGradient id="paint43_linear_318_290" x1="361.111" y1="34.9404" x2="361.111" y2="65.5892" gradientUnits="userSpaceOnUse">
<stop stop-color="#E7A800"/>
<stop offset="1" stop-color="#E7A800" stop-opacity="0.28"/>
</linearGradient>
<linearGradient id="paint44_linear_318_290" x1="347.285" y1="5.17676" x2="347.285" y2="35.8255" gradientUnits="userSpaceOnUse">
<stop stop-color="#E7A800"/>
<stop offset="1" stop-color="#E7A800" stop-opacity="0.28"/>
</linearGradient>
<linearGradient id="paint45_linear_318_290" x1="330.803" y1="34.9404" x2="330.803" y2="65.5892" gradientUnits="userSpaceOnUse">
<stop stop-color="#E7A800"/>
<stop offset="1" stop-color="#E7A800" stop-opacity="0.28"/>
</linearGradient>
<linearGradient id="paint46_linear_318_290" x1="316.977" y1="5.17676" x2="316.977" y2="35.8255" gradientUnits="userSpaceOnUse">
<stop stop-color="#E7A800"/>
<stop offset="1" stop-color="#E7A800" stop-opacity="0.28"/>
</linearGradient>
<linearGradient id="paint47_linear_318_290" x1="295.318" y1="30.4268" x2="295.318" y2="48.4157" gradientUnits="userSpaceOnUse">
<stop stop-color="#E7A800"/>
<stop offset="1" stop-color="#E7A800" stop-opacity="0.28"/>
</linearGradient>
<linearGradient id="paint48_linear_318_290" x1="389.114" y1="26.1253" x2="417.666" y2="34.7704" gradientUnits="userSpaceOnUse">
<stop stop-color="#E7A800"/>
<stop offset="1" stop-color="#E7A800" stop-opacity="0.28"/>
</linearGradient>
<linearGradient id="paint49_linear_318_290" x1="338.465" y1="136.898" x2="338.465" y2="398.23" gradientUnits="userSpaceOnUse">
<stop stop-color="#E7A800"/>
<stop offset="1" stop-color="#E7A800" stop-opacity="0.28"/>
</linearGradient>
<linearGradient id="paint50_linear_318_290" x1="168.739" y1="1.70312" x2="168.739" y2="271.412" gradientUnits="userSpaceOnUse">
<stop stop-color="#E7A800"/>
<stop offset="1" stop-color="#E7A800" stop-opacity="0.28"/>
</linearGradient>
<clipPath id="clip0_318_290">
<rect width="400" height="400" fill="white" transform="translate(52.9891)"/>
</clipPath>
</defs>
</svg>
