<svg width="51" height="52" viewBox="0 0 51 52" fill="none" xmlns="http://www.w3.org/2000/svg">
<g clip-path="url(#clip0_5_6)">
<path d="M28.1649 17.3044C28.1735 17.2959 28.182 17.2873 28.1905 17.2788C28.1991 17.2702 28.2076 17.2617 28.2161 17.2532" stroke="#A90000" stroke-width="0.170749" stroke-miterlimit="10"/>
<path d="M20.5154 24.9624L20.4897 24.988" stroke="#A90000" stroke-width="0.170749" stroke-miterlimit="10"/>
<path d="M32.6471 14.1201C32.6385 14.2567 32.6385 14.3933 32.6471 14.5213H32.6385V28.3093V31.7499C32.6385 33.816 31.8872 35.7113 30.6408 37.1712C29.2919 38.9384 27.3453 40.219 25.1085 40.7313C24.75 40.8167 24.3743 40.8764 23.9987 40.9191C24.7243 40.8252 25.3988 40.5435 25.9537 40.1251C25.9623 40.1166 25.9708 40.108 25.9879 40.0995C26.1928 39.9458 26.3891 39.7665 26.5599 39.5702C27.9344 38.17 28.7796 36.2577 28.7796 34.1404V16.6898L33.6118 11.8491C33.1593 12.3272 32.8349 12.9334 32.6983 13.6078C32.6812 13.7786 32.6556 13.9493 32.6471 14.1201Z" fill="#A90000"/>
<path d="M32.6471 14.1201C32.6385 14.2567 32.6385 14.3933 32.6471 14.5213H32.6385V28.3093V31.7499C32.6385 33.816 31.8873 35.7113 30.6408 37.1712C29.2919 38.9384 27.3453 40.219 25.1085 40.7313C24.75 40.8167 24.3743 40.8764 23.9987 40.9191C24.7243 40.8252 25.3988 40.5435 25.9537 40.1251C25.9623 40.1166 25.9708 40.108 25.9879 40.0995C26.1928 39.9458 26.3891 39.7665 26.5599 39.5702C27.9344 38.17 28.7796 36.2577 28.7796 34.1404V16.6898L33.6118 11.8491C33.1593 12.3272 32.8349 12.9334 32.6983 13.6078C32.6812 13.7786 32.6556 13.9493 32.6471 14.1201Z" stroke="#A90000" stroke-width="0.170749" stroke-miterlimit="10" stroke-linejoin="bevel"/>
<path d="M26.5599 39.5701C26.3806 39.7664 26.1928 39.9457 25.9879 40.0994C26.0818 40.0226 26.1757 39.9457 26.2611 39.8603C26.3636 39.775 26.466 39.6725 26.5599 39.5701Z" stroke="#A90000" stroke-width="0.170749" stroke-miterlimit="10" stroke-linejoin="bevel"/>
<path d="M28.8053 16.6641C28.6601 16.8092 28.3443 17.1336 28.2247 17.2446L28.8053 16.6641Z" stroke="#A90000" stroke-width="0.170749" stroke-miterlimit="10" stroke-linejoin="bevel"/>
<path d="M24.3743 21.9487V21.9577" stroke="#A90000" stroke-width="0.170749" stroke-miterlimit="10"/>
<path d="M27.2515 12.9673C27.2515 13.4283 26.8844 13.7954 26.4234 13.7954C26.2953 13.7954 26.1758 13.7698 26.0648 13.7101C25.894 13.6332 25.7062 13.582 25.5099 13.5649C25.4672 13.5564 25.416 13.5564 25.3647 13.5564C24.9891 13.5564 24.6476 13.6503 24.3658 13.8552L25.7831 12.4551L25.9111 12.3355C26.0563 12.2246 26.2355 12.1562 26.4319 12.1562C26.577 12.1562 26.7222 12.1989 26.8417 12.2672C27.0808 12.3953 27.2515 12.66 27.2515 12.9673Z" fill="#A90000"/>
<path d="M27.2515 12.9673C27.2515 13.4283 26.8844 13.7954 26.4234 13.7954C26.2953 13.7954 26.1758 13.7698 26.0648 13.7101C25.894 13.6332 25.7062 13.582 25.5099 13.5649C25.4672 13.5564 25.416 13.5564 25.3647 13.5564C24.9891 13.5564 24.6476 13.6503 24.3658 13.8552L25.7831 12.4551L25.9111 12.3355C26.0563 12.2246 26.2355 12.1562 26.4319 12.1562C26.577 12.1562 26.7222 12.1989 26.8417 12.2672C27.0808 12.3953 27.2515 12.66 27.2515 12.9673Z" stroke="#A90000" stroke-width="0.170749" stroke-miterlimit="10" stroke-linejoin="bevel"/>
<path d="M27.3539 32.7144C26.9611 32.4071 26.5343 32.1339 26.0903 31.9034C26.0391 31.8778 25.9793 31.8436 25.9281 31.818L25.9196 31.8095C25.4329 31.5704 24.9207 31.3826 24.3828 31.2375C23.6998 31.0582 22.9912 30.9643 22.257 30.9643C21.6594 30.9643 21.0789 31.024 20.5239 31.1435C20.191 31.2118 19.858 31.3058 19.5421 31.4167C20.1483 30.8703 20.5239 30.0849 20.5239 29.2226V19.4814C20.5239 19.2253 20.43 19.0033 20.2678 18.824C20.1227 18.6703 19.9348 18.5594 19.7214 18.5252L20.5239 17.7227L24.1779 14.0687L24.3828 13.8638V27.1566C24.417 27.5151 24.4768 27.8652 24.5621 28.2152C24.9122 29.7093 25.672 31.0496 26.705 32.1168C26.9014 32.3217 27.1234 32.5181 27.3539 32.7144Z" fill="#A90000"/>
<path d="M27.3539 32.7144C26.9611 32.4071 26.5343 32.1339 26.0903 31.9034C26.0391 31.8778 25.9793 31.8436 25.9281 31.818L25.9196 31.8095C25.4329 31.5704 24.9207 31.3826 24.3828 31.2375C23.6998 31.0582 22.9912 30.9643 22.257 30.9643C21.6594 30.9643 21.0789 31.024 20.5239 31.1435C20.191 31.2118 19.858 31.3058 19.5421 31.4167C20.1483 30.8703 20.5239 30.0849 20.5239 29.2226V19.4814C20.5239 19.2253 20.43 19.0033 20.2678 18.824C20.1227 18.6703 19.9348 18.5594 19.7214 18.5252L20.5239 17.7227L24.1779 14.0687L24.3828 13.8638V27.1566C24.417 27.5151 24.4768 27.8652 24.5621 28.2152C24.9122 29.7093 25.672 31.0496 26.705 32.1168C26.9014 32.3217 27.1234 32.5181 27.3539 32.7144Z" stroke="#A90000" stroke-width="0.170749" stroke-miterlimit="10" stroke-linejoin="bevel"/>
<path d="M27.8747 19.2254C27.9174 19.3193 27.9345 19.4217 27.9345 19.5327C27.9345 19.9937 27.5588 20.3608 27.1063 20.3608C26.799 20.3608 26.5258 20.1901 26.3892 19.9425C26.3209 19.823 26.2782 19.6864 26.2782 19.5327C26.2782 19.3364 26.3465 19.1571 26.4575 19.0205L26.466 19.0119L26.5855 18.8924L26.5941 18.8839L28.1735 17.3044C27.8832 17.6118 27.704 18.0216 27.704 18.4741C27.704 18.5253 27.704 18.568 27.7125 18.6192C27.7296 18.807 27.7723 18.9778 27.8406 19.14V19.1485C27.8491 19.1741 27.8662 19.1998 27.8747 19.2254Z" fill="#A90000"/>
<path d="M27.8747 19.2254C27.9174 19.3193 27.9345 19.4217 27.9345 19.5327C27.9345 19.9937 27.5588 20.3608 27.1063 20.3608C26.799 20.3608 26.5258 20.1901 26.3892 19.9425C26.3209 19.823 26.2782 19.6864 26.2782 19.5327C26.2782 19.3364 26.3465 19.1571 26.4575 19.0205L26.466 19.0119L26.5855 18.8924L26.5941 18.8839L28.1735 17.3044C27.8832 17.6118 27.704 18.0216 27.704 18.4741C27.704 18.5253 27.704 18.568 27.7125 18.6192C27.7296 18.807 27.7723 18.9778 27.8406 19.14V19.1485C27.8491 19.1741 27.8662 19.1998 27.8747 19.2254Z" stroke="#A90000" stroke-width="0.170749" stroke-miterlimit="10" stroke-linejoin="bevel"/>
<path d="M27.3539 32.7146C27.4307 32.7744 27.499 32.8341 27.5759 32.8853C27.5759 32.8853 27.5759 32.8853 27.5844 32.8939C27.96 33.1842 28.3698 33.4488 28.7967 33.6708" stroke="#A90000" stroke-width="0.170749" stroke-miterlimit="10"/>
<path d="M24.3744 21.9487C24.3744 21.9658 24.3744 21.9829 24.3658 22" stroke="#A90000" stroke-width="0.170749" stroke-miterlimit="10"/>
<path d="M32.1434 34.6013L32.6728 34.6269C32.9886 34.6269 33.296 34.6098 33.6033 34.5757C33.6204 34.5757 33.6289 34.5757 33.646 34.5671" stroke="#A90000" stroke-width="0.170749" stroke-miterlimit="10"/>
<path d="M28.1649 17.3044C28.1735 17.2959 28.182 17.2873 28.1905 17.2788C28.1991 17.2702 28.2076 17.2617 28.2161 17.2532" stroke="#A90000" stroke-width="0.170749" stroke-miterlimit="10"/>
<path d="M37.061 32.817C37.061 33.1756 36.8646 33.4915 36.5658 33.6622C36.5658 33.6622 36.5658 33.6622 36.5573 33.6622C36.5402 33.6708 36.5231 33.6793 36.4975 33.6878C36.4975 33.6878 36.489 33.6878 36.489 33.6964C35.6181 34.1489 34.6534 34.4477 33.6375 34.5672C34.4741 34.4647 35.1144 33.7476 35.1144 32.8853V32.8682C35.1144 32.8426 35.1144 32.8256 35.1144 32.7999C35.123 32.2706 35.5498 31.8438 36.0877 31.8438C36.6256 31.8523 37.061 32.2877 37.061 32.817Z" fill="#A90000"/>
<path d="M37.061 32.817C37.061 33.1756 36.8646 33.4915 36.5658 33.6622C36.5658 33.6622 36.5658 33.6622 36.5573 33.6622C36.5402 33.6708 36.5231 33.6793 36.4975 33.6878C36.4975 33.6878 36.489 33.6878 36.489 33.6964C35.6181 34.1489 34.6534 34.4477 33.6375 34.5672C34.4741 34.4647 35.1144 33.7476 35.1144 32.8853V32.8682C35.1144 32.8426 35.1144 32.8256 35.1144 32.7999C35.123 32.2706 35.5498 31.8438 36.0877 31.8438C36.6256 31.8523 37.061 32.2877 37.061 32.817Z" stroke="#A90000" stroke-width="0.170749" stroke-miterlimit="10" stroke-linejoin="bevel"/>
<path d="M18.0908 24.8515C17.9969 25.3808 17.4932 25.7308 16.9639 25.6369C16.8956 25.6284 16.8358 25.6028 16.7761 25.5857C16.7761 25.5857 16.7761 25.5857 16.7675 25.5857C16.759 25.5772 16.7419 25.5772 16.7334 25.5686C16.7334 25.5686 16.7248 25.5686 16.7248 25.5601C16.6053 25.5089 16.4858 25.4747 16.3577 25.4491C15.8028 25.3467 15.2564 25.5345 14.8807 25.9016C14.7868 25.987 14.7015 26.0894 14.6332 26.2004C14.6246 26.2175 14.6161 26.2346 14.6075 26.2516C14.6758 26.1236 14.7527 25.9955 14.8295 25.876C15.282 25.1588 15.8455 24.5185 16.4772 23.9807C16.5029 23.9636 16.5199 23.9465 16.5455 23.9209C16.5455 23.9209 16.5541 23.9209 16.5541 23.9124C16.759 23.7587 17.0322 23.6819 17.3054 23.7331C17.8347 23.827 18.1847 24.3307 18.0908 24.8515Z" fill="#A90000"/>
<path d="M18.0908 24.8515C17.9969 25.3808 17.4932 25.7308 16.9639 25.6369C16.8956 25.6284 16.8358 25.6028 16.7761 25.5857C16.7761 25.5857 16.7761 25.5857 16.7675 25.5857C16.759 25.5772 16.7419 25.5772 16.7334 25.5686C16.7334 25.5686 16.7248 25.5686 16.7248 25.5601C16.6053 25.5089 16.4858 25.4747 16.3577 25.4491C15.8028 25.3467 15.2564 25.5345 14.8807 25.9016C14.7868 25.987 14.7015 26.0894 14.6332 26.2004C14.6246 26.2175 14.6161 26.2346 14.6075 26.2516C14.6758 26.1236 14.7527 25.9955 14.8295 25.876C15.282 25.1588 15.8455 24.5185 16.4772 23.9807C16.5029 23.9636 16.5199 23.9465 16.5455 23.9209C16.5455 23.9209 16.5541 23.9209 16.5541 23.9124C16.759 23.7587 17.0322 23.6819 17.3054 23.7331C17.8347 23.827 18.1847 24.3307 18.0908 24.8515Z" stroke="#A90000" stroke-width="0.170749" stroke-miterlimit="10" stroke-linejoin="bevel"/>
<path d="M26.5856 18.8838L26.4575 19.0119C26.5002 18.9606 26.5429 18.9179 26.5856 18.8838Z" stroke="#A90000" stroke-width="0.170749" stroke-miterlimit="10"/>
<path d="M23.9987 40.9276C23.8963 40.9361 23.7938 40.9446 23.6914 40.9532C23.4352 40.9703 23.1877 40.9788 22.923 40.9788C17.553 40.9788 13.2074 36.6247 13.2074 31.2632C13.2074 29.4276 13.7111 27.7116 14.599 26.2517" stroke="#A90000" stroke-width="0.170749" stroke-miterlimit="10" stroke-linejoin="round"/>
<path d="M25.0659 40.7568C25.0745 40.7483 25.0915 40.7397 25.1001 40.7312" stroke="#A90000" stroke-width="0.170749" stroke-miterlimit="10" stroke-linejoin="round"/>
<path d="M6.24077 44.6924C4.12349 44.6924 2.39893 42.9764 2.39893 40.8506C3.45757 40.8506 4.4223 41.2775 5.11383 41.9775C5.8139 42.6691 6.24077 43.6338 6.24077 44.6924Z" stroke="#A90000" stroke-width="0.426872" stroke-miterlimit="10"/>
<path d="M9.97161 39.1177C7.85432 39.1177 6.12976 40.8337 6.12976 42.9595C7.1884 42.9595 8.15313 42.5327 8.84467 41.8326C9.54474 41.1325 9.97161 40.1763 9.97161 39.1177Z" stroke="#A90000" stroke-width="0.426872" stroke-miterlimit="10"/>
<path d="M6.24077 40.8934C4.12349 40.8934 2.39893 39.1773 2.39893 37.0515C3.45757 37.0515 4.4223 37.4784 5.11383 38.1785C5.8139 38.8785 6.24077 39.8347 6.24077 40.8934Z" stroke="#A90000" stroke-width="0.426872" stroke-miterlimit="10"/>
<path d="M9.97161 35.3184C7.85432 35.3184 6.12976 37.0344 6.12976 39.1602C7.1884 39.1602 8.15313 38.7333 8.84467 38.0333C9.54474 37.3417 9.97161 36.377 9.97161 35.3184Z" stroke="#A90000" stroke-width="0.426872" stroke-miterlimit="10"/>
<path d="M5.76267 37.2394C4.21739 35.788 4.14055 33.3548 5.59192 31.8096C6.36883 32.5353 6.77009 33.5085 6.80424 34.4903C6.83838 35.4721 6.48835 36.4625 5.76267 37.2394Z" stroke="#A90000" stroke-width="0.426872" stroke-miterlimit="10"/>
<path d="M8.31543 46.9293C8.31543 44.812 10.0315 43.0874 12.1573 43.0874C12.1573 44.146 11.7304 45.1108 11.0303 45.8023C10.3388 46.4938 9.38261 46.9293 8.31543 46.9293Z" stroke="#A90000" stroke-width="0.426872" stroke-miterlimit="10"/>
<path d="M13.8989 50.6602C13.8989 48.5429 12.1828 46.8184 10.057 46.8184C10.057 47.877 10.4839 48.8417 11.1839 49.5333C11.8755 50.2248 12.8317 50.6602 13.8989 50.6602Z" stroke="#A90000" stroke-width="0.426872" stroke-miterlimit="10"/>
<path d="M12.1145 46.9293C12.1145 44.812 13.8305 43.0874 15.9563 43.0874C15.9563 44.146 15.5295 45.1108 14.8294 45.8023C14.1379 46.4938 13.1731 46.9293 12.1145 46.9293Z" stroke="#A90000" stroke-width="0.426872" stroke-miterlimit="10"/>
<path d="M17.6895 50.6602C17.6895 48.5429 15.9735 46.8184 13.8477 46.8184C13.8477 47.877 14.2745 48.8417 14.9746 49.5333C15.6661 50.2248 16.6309 50.6602 17.6895 50.6602Z" stroke="#A90000" stroke-width="0.426872" stroke-miterlimit="10"/>
<path d="M15.7686 46.4513C17.2199 44.906 19.6531 44.8292 21.1984 46.2805C20.4727 47.0574 19.4994 47.4587 18.5176 47.4928C17.5358 47.527 16.5455 47.1769 15.7686 46.4513Z" stroke="#A90000" stroke-width="0.426872" stroke-miterlimit="10"/>
<path d="M4.94306 49.3624C5.97567 49.3624 6.81276 48.5254 6.81276 47.4927C6.81276 46.4601 5.97567 45.623 4.94306 45.623C3.91046 45.623 3.07336 46.4601 3.07336 47.4927C3.07336 48.5254 3.91046 49.3624 4.94306 49.3624Z" stroke="#A90000" stroke-width="0.426872" stroke-miterlimit="10"/>
<path d="M42.6188 7.54614C44.7361 7.54614 46.4606 9.26217 46.4606 11.388C45.402 11.388 44.4373 10.9611 43.7457 10.261C43.0542 9.56952 42.6188 8.60479 42.6188 7.54614Z" stroke="#A90000" stroke-width="0.426872" stroke-miterlimit="10"/>
<path d="M38.8879 13.1211C41.0052 13.1211 42.7298 11.4051 42.7298 9.2793C41.6711 9.2793 40.7064 9.70617 40.0149 10.4062C39.3233 11.0978 38.8879 12.0625 38.8879 13.1211Z" stroke="#A90000" stroke-width="0.426872" stroke-miterlimit="10"/>
<path d="M42.6188 11.3452C44.7361 11.3452 46.4606 13.0612 46.4606 15.1871C45.402 15.1871 44.4373 14.7602 43.7457 14.0601C43.0542 13.3601 42.6188 12.4039 42.6188 11.3452Z" stroke="#A90000" stroke-width="0.426872" stroke-miterlimit="10"/>
<path d="M38.8879 16.9202C41.0052 16.9202 42.7298 15.2042 42.7298 13.0784C41.6711 13.0784 40.7064 13.5052 40.0149 14.2053C39.3233 14.8968 38.8879 15.853 38.8879 16.9202Z" stroke="#A90000" stroke-width="0.426872" stroke-miterlimit="10"/>
<path d="M43.097 14.9993C44.6423 16.4506 44.7191 18.8838 43.2677 20.4291C42.4908 19.7034 42.0896 18.7301 42.0554 17.7483C42.0298 16.7665 42.3713 15.7676 43.097 14.9993Z" stroke="#A90000" stroke-width="0.426872" stroke-miterlimit="10"/>
<path d="M40.5442 5.30933C40.5442 7.42661 38.8282 9.15117 36.7024 9.15117C36.7024 8.09253 37.1293 7.1278 37.8293 6.43627C38.5209 5.7362 39.4856 5.30933 40.5442 5.30933Z" stroke="#A90000" stroke-width="0.426872" stroke-miterlimit="10"/>
<path d="M34.9692 1.57837C34.9692 3.69565 36.6853 5.42022 38.8111 5.42022C38.8111 4.36157 38.3842 3.39684 37.6841 2.70531C36.9841 2.00524 36.0279 1.57837 34.9692 1.57837Z" stroke="#A90000" stroke-width="0.426872" stroke-miterlimit="10"/>
<path d="M36.745 5.30933C36.745 7.42661 35.029 9.15117 32.9032 9.15117C32.9032 8.09253 33.3301 7.1278 34.0301 6.43627C34.7302 5.7362 35.6864 5.30933 36.745 5.30933Z" stroke="#A90000" stroke-width="0.426872" stroke-miterlimit="10"/>
<path d="M31.1702 1.57837C31.1702 3.69565 32.8862 5.42022 35.012 5.42022C35.012 4.36157 34.5851 3.39684 33.8851 2.70531C33.1935 2.00524 32.2288 1.57837 31.1702 1.57837Z" stroke="#A90000" stroke-width="0.426872" stroke-miterlimit="10"/>
<path d="M33.0911 5.78755C31.6397 7.33282 29.2065 7.40966 27.6613 5.9583C28.3869 5.18139 29.3602 4.78013 30.342 4.74598C31.3238 4.71183 32.3142 5.05333 33.0911 5.78755Z" stroke="#A90000" stroke-width="0.426872" stroke-miterlimit="10"/>
<path d="M45.7125 5.2882C46.0103 4.3044 45.4506 3.26429 44.4623 2.96504C43.474 2.66579 42.4314 3.22073 42.1335 4.20452C41.8356 5.18832 42.3953 6.22843 43.3836 6.52768C44.3719 6.82693 45.4146 6.27199 45.7125 5.2882Z" stroke="#A90000" stroke-width="0.426872" stroke-miterlimit="10"/>
<path d="M48.6377 18.0898C49.4744 20.5742 49.9183 23.2294 49.9183 25.9955C49.9183 39.7237 38.7855 50.848 25.0659 50.848C23.9048 50.848 22.7693 50.7712 21.6509 50.6175" stroke="#A90000" stroke-width="0.426872" stroke-miterlimit="10"/>
<path d="M1.86964 34.9513C0.802462 32.1767 0.213379 29.1544 0.213379 25.9956C0.213379 12.2759 11.3462 1.14307 25.0659 1.14307C26.3379 1.14307 27.5844 1.23698 28.8053 1.4248" stroke="#A90000" stroke-width="0.426872" stroke-miterlimit="10"/>
</g>
<defs>
<clipPath id="clip0_5_6">
<rect width="50.1404" height="50.1404" fill="white" transform="translate(0 0.929688)"/>
</clipPath>
</defs>
</svg>
