<svg width="90" height="90" viewBox="0 0 90 90" fill="none" xmlns="http://www.w3.org/2000/svg">
<g clip-path="url(#clip0_101_821)">
<path d="M50.4253 30.009C50.4405 29.9938 50.4556 29.9786 50.4708 29.9635C50.486 29.9483 50.5011 29.9331 50.5163 29.918" stroke="url(#paint0_linear_101_821)" stroke-width="0.249933" stroke-miterlimit="10"/>
<path d="M36.8344 43.6152L36.7886 43.6611" stroke="url(#paint1_linear_101_821)" stroke-width="0.249933" stroke-miterlimit="10"/>
<path d="M58.3885 24.3512C58.3734 24.5939 58.3734 24.8366 58.3885 25.0641H58.3734V49.5611V55.6739C58.3734 59.3447 57.0385 62.7121 54.824 65.3059C52.4274 68.4457 48.969 70.721 44.9948 71.6311C44.3578 71.7828 43.6904 71.8889 43.0229 71.9648C44.3123 71.7979 45.5106 71.2974 46.4965 70.5541C46.5117 70.539 46.5268 70.5238 46.5572 70.5086C46.9212 70.2356 47.2701 69.9171 47.5735 69.5682C50.0156 67.0806 51.5173 63.6828 51.5173 59.9211V28.9169L60.1026 20.3164C59.2986 21.1658 58.7222 22.2428 58.4795 23.4411C58.4492 23.7445 58.4037 24.0478 58.3885 24.3512Z" fill="url(#paint2_linear_101_821)"/>
<path d="M58.3885 24.3512C58.3734 24.5939 58.3734 24.8366 58.3885 25.0641H58.3734V49.5611V55.6739C58.3734 59.3447 57.0385 62.7121 54.824 65.3059C52.4274 68.4457 48.969 70.721 44.9948 71.6311C44.3578 71.7828 43.6904 71.8889 43.0229 71.9648C44.3123 71.7979 45.5106 71.2974 46.4965 70.5541C46.5117 70.539 46.5268 70.5238 46.5572 70.5086C46.9212 70.2356 47.2701 69.9171 47.5735 69.5682C50.0156 67.0806 51.5173 63.6828 51.5173 59.9211V28.9169L60.1026 20.3164C59.2986 21.1658 58.7222 22.2428 58.4795 23.4411C58.4492 23.7445 58.4037 24.0478 58.3885 24.3512Z" stroke="url(#paint3_linear_101_821)" stroke-width="0.249933" stroke-miterlimit="10" stroke-linejoin="bevel"/>
<path d="M51.5627 28.8716C51.3048 29.1294 50.7436 29.7058 50.5312 29.903L51.5627 28.8716Z" stroke="url(#paint4_linear_101_821)" stroke-width="0.249933" stroke-miterlimit="10" stroke-linejoin="bevel"/>
<path d="M43.6904 38.2607V38.2763" stroke="url(#paint5_linear_101_821)" stroke-width="0.249933" stroke-miterlimit="10"/>
<path d="M48.8022 22.3038C48.8022 23.1229 48.15 23.7751 47.3309 23.7751C47.1034 23.7751 46.891 23.7296 46.6938 23.6234C46.3904 23.4869 46.0567 23.3959 45.7079 23.3656C45.632 23.3504 45.541 23.3504 45.45 23.3504C44.7826 23.3504 44.1758 23.5173 43.6753 23.8813L46.1932 21.3937L46.4208 21.1813C46.6786 20.9841 46.9972 20.8628 47.346 20.8628C47.6039 20.8628 47.8618 20.9386 48.0741 21.06C48.4988 21.2875 48.8022 21.7577 48.8022 22.3038Z" fill="url(#paint6_linear_101_821)"/>
<path d="M48.8022 22.3038C48.8022 23.1229 48.15 23.7751 47.3309 23.7751C47.1034 23.7751 46.891 23.7296 46.6938 23.6234C46.3904 23.4869 46.0567 23.3959 45.7079 23.3656C45.632 23.3504 45.541 23.3504 45.45 23.3504C44.7826 23.3504 44.1758 23.5173 43.6753 23.8813L46.1932 21.3937L46.4208 21.1813C46.6786 20.9841 46.9972 20.8628 47.346 20.8628C47.6039 20.8628 47.8618 20.9386 48.0741 21.06C48.4988 21.2875 48.8022 21.7577 48.8022 22.3038Z" fill="url(#paint7_linear_101_821)" stroke="url(#paint8_linear_101_821)" stroke-width="0.249933" stroke-miterlimit="10" stroke-linejoin="bevel"/>
<path d="M48.9841 57.3883C48.2863 56.8422 47.5279 56.3568 46.7391 55.9473C46.6481 55.9018 46.542 55.8411 46.4509 55.7956L46.4358 55.7805C45.5712 55.3557 44.6611 55.022 43.7055 54.7642C42.492 54.4456 41.233 54.2788 39.9285 54.2788C38.8667 54.2788 37.8353 54.385 36.8493 54.5973C36.2578 54.7187 35.6662 54.8855 35.105 55.0827C36.1819 54.1119 36.8493 52.7164 36.8493 51.1844V33.8773C36.8493 33.4222 36.6825 33.0279 36.3943 32.7093C36.1364 32.4363 35.8027 32.2391 35.4235 32.1784L36.8493 30.7526L43.3414 24.2605L43.7055 23.8965V47.5137C43.7661 48.1507 43.8723 48.7727 44.024 49.3946C44.6459 52.049 45.9959 54.4305 47.8313 56.3265C48.1801 56.6906 48.5745 57.0394 48.9841 57.3883Z" fill="url(#paint9_linear_101_821)"/>
<path d="M48.9841 57.3883C48.2863 56.8422 47.5279 56.3568 46.7391 55.9473C46.6481 55.9018 46.542 55.8411 46.4509 55.7956L46.4358 55.7805C45.5712 55.3557 44.6611 55.022 43.7055 54.7642C42.492 54.4456 41.233 54.2788 39.9285 54.2788C38.8667 54.2788 37.8353 54.385 36.8493 54.5973C36.2578 54.7187 35.6662 54.8855 35.105 55.0827C36.1819 54.1119 36.8493 52.7164 36.8493 51.1844V33.8773C36.8493 33.4222 36.6825 33.0279 36.3943 32.7093C36.1364 32.4363 35.8027 32.2391 35.4235 32.1784L36.8493 30.7526L43.3414 24.2605L43.7055 23.8965V47.5137C43.7661 48.1507 43.8723 48.7727 44.024 49.3946C44.6459 52.049 45.9959 54.4305 47.8313 56.3265C48.1801 56.6906 48.5745 57.0394 48.9841 57.3883Z" stroke="url(#paint10_linear_101_821)" stroke-width="0.249933" stroke-miterlimit="10" stroke-linejoin="bevel"/>
<path d="M49.9092 33.4222C49.9851 33.589 50.0154 33.771 50.0154 33.9682C50.0154 34.7873 49.348 35.4396 48.5441 35.4396C47.998 35.4396 47.5126 35.1362 47.2699 34.6963C47.1486 34.484 47.0728 34.2413 47.0728 33.9682C47.0728 33.6194 47.1941 33.3008 47.3913 33.0581L47.4065 33.043L47.6188 32.8306L47.634 32.8154L50.4401 30.0093C49.9244 30.5553 49.6059 31.2834 49.6059 32.0873C49.6059 32.1784 49.6059 32.2542 49.621 32.3452C49.6514 32.6789 49.7272 32.9823 49.8486 33.2705V33.2856C49.8637 33.3312 49.8941 33.3767 49.9092 33.4222Z" fill="url(#paint11_linear_101_821)"/>
<path d="M49.9092 33.4222C49.9851 33.589 50.0154 33.771 50.0154 33.9682C50.0154 34.7873 49.348 35.4396 48.5441 35.4396C47.998 35.4396 47.5126 35.1362 47.2699 34.6963C47.1486 34.484 47.0728 34.2413 47.0728 33.9682C47.0728 33.6194 47.1941 33.3008 47.3913 33.0581L47.4065 33.043L47.6188 32.8306L47.634 32.8154L50.4401 30.0093C49.9244 30.5553 49.6059 31.2834 49.6059 32.0873C49.6059 32.1784 49.6059 32.2542 49.621 32.3452C49.6514 32.6789 49.7272 32.9823 49.8486 33.2705V33.2856C49.8637 33.3312 49.8941 33.3767 49.9092 33.4222Z" fill="url(#paint12_linear_101_821)" stroke="url(#paint13_linear_101_821)" stroke-width="0.249933" stroke-miterlimit="10" stroke-linejoin="bevel"/>
<path d="M48.9839 57.3882C49.1204 57.4944 49.2418 57.6005 49.3783 57.6916C49.3783 57.6916 49.3783 57.6916 49.3934 57.7067C50.0608 58.2224 50.7889 58.6927 51.5473 59.087" stroke="url(#paint14_linear_101_821)" stroke-width="0.249933" stroke-miterlimit="10"/>
<path d="M43.6905 38.2607C43.6905 38.2911 43.6905 38.3214 43.6753 38.3518" stroke="url(#paint15_linear_101_821)" stroke-width="0.249933" stroke-miterlimit="10"/>
<path d="M57.4937 60.7404L58.4341 60.7859C58.9953 60.7859 59.5414 60.7555 60.0874 60.6949C60.1178 60.6949 60.133 60.6949 60.1633 60.6797" stroke="url(#paint16_linear_101_821)" stroke-width="0.249933" stroke-miterlimit="10"/>
<path d="M50.4253 30.009C50.4405 29.9938 50.4556 29.9786 50.4708 29.9635C50.486 29.9483 50.5011 29.9331 50.5163 29.918" stroke="url(#paint17_linear_101_821)" stroke-width="0.249933" stroke-miterlimit="10"/>
<path d="M66.2305 57.57C66.2305 58.2071 65.8816 58.7683 65.3507 59.0717C65.3507 59.0717 65.3507 59.0717 65.3355 59.0717C65.3052 59.0869 65.2749 59.102 65.2294 59.1172C65.2294 59.1172 65.2142 59.1172 65.2142 59.1324C63.667 59.9363 61.953 60.4672 60.1479 60.6795C61.6345 60.4975 62.7721 59.2234 62.7721 57.6914V57.661C62.7721 57.6155 62.7721 57.5852 62.7721 57.5397C62.7872 56.5992 63.5457 55.8408 64.5013 55.8408C65.4569 55.856 66.2305 56.6296 66.2305 57.57Z" fill="url(#paint18_linear_101_821)"/>
<path d="M66.2305 57.57C66.2305 58.2071 65.8816 58.7683 65.3507 59.0717C65.3507 59.0717 65.3507 59.0717 65.3355 59.0717C65.3052 59.0869 65.2749 59.102 65.2294 59.1172C65.2294 59.1172 65.2142 59.1172 65.2142 59.1324C63.667 59.9363 61.953 60.4672 60.1479 60.6795C61.6345 60.4975 62.7721 59.2234 62.7721 57.6914V57.661C62.7721 57.6155 62.7721 57.5852 62.7721 57.5397C62.7872 56.5992 63.5457 55.8408 64.5013 55.8408C65.4569 55.856 66.2305 56.6296 66.2305 57.57Z" fill="url(#paint19_linear_101_821)" stroke="url(#paint20_linear_101_821)" stroke-width="0.249933" stroke-miterlimit="10" stroke-linejoin="bevel"/>
<path d="M32.5261 43.418C32.3593 44.3584 31.4643 44.9803 30.5239 44.8135C30.4025 44.7983 30.2964 44.7528 30.1902 44.7224C30.1902 44.7224 30.1902 44.7224 30.175 44.7224C30.1598 44.7073 30.1295 44.7073 30.1143 44.6921C30.1143 44.6921 30.0992 44.6921 30.0992 44.6769C29.8868 44.5859 29.6744 44.5253 29.4469 44.4798C28.461 44.2977 27.4902 44.6314 26.8228 45.2837C26.6559 45.4354 26.5043 45.6174 26.3829 45.8146C26.3677 45.8449 26.3526 45.8753 26.3374 45.9056C26.4587 45.6781 26.5953 45.4505 26.7318 45.2382C27.5357 43.964 28.5368 42.8264 29.6593 41.8708C29.7048 41.8405 29.7351 41.8101 29.7806 41.7646C29.7806 41.7646 29.7958 41.7646 29.7958 41.7494C30.1598 41.4764 30.6452 41.3399 31.1306 41.4309C32.0711 41.5978 32.693 42.4927 32.5261 43.418Z" fill="url(#paint21_linear_101_821)"/>
<path d="M32.5261 43.418C32.3593 44.3584 31.4643 44.9803 30.5239 44.8135C30.4025 44.7983 30.2964 44.7528 30.1902 44.7224C30.1902 44.7224 30.1902 44.7224 30.175 44.7224C30.1598 44.7073 30.1295 44.7073 30.1143 44.6921C30.1143 44.6921 30.0992 44.6921 30.0992 44.6769C29.8868 44.5859 29.6744 44.5253 29.4469 44.4798C28.461 44.2977 27.4902 44.6314 26.8228 45.2837C26.6559 45.4354 26.5043 45.6174 26.3829 45.8146C26.3677 45.8449 26.3526 45.8753 26.3374 45.9056C26.4587 45.6781 26.5953 45.4505 26.7318 45.2382C27.5357 43.964 28.5368 42.8264 29.6593 41.8708C29.7048 41.8405 29.7351 41.8101 29.7806 41.7646C29.7806 41.7646 29.7958 41.7646 29.7958 41.7494C30.1598 41.4764 30.6452 41.3399 31.1306 41.4309C32.0711 41.5978 32.693 42.4927 32.5261 43.418Z" fill="url(#paint22_linear_101_821)" stroke="url(#paint23_linear_101_821)" stroke-width="0.249933" stroke-miterlimit="10" stroke-linejoin="bevel"/>
<path d="M47.6191 32.8149L47.3916 33.0425C47.4674 32.9515 47.5433 32.8756 47.6191 32.8149Z" stroke="url(#paint24_linear_101_821)" stroke-width="0.249933" stroke-miterlimit="10"/>
<path d="M43.023 71.9797C42.8409 71.9949 42.6589 72.0101 42.4769 72.0252C42.0218 72.0556 41.582 72.0708 41.1117 72.0708C31.5708 72.0708 23.8501 64.3349 23.8501 54.8091C23.8501 51.5479 24.745 48.4991 26.3225 45.9053" stroke="url(#paint25_linear_101_821)" stroke-width="0.249933" stroke-miterlimit="10" stroke-linejoin="round"/>
<path d="M44.9189 71.6772C44.9342 71.6619 44.9648 71.6466 44.9801 71.6313" stroke="url(#paint26_linear_101_821)" stroke-width="0.249933" stroke-miterlimit="10" stroke-linejoin="round"/>
<path d="M11.4728 78.6695C7.71099 78.6695 4.64697 75.6207 4.64697 71.8438C6.52785 71.8438 8.24188 72.6022 9.47052 73.846C10.7143 75.0746 11.4728 76.7886 11.4728 78.6695Z" stroke="url(#paint27_linear_101_821)" stroke-width="0.624832" stroke-miterlimit="10"/>
<path d="M18.1012 68.7642C14.3394 68.7642 11.2754 71.813 11.2754 75.5899C13.1563 75.5899 14.8703 74.8315 16.0989 73.5877C17.3427 72.3439 18.1012 70.645 18.1012 68.7642Z" stroke="url(#paint28_linear_101_821)" stroke-width="0.624832" stroke-miterlimit="10"/>
<path d="M11.4728 71.9195C7.71099 71.9195 4.64697 68.8707 4.64697 65.0938C6.52785 65.0938 8.24188 65.8522 9.47052 67.096C10.7143 68.3398 11.4728 70.0386 11.4728 71.9195Z" stroke="url(#paint29_linear_101_821)" stroke-width="0.624832" stroke-miterlimit="10"/>
<path d="M18.1012 62.0146C14.3394 62.0146 11.2754 65.0635 11.2754 68.8404C13.1563 68.8404 14.8703 68.082 16.0989 66.8382C17.3427 65.6096 18.1012 63.8955 18.1012 62.0146Z" stroke="url(#paint30_linear_101_821)" stroke-width="0.624832" stroke-miterlimit="10"/>
<path d="M10.6233 65.4274C7.87783 62.8487 7.74131 58.5258 10.3199 55.7803C11.7003 57.0696 12.4132 58.7988 12.4739 60.5431C12.5345 62.2875 11.9126 64.047 10.6233 65.4274Z" stroke="url(#paint31_linear_101_821)" stroke-width="0.624832" stroke-miterlimit="10"/>
<path d="M15.1587 82.6432C15.1587 78.8814 18.2075 75.8174 21.9845 75.8174C21.9845 77.6983 21.226 79.4123 19.9822 80.6409C18.7536 81.8696 17.0547 82.6432 15.1587 82.6432Z" stroke="url(#paint32_linear_101_821)" stroke-width="0.624832" stroke-miterlimit="10"/>
<path d="M25.0787 89.2721C25.0787 85.5103 22.0299 82.4463 18.2529 82.4463C18.2529 84.3272 19.0113 86.0412 20.2552 87.2698C21.4838 88.4985 23.1827 89.2721 25.0787 89.2721Z" stroke="url(#paint33_linear_101_821)" stroke-width="0.624832" stroke-miterlimit="10"/>
<path d="M21.9087 82.6432C21.9087 78.8814 24.9575 75.8174 28.7345 75.8174C28.7345 77.6983 27.9761 79.4123 26.7322 80.6409C25.5036 81.8696 23.7896 82.6432 21.9087 82.6432Z" stroke="url(#paint34_linear_101_821)" stroke-width="0.624832" stroke-miterlimit="10"/>
<path d="M31.8136 89.2721C31.8136 85.5103 28.7647 82.4463 24.9878 82.4463C24.9878 84.3272 25.7462 86.0412 26.99 87.2698C28.2187 88.4985 29.9327 89.2721 31.8136 89.2721Z" stroke="url(#paint35_linear_101_821)" stroke-width="0.624832" stroke-miterlimit="10"/>
<path d="M28.4004 81.7942C30.979 79.0487 35.302 78.9122 38.0475 81.4908C36.7582 82.8712 35.029 83.5841 33.2846 83.6448C31.5402 83.7054 29.7807 83.0835 28.4004 81.7942Z" stroke="url(#paint36_linear_101_821)" stroke-width="0.624832" stroke-miterlimit="10"/>
<path d="M9.16709 86.9665C11.0017 86.9665 12.489 85.4793 12.489 83.6446C12.489 81.81 11.0017 80.3228 9.16709 80.3228C7.33247 80.3228 5.84521 81.81 5.84521 83.6446C5.84521 85.4793 7.33247 86.9665 9.16709 86.9665Z" stroke="url(#paint37_linear_101_821)" stroke-width="0.624832" stroke-miterlimit="10"/>
<path d="M76.1055 12.6719C79.8672 12.6719 82.9312 15.7207 82.9312 19.4977C81.0504 19.4977 79.3363 18.7392 78.1077 17.4954C76.8791 16.2668 76.1055 14.5528 76.1055 12.6719Z" stroke="url(#paint38_linear_101_821)" stroke-width="0.624832" stroke-miterlimit="10"/>
<path d="M69.4766 22.5763C73.2383 22.5763 76.3023 19.5274 76.3023 15.7505C74.4215 15.7505 72.7074 16.5089 71.4788 17.7527C70.2502 18.9814 69.4766 20.6954 69.4766 22.5763Z" stroke="url(#paint39_linear_101_821)" stroke-width="0.624832" stroke-miterlimit="10"/>
<path d="M76.1055 19.4219C79.8672 19.4219 82.9312 22.4707 82.9312 26.2477C81.0504 26.2477 79.3363 25.4892 78.1077 24.2454C76.8791 23.0016 76.1055 21.3028 76.1055 19.4219Z" stroke="url(#paint40_linear_101_821)" stroke-width="0.624832" stroke-miterlimit="10"/>
<path d="M69.4766 29.3268C73.2383 29.3268 76.3023 26.2779 76.3023 22.501C74.4215 22.501 72.7074 23.2594 71.4788 24.5032C70.2502 25.7318 69.4766 27.4307 69.4766 29.3268Z" stroke="url(#paint41_linear_101_821)" stroke-width="0.624832" stroke-miterlimit="10"/>
<path d="M76.955 25.9136C79.7005 28.4922 79.837 32.8152 77.2583 35.5607C75.878 34.2714 75.1651 32.5422 75.1044 30.7978C75.0589 29.0534 75.6657 27.2787 76.955 25.9136Z" stroke="url(#paint42_linear_101_821)" stroke-width="0.624832" stroke-miterlimit="10"/>
<path d="M72.4195 8.69727C72.4195 12.459 69.3707 15.523 65.5938 15.523C65.5938 13.6422 66.3522 11.9281 67.596 10.6995C68.8246 9.45569 70.5386 8.69727 72.4195 8.69727Z" stroke="url(#paint43_linear_101_821)" stroke-width="0.624832" stroke-miterlimit="10"/>
<path d="M62.5146 2.06885C62.5146 5.83061 65.5635 8.89463 69.3404 8.89463C69.3404 7.01375 68.582 5.29972 67.3382 4.07108C66.0944 2.82727 64.3955 2.06885 62.5146 2.06885Z" stroke="url(#paint44_linear_101_821)" stroke-width="0.624832" stroke-miterlimit="10"/>
<path d="M65.6695 8.69727C65.6695 12.459 62.6207 15.523 58.8438 15.523C58.8438 13.6422 59.6022 11.9281 60.846 10.6995C62.0898 9.45569 63.7886 8.69727 65.6695 8.69727Z" stroke="url(#paint45_linear_101_821)" stroke-width="0.624832" stroke-miterlimit="10"/>
<path d="M55.7646 2.06885C55.7646 5.83061 58.8135 8.89463 62.5904 8.89463C62.5904 7.01375 61.832 5.29972 60.5882 4.07108C59.3596 2.82727 57.6455 2.06885 55.7646 2.06885Z" stroke="url(#paint46_linear_101_821)" stroke-width="0.624832" stroke-miterlimit="10"/>
<path d="M59.1774 9.54706C56.5987 12.2925 52.2758 12.4291 49.5303 9.85043C50.8196 8.4701 52.5488 7.75719 54.2931 7.69652C56.0375 7.63584 57.797 8.24258 59.1774 9.54706Z" stroke="url(#paint47_linear_101_821)" stroke-width="0.624832" stroke-miterlimit="10"/>
<path d="M81.6017 8.65943C82.1309 6.91153 81.1365 5.06357 79.3806 4.5319C77.6247 4.00023 75.7722 4.98617 75.243 6.73407C74.7137 8.48197 75.7081 10.3299 77.464 10.8616C79.22 11.3933 81.0724 10.4073 81.6017 8.65943Z" stroke="url(#paint48_linear_101_821)" stroke-width="0.624832" stroke-miterlimit="10"/>
<path d="M86.7989 31.4043C88.2854 35.8183 89.0741 40.5357 89.0741 45.4502C89.0741 69.841 69.2945 89.6054 44.9189 89.6054C42.856 89.6054 40.8386 89.4689 38.8516 89.1959" stroke="url(#paint49_linear_101_821)" stroke-width="0.624832" stroke-miterlimit="10"/>
<path d="M3.70634 61.3623C1.81029 56.4325 0.763672 51.0629 0.763672 45.4506C0.763672 21.075 20.5433 1.29541 44.9189 1.29541C47.179 1.29541 49.3935 1.46226 51.5626 1.79597" stroke="url(#paint50_linear_101_821)" stroke-width="0.624832" stroke-miterlimit="10"/>
</g>
<defs>
<linearGradient id="paint0_linear_101_821" x1="50.4708" y1="29.918" x2="50.4708" y2="30.009" gradientUnits="userSpaceOnUse">
<stop stop-color="#E7A800"/>
<stop offset="1" stop-color="#E7A800" stop-opacity="0.28"/>
</linearGradient>
<linearGradient id="paint1_linear_101_821" x1="36.8115" y1="43.6152" x2="36.8115" y2="43.6611" gradientUnits="userSpaceOnUse">
<stop stop-color="#E7A800"/>
<stop offset="1" stop-color="#E7A800" stop-opacity="0.28"/>
</linearGradient>
<linearGradient id="paint2_linear_101_821" x1="51.5628" y1="20.3164" x2="51.5628" y2="71.9648" gradientUnits="userSpaceOnUse">
<stop stop-color="#E7A800"/>
<stop offset="1" stop-color="#E7A800" stop-opacity="0.28"/>
</linearGradient>
<linearGradient id="paint3_linear_101_821" x1="51.5628" y1="20.3164" x2="51.5628" y2="71.9648" gradientUnits="userSpaceOnUse">
<stop stop-color="#E7A800"/>
<stop offset="1" stop-color="#E7A800" stop-opacity="0.28"/>
</linearGradient>
<linearGradient id="paint4_linear_101_821" x1="51.047" y1="28.8716" x2="51.047" y2="29.903" gradientUnits="userSpaceOnUse">
<stop stop-color="#E7A800"/>
<stop offset="1" stop-color="#E7A800" stop-opacity="0.28"/>
</linearGradient>
<linearGradient id="paint5_linear_101_821" x1="44.1904" y1="38.2607" x2="44.1904" y2="38.2763" gradientUnits="userSpaceOnUse">
<stop stop-color="#E7A800"/>
<stop offset="1" stop-color="#E7A800" stop-opacity="0.28"/>
</linearGradient>
<linearGradient id="paint6_linear_101_821" x1="46.2388" y1="20.8628" x2="46.2388" y2="23.8813" gradientUnits="userSpaceOnUse">
<stop stop-color="#E7A800"/>
<stop offset="1" stop-color="#E7A800" stop-opacity="0.28"/>
</linearGradient>
<linearGradient id="paint7_linear_101_821" x1="46.2388" y1="20.8628" x2="46.2388" y2="23.8813" gradientUnits="userSpaceOnUse">
<stop stop-color="#E7A800"/>
<stop offset="1" stop-color="#E7A800" stop-opacity="0.28"/>
</linearGradient>
<linearGradient id="paint8_linear_101_821" x1="46.2388" y1="20.8628" x2="46.2388" y2="23.8813" gradientUnits="userSpaceOnUse">
<stop stop-color="#E7A800"/>
<stop offset="1" stop-color="#E7A800" stop-opacity="0.28"/>
</linearGradient>
<linearGradient id="paint9_linear_101_821" x1="42.0445" y1="23.8965" x2="42.0445" y2="57.3883" gradientUnits="userSpaceOnUse">
<stop stop-color="#E7A800"/>
<stop offset="1" stop-color="#E7A800" stop-opacity="0.28"/>
</linearGradient>
<linearGradient id="paint10_linear_101_821" x1="42.0445" y1="23.8965" x2="42.0445" y2="57.3883" gradientUnits="userSpaceOnUse">
<stop stop-color="#E7A800"/>
<stop offset="1" stop-color="#E7A800" stop-opacity="0.28"/>
</linearGradient>
<linearGradient id="paint11_linear_101_821" x1="48.7564" y1="30.0093" x2="48.7564" y2="35.4396" gradientUnits="userSpaceOnUse">
<stop stop-color="#E7A800"/>
<stop offset="1" stop-color="#E7A800" stop-opacity="0.28"/>
</linearGradient>
<linearGradient id="paint12_linear_101_821" x1="48.7564" y1="30.0093" x2="48.7564" y2="35.4396" gradientUnits="userSpaceOnUse">
<stop stop-color="#E7A800"/>
<stop offset="1" stop-color="#E7A800" stop-opacity="0.28"/>
</linearGradient>
<linearGradient id="paint13_linear_101_821" x1="48.7564" y1="30.0093" x2="48.7564" y2="35.4396" gradientUnits="userSpaceOnUse">
<stop stop-color="#E7A800"/>
<stop offset="1" stop-color="#E7A800" stop-opacity="0.28"/>
</linearGradient>
<linearGradient id="paint14_linear_101_821" x1="50.2656" y1="57.3882" x2="50.2656" y2="59.087" gradientUnits="userSpaceOnUse">
<stop stop-color="#E7A800"/>
<stop offset="1" stop-color="#E7A800" stop-opacity="0.28"/>
</linearGradient>
<linearGradient id="paint15_linear_101_821" x1="43.6829" y1="38.2607" x2="43.6829" y2="38.3518" gradientUnits="userSpaceOnUse">
<stop stop-color="#E7A800"/>
<stop offset="1" stop-color="#E7A800" stop-opacity="0.28"/>
</linearGradient>
<linearGradient id="paint16_linear_101_821" x1="58.8285" y1="60.6797" x2="58.8285" y2="60.7859" gradientUnits="userSpaceOnUse">
<stop stop-color="#E7A800"/>
<stop offset="1" stop-color="#E7A800" stop-opacity="0.28"/>
</linearGradient>
<linearGradient id="paint17_linear_101_821" x1="50.4708" y1="29.918" x2="50.4708" y2="30.009" gradientUnits="userSpaceOnUse">
<stop stop-color="#E7A800"/>
<stop offset="1" stop-color="#E7A800" stop-opacity="0.28"/>
</linearGradient>
<linearGradient id="paint18_linear_101_821" x1="63.1892" y1="55.8408" x2="63.1892" y2="60.6795" gradientUnits="userSpaceOnUse">
<stop stop-color="#E7A800"/>
<stop offset="1" stop-color="#E7A800" stop-opacity="0.28"/>
</linearGradient>
<linearGradient id="paint19_linear_101_821" x1="63.1892" y1="55.8408" x2="63.1892" y2="60.6795" gradientUnits="userSpaceOnUse">
<stop stop-color="#E7A800"/>
<stop offset="1" stop-color="#E7A800" stop-opacity="0.28"/>
</linearGradient>
<linearGradient id="paint20_linear_101_821" x1="63.1892" y1="55.8408" x2="63.1892" y2="60.6795" gradientUnits="userSpaceOnUse">
<stop stop-color="#E7A800"/>
<stop offset="1" stop-color="#E7A800" stop-opacity="0.28"/>
</linearGradient>
<linearGradient id="paint21_linear_101_821" x1="29.4453" y1="41.4028" x2="29.4453" y2="45.9056" gradientUnits="userSpaceOnUse">
<stop stop-color="#E7A800"/>
<stop offset="1" stop-color="#E7A800" stop-opacity="0.28"/>
</linearGradient>
<linearGradient id="paint22_linear_101_821" x1="29.4453" y1="41.4028" x2="29.4453" y2="45.9056" gradientUnits="userSpaceOnUse">
<stop stop-color="#E7A800"/>
<stop offset="1" stop-color="#E7A800" stop-opacity="0.28"/>
</linearGradient>
<linearGradient id="paint23_linear_101_821" x1="29.4453" y1="41.4028" x2="29.4453" y2="45.9056" gradientUnits="userSpaceOnUse">
<stop stop-color="#E7A800"/>
<stop offset="1" stop-color="#E7A800" stop-opacity="0.28"/>
</linearGradient>
<linearGradient id="paint24_linear_101_821" x1="47.5054" y1="32.8149" x2="47.5054" y2="33.0425" gradientUnits="userSpaceOnUse">
<stop stop-color="#E7A800"/>
<stop offset="1" stop-color="#E7A800" stop-opacity="0.28"/>
</linearGradient>
<linearGradient id="paint25_linear_101_821" x1="33.4365" y1="45.9053" x2="33.4365" y2="72.0708" gradientUnits="userSpaceOnUse">
<stop stop-color="#E7A800"/>
<stop offset="1" stop-color="#E7A800" stop-opacity="0.28"/>
</linearGradient>
<linearGradient id="paint26_linear_101_821" x1="44.9495" y1="71.6313" x2="44.9495" y2="71.6772" gradientUnits="userSpaceOnUse">
<stop stop-color="#E7A800"/>
<stop offset="1" stop-color="#E7A800" stop-opacity="0.28"/>
</linearGradient>
<linearGradient id="paint27_linear_101_821" x1="8.05986" y1="71.8438" x2="8.05986" y2="78.6695" gradientUnits="userSpaceOnUse">
<stop stop-color="#E7A800"/>
<stop offset="1" stop-color="#E7A800" stop-opacity="0.28"/>
</linearGradient>
<linearGradient id="paint28_linear_101_821" x1="14.6883" y1="68.7642" x2="14.6883" y2="75.5899" gradientUnits="userSpaceOnUse">
<stop stop-color="#E7A800"/>
<stop offset="1" stop-color="#E7A800" stop-opacity="0.28"/>
</linearGradient>
<linearGradient id="paint29_linear_101_821" x1="8.05986" y1="65.0938" x2="8.05986" y2="71.9195" gradientUnits="userSpaceOnUse">
<stop stop-color="#E7A800"/>
<stop offset="1" stop-color="#E7A800" stop-opacity="0.28"/>
</linearGradient>
<linearGradient id="paint30_linear_101_821" x1="14.6883" y1="62.0146" x2="14.6883" y2="68.8404" gradientUnits="userSpaceOnUse">
<stop stop-color="#E7A800"/>
<stop offset="1" stop-color="#E7A800" stop-opacity="0.28"/>
</linearGradient>
<linearGradient id="paint31_linear_101_821" x1="10.4748" y1="55.7803" x2="10.4748" y2="65.4274" gradientUnits="userSpaceOnUse">
<stop stop-color="#E7A800"/>
<stop offset="1" stop-color="#E7A800" stop-opacity="0.28"/>
</linearGradient>
<linearGradient id="paint32_linear_101_821" x1="18.5716" y1="75.8174" x2="18.5716" y2="82.6432" gradientUnits="userSpaceOnUse">
<stop stop-color="#E7A800"/>
<stop offset="1" stop-color="#E7A800" stop-opacity="0.28"/>
</linearGradient>
<linearGradient id="paint33_linear_101_821" x1="21.6658" y1="82.4463" x2="21.6658" y2="89.2721" gradientUnits="userSpaceOnUse">
<stop stop-color="#E7A800"/>
<stop offset="1" stop-color="#E7A800" stop-opacity="0.28"/>
</linearGradient>
<linearGradient id="paint34_linear_101_821" x1="25.3216" y1="75.8174" x2="25.3216" y2="82.6432" gradientUnits="userSpaceOnUse">
<stop stop-color="#E7A800"/>
<stop offset="1" stop-color="#E7A800" stop-opacity="0.28"/>
</linearGradient>
<linearGradient id="paint35_linear_101_821" x1="28.4007" y1="82.4463" x2="28.4007" y2="89.2721" gradientUnits="userSpaceOnUse">
<stop stop-color="#E7A800"/>
<stop offset="1" stop-color="#E7A800" stop-opacity="0.28"/>
</linearGradient>
<linearGradient id="paint36_linear_101_821" x1="33.2239" y1="79.6426" x2="33.2239" y2="83.6488" gradientUnits="userSpaceOnUse">
<stop stop-color="#E7A800"/>
<stop offset="1" stop-color="#E7A800" stop-opacity="0.28"/>
</linearGradient>
<linearGradient id="paint37_linear_101_821" x1="9.16709" y1="80.3228" x2="9.16709" y2="86.9665" gradientUnits="userSpaceOnUse">
<stop stop-color="#E7A800"/>
<stop offset="1" stop-color="#E7A800" stop-opacity="0.28"/>
</linearGradient>
<linearGradient id="paint38_linear_101_821" x1="79.5184" y1="12.6719" x2="79.5184" y2="19.4977" gradientUnits="userSpaceOnUse">
<stop stop-color="#E7A800"/>
<stop offset="1" stop-color="#E7A800" stop-opacity="0.28"/>
</linearGradient>
<linearGradient id="paint39_linear_101_821" x1="72.8895" y1="15.7505" x2="72.8895" y2="22.5763" gradientUnits="userSpaceOnUse">
<stop stop-color="#E7A800"/>
<stop offset="1" stop-color="#E7A800" stop-opacity="0.28"/>
</linearGradient>
<linearGradient id="paint40_linear_101_821" x1="79.5184" y1="19.4219" x2="79.5184" y2="26.2477" gradientUnits="userSpaceOnUse">
<stop stop-color="#E7A800"/>
<stop offset="1" stop-color="#E7A800" stop-opacity="0.28"/>
</linearGradient>
<linearGradient id="paint41_linear_101_821" x1="72.8895" y1="22.501" x2="72.8895" y2="29.3268" gradientUnits="userSpaceOnUse">
<stop stop-color="#E7A800"/>
<stop offset="1" stop-color="#E7A800" stop-opacity="0.28"/>
</linearGradient>
<linearGradient id="paint42_linear_101_821" x1="77.1043" y1="25.9136" x2="77.1043" y2="35.5607" gradientUnits="userSpaceOnUse">
<stop stop-color="#E7A800"/>
<stop offset="1" stop-color="#E7A800" stop-opacity="0.28"/>
</linearGradient>
<linearGradient id="paint43_linear_101_821" x1="69.0066" y1="8.69727" x2="69.0066" y2="15.523" gradientUnits="userSpaceOnUse">
<stop stop-color="#E7A800"/>
<stop offset="1" stop-color="#E7A800" stop-opacity="0.28"/>
</linearGradient>
<linearGradient id="paint44_linear_101_821" x1="65.9275" y1="2.06885" x2="65.9275" y2="8.89463" gradientUnits="userSpaceOnUse">
<stop stop-color="#E7A800"/>
<stop offset="1" stop-color="#E7A800" stop-opacity="0.28"/>
</linearGradient>
<linearGradient id="paint45_linear_101_821" x1="62.2566" y1="8.69727" x2="62.2566" y2="15.523" gradientUnits="userSpaceOnUse">
<stop stop-color="#E7A800"/>
<stop offset="1" stop-color="#E7A800" stop-opacity="0.28"/>
</linearGradient>
<linearGradient id="paint46_linear_101_821" x1="59.1775" y1="2.06885" x2="59.1775" y2="8.89463" gradientUnits="userSpaceOnUse">
<stop stop-color="#E7A800"/>
<stop offset="1" stop-color="#E7A800" stop-opacity="0.28"/>
</linearGradient>
<linearGradient id="paint47_linear_101_821" x1="54.3538" y1="7.69238" x2="54.3538" y2="11.6987" gradientUnits="userSpaceOnUse">
<stop stop-color="#E7A800"/>
<stop offset="1" stop-color="#E7A800" stop-opacity="0.28"/>
</linearGradient>
<linearGradient id="paint48_linear_101_821" x1="75.243" y1="6.73407" x2="81.6017" y2="8.65943" gradientUnits="userSpaceOnUse">
<stop stop-color="#E7A800"/>
<stop offset="1" stop-color="#E7A800" stop-opacity="0.28"/>
</linearGradient>
<linearGradient id="paint49_linear_101_821" x1="63.9628" y1="31.4043" x2="63.9628" y2="89.6054" gradientUnits="userSpaceOnUse">
<stop stop-color="#E7A800"/>
<stop offset="1" stop-color="#E7A800" stop-opacity="0.28"/>
</linearGradient>
<linearGradient id="paint50_linear_101_821" x1="26.1632" y1="1.29541" x2="26.1632" y2="61.3623" gradientUnits="userSpaceOnUse">
<stop stop-color="#E7A800"/>
<stop offset="1" stop-color="#E7A800" stop-opacity="0.28"/>
</linearGradient>
<clipPath id="clip0_101_821">
<rect width="89.084" height="89.084" fill="white" transform="translate(0.384277 0.916016)"/>
</clipPath>
</defs>
</svg>
