<svg width="810" height="400" viewBox="0 0 810 400" fill="none" xmlns="http://www.w3.org/2000/svg">
<g clip-path="url(#clip0_354_200)">
<path d="M466.189 130.632C466.257 130.564 466.325 130.495 466.394 130.427C466.462 130.359 466.53 130.291 466.598 130.223" stroke="url(#paint0_linear_354_200)" stroke-opacity="0.5" stroke-width="1.12223" stroke-miterlimit="10"/>
<path d="M405.164 191.725L404.96 191.929" stroke="url(#paint1_linear_354_200)" stroke-opacity="0.5" stroke-width="1.12223" stroke-miterlimit="10"/>
<path d="M501.946 105.227C501.878 106.317 501.878 107.407 501.946 108.428H501.878V218.423V245.871C501.878 262.353 495.884 277.473 485.941 289.12C475.18 303.218 459.651 313.434 441.806 317.521C438.946 318.202 435.949 318.679 432.952 319.019C438.742 318.27 444.122 316.022 448.549 312.685C448.617 312.617 448.685 312.549 448.822 312.481C450.456 311.255 452.023 309.825 453.385 308.258C464.35 297.088 471.093 281.832 471.093 264.941V125.728L509.642 87.1105C506.033 90.9245 503.444 95.7602 502.355 101.141C502.219 102.503 502.014 103.865 501.946 105.227Z" fill="url(#paint2_linear_354_200)" fill-opacity="0.5"/>
<path d="M501.946 105.227C501.878 106.317 501.878 107.407 501.946 108.428H501.878V218.423V245.871C501.878 262.353 495.884 277.473 485.941 289.12C475.18 303.218 459.651 313.434 441.806 317.521C438.946 318.202 435.949 318.679 432.952 319.019C438.742 318.27 444.122 316.022 448.549 312.685C448.617 312.617 448.685 312.549 448.822 312.481C450.456 311.255 452.023 309.825 453.385 308.258C464.35 297.088 471.093 281.832 471.093 264.941V125.728L509.642 87.1105C506.033 90.9245 503.444 95.7602 502.355 101.141C502.219 102.503 502.014 103.865 501.946 105.227Z" stroke="url(#paint3_linear_354_200)" stroke-opacity="0.5" stroke-width="1.12223" stroke-miterlimit="10" stroke-linejoin="bevel"/>
<path d="M471.297 125.524C470.14 126.681 467.62 129.27 466.666 130.155L471.297 125.524Z" stroke="url(#paint4_linear_354_200)" stroke-opacity="0.5" stroke-width="1.12223" stroke-miterlimit="10" stroke-linejoin="bevel"/>
<path d="M435.949 167.683V167.752" stroke="url(#paint5_linear_354_200)" stroke-opacity="0.5" stroke-width="1.12223" stroke-miterlimit="10"/>
<path d="M458.902 96.0327C458.902 99.7105 455.973 102.639 452.295 102.639C451.274 102.639 450.32 102.435 449.435 101.958C448.072 101.345 446.574 100.936 445.008 100.8C444.667 100.732 444.258 100.732 443.85 100.732C440.853 100.732 438.129 101.481 435.881 103.116L447.187 91.9462L448.209 90.9927C449.366 90.1072 450.797 89.5624 452.363 89.5624C453.521 89.5624 454.679 89.9029 455.632 90.4478C457.539 91.4694 458.902 93.5808 458.902 96.0327Z" fill="url(#paint6_linear_354_200)" fill-opacity="0.5"/>
<path d="M458.902 96.0327C458.902 99.7105 455.973 102.639 452.295 102.639C451.274 102.639 450.32 102.435 449.435 101.958C448.072 101.345 446.574 100.936 445.008 100.8C444.667 100.732 444.258 100.732 443.85 100.732C440.853 100.732 438.129 101.481 435.881 103.116L447.187 91.9462L448.209 90.9927C449.366 90.1072 450.797 89.5624 452.363 89.5624C453.521 89.5624 454.679 89.9029 455.632 90.4478C457.539 91.4694 458.902 93.5808 458.902 96.0327Z" fill="url(#paint7_linear_354_200)" fill-opacity="0.5" stroke="url(#paint8_linear_354_200)" stroke-opacity="0.5" stroke-width="1.12223" stroke-miterlimit="10" stroke-linejoin="bevel"/>
<path d="M459.719 253.567C456.586 251.115 453.181 248.936 449.639 247.097C449.23 246.893 448.754 246.62 448.345 246.416L448.277 246.348C444.395 244.441 440.308 242.942 436.017 241.784C430.569 240.354 424.916 239.605 419.058 239.605C414.291 239.605 409.659 240.082 405.232 241.035C402.576 241.58 399.92 242.329 397.4 243.215C402.236 238.856 405.232 232.59 405.232 225.711V147.999C405.232 145.956 404.483 144.185 403.189 142.755C402.031 141.529 400.533 140.644 398.83 140.371L405.232 133.969L434.383 104.819L436.017 103.184V209.229C436.29 212.089 436.766 214.882 437.448 217.674C440.24 229.593 446.302 240.286 454.543 248.8C456.109 250.434 457.88 252.001 459.719 253.567Z" fill="url(#paint9_linear_354_200)" fill-opacity="0.5"/>
<path d="M459.719 253.567C456.586 251.115 453.181 248.936 449.639 247.097C449.23 246.893 448.754 246.62 448.345 246.416L448.277 246.348C444.395 244.441 440.308 242.942 436.017 241.784C430.569 240.354 424.916 239.605 419.058 239.605C414.291 239.605 409.659 240.082 405.232 241.035C402.576 241.58 399.92 242.329 397.4 243.215C402.236 238.856 405.232 232.59 405.232 225.711V147.999C405.232 145.956 404.483 144.185 403.189 142.755C402.031 141.529 400.533 140.644 398.83 140.371L405.232 133.969L434.383 104.819L436.017 103.184V209.229C436.29 212.089 436.766 214.882 437.448 217.674C440.24 229.593 446.302 240.286 454.543 248.8C456.109 250.434 457.88 252.001 459.719 253.567Z" stroke="url(#paint10_linear_354_200)" stroke-opacity="0.5" stroke-width="1.12223" stroke-miterlimit="10" stroke-linejoin="bevel"/>
<path d="M463.874 145.956C464.214 146.705 464.35 147.523 464.35 148.408C464.35 152.086 461.354 155.014 457.744 155.014C455.292 155.014 453.112 153.652 452.023 151.677C451.478 150.724 451.137 149.634 451.137 148.408C451.137 146.841 451.682 145.411 452.568 144.321L452.636 144.253L453.589 143.3L453.657 143.232L466.257 130.632C463.942 133.084 462.511 136.353 462.511 139.963C462.511 140.371 462.511 140.712 462.58 141.12C462.716 142.619 463.056 143.981 463.601 145.275V145.343C463.669 145.547 463.805 145.752 463.874 145.956Z" fill="url(#paint11_linear_354_200)" fill-opacity="0.5"/>
<path d="M463.874 145.956C464.214 146.705 464.35 147.523 464.35 148.408C464.35 152.086 461.354 155.014 457.744 155.014C455.292 155.014 453.112 153.652 452.023 151.677C451.478 150.724 451.137 149.634 451.137 148.408C451.137 146.841 451.682 145.411 452.568 144.321L452.636 144.253L453.589 143.3L453.657 143.232L466.257 130.632C463.942 133.084 462.511 136.353 462.511 139.963C462.511 140.371 462.511 140.712 462.58 141.12C462.716 142.619 463.056 143.981 463.601 145.275V145.343C463.669 145.547 463.805 145.752 463.874 145.956Z" fill="url(#paint12_linear_354_200)" fill-opacity="0.5" stroke="url(#paint13_linear_354_200)" stroke-opacity="0.5" stroke-width="1.12223" stroke-miterlimit="10" stroke-linejoin="bevel"/>
<path d="M459.719 253.567C460.332 254.044 460.877 254.521 461.49 254.929C461.49 254.929 461.49 254.929 461.558 254.997C464.555 257.313 467.824 259.424 471.229 261.195" stroke="url(#paint14_linear_354_200)" stroke-opacity="0.5" stroke-width="1.12223" stroke-miterlimit="10"/>
<path d="M435.949 167.683C435.949 167.819 435.949 167.955 435.881 168.091" stroke="url(#paint15_linear_354_200)" stroke-opacity="0.5" stroke-width="1.12223" stroke-miterlimit="10"/>
<path d="M497.928 268.619L502.15 268.823C504.67 268.823 507.122 268.687 509.574 268.415C509.71 268.415 509.779 268.415 509.915 268.347" stroke="url(#paint16_linear_354_200)" stroke-opacity="0.5" stroke-width="1.12223" stroke-miterlimit="10"/>
<path d="M466.189 130.632C466.257 130.564 466.325 130.495 466.394 130.427C466.462 130.359 466.53 130.291 466.598 130.223" stroke="url(#paint17_linear_354_200)" stroke-opacity="0.5" stroke-width="1.12223" stroke-miterlimit="10"/>
<path d="M537.158 254.384C537.158 257.245 535.592 259.765 533.208 261.127C533.208 261.127 533.208 261.127 533.14 261.127C533.003 261.195 532.867 261.263 532.663 261.332C532.663 261.332 532.595 261.331 532.595 261.4C525.648 265.009 517.952 267.393 509.847 268.347C516.521 267.529 521.629 261.808 521.629 254.929V254.793C521.629 254.589 521.629 254.453 521.629 254.248C521.697 250.026 525.103 246.62 529.394 246.62C533.685 246.688 537.158 250.162 537.158 254.384Z" fill="url(#paint18_linear_354_200)" fill-opacity="0.5"/>
<path d="M537.158 254.384C537.158 257.245 535.592 259.765 533.208 261.127C533.208 261.127 533.208 261.127 533.14 261.127C533.003 261.195 532.867 261.263 532.663 261.332C532.663 261.332 532.595 261.331 532.595 261.4C525.648 265.009 517.952 267.393 509.847 268.347C516.521 267.529 521.629 261.808 521.629 254.929V254.793C521.629 254.589 521.629 254.453 521.629 254.248C521.697 250.026 525.103 246.62 529.394 246.62C533.685 246.688 537.158 250.162 537.158 254.384Z" fill="url(#paint19_linear_354_200)" fill-opacity="0.5" stroke="url(#paint20_linear_354_200)" stroke-opacity="0.5" stroke-width="1.12223" stroke-miterlimit="10" stroke-linejoin="bevel"/>
<path d="M385.821 190.839C385.072 195.062 381.054 197.855 376.831 197.105C376.286 197.037 375.81 196.833 375.333 196.697C375.333 196.697 375.333 196.697 375.265 196.697C375.197 196.629 375.06 196.629 374.992 196.56C374.992 196.56 374.924 196.56 374.924 196.492C373.971 196.084 373.017 195.811 371.995 195.607C367.568 194.79 363.21 196.288 360.213 199.217C359.464 199.898 358.782 200.715 358.238 201.601C358.169 201.737 358.101 201.873 358.033 202.009C358.578 200.988 359.191 199.966 359.804 199.012C363.414 193.291 367.909 188.183 372.949 183.892C373.153 183.756 373.29 183.62 373.494 183.416C373.494 183.416 373.562 183.416 373.562 183.347C375.197 182.122 377.376 181.509 379.556 181.917C383.778 182.666 386.571 186.685 385.821 190.839Z" fill="url(#paint21_linear_354_200)" fill-opacity="0.5"/>
<path d="M385.821 190.839C385.072 195.062 381.054 197.855 376.831 197.105C376.286 197.037 375.81 196.833 375.333 196.697C375.333 196.697 375.333 196.697 375.265 196.697C375.197 196.629 375.06 196.629 374.992 196.56C374.992 196.56 374.924 196.56 374.924 196.492C373.971 196.084 373.017 195.811 371.995 195.607C367.568 194.79 363.21 196.288 360.213 199.217C359.464 199.898 358.782 200.715 358.238 201.601C358.169 201.737 358.101 201.873 358.033 202.009C358.578 200.988 359.191 199.966 359.804 199.012C363.414 193.291 367.909 188.183 372.949 183.892C373.153 183.756 373.29 183.62 373.494 183.416C373.494 183.416 373.562 183.416 373.562 183.347C375.197 182.122 377.376 181.509 379.556 181.917C383.778 182.666 386.571 186.685 385.821 190.839Z" fill="url(#paint22_linear_354_200)" fill-opacity="0.5" stroke="url(#paint23_linear_354_200)" stroke-opacity="0.5" stroke-width="1.12223" stroke-miterlimit="10" stroke-linejoin="bevel"/>
<path d="M453.589 143.232L452.568 144.253C452.908 143.845 453.249 143.504 453.589 143.232Z" stroke="url(#paint24_linear_354_200)" stroke-opacity="0.5" stroke-width="1.12223" stroke-miterlimit="10"/>
<path d="M432.952 319.087C432.135 319.155 431.318 319.224 430.501 319.292C428.457 319.428 426.482 319.496 424.371 319.496C381.531 319.496 346.864 284.761 346.864 241.989C346.864 227.345 350.882 213.656 357.965 202.009" stroke="url(#paint25_linear_354_200)" stroke-opacity="0.5" stroke-width="1.12223" stroke-miterlimit="10" stroke-linejoin="round"/>
<path d="M441.466 317.725C441.534 317.657 441.67 317.589 441.738 317.521" stroke="url(#paint26_linear_354_200)" stroke-opacity="0.5" stroke-width="1.12223" stroke-miterlimit="10" stroke-linejoin="round"/>
<path d="M291.287 349.123C274.396 349.123 260.638 335.433 260.638 318.474C269.084 318.474 276.78 321.88 282.297 327.465C287.882 332.981 291.287 340.678 291.287 349.123Z" stroke="url(#paint27_linear_354_200)" stroke-opacity="0.5" stroke-width="2.80558" stroke-miterlimit="10"/>
<path d="M321.05 304.648C304.16 304.648 290.402 318.338 290.402 335.297C298.847 335.297 306.543 331.892 312.06 326.307C317.645 320.722 321.05 313.094 321.05 304.648Z" stroke="url(#paint28_linear_354_200)" stroke-opacity="0.5" stroke-width="2.80558" stroke-miterlimit="10"/>
<path d="M291.287 318.815C274.396 318.815 260.638 305.125 260.638 288.166C269.084 288.166 276.78 291.572 282.297 297.156C287.882 302.741 291.287 310.369 291.287 318.815Z" stroke="url(#paint29_linear_354_200)" stroke-opacity="0.5" stroke-width="2.80558" stroke-miterlimit="10"/>
<path d="M321.05 274.34C304.16 274.34 290.402 288.03 290.402 304.989C298.847 304.989 306.543 301.584 312.06 295.999C317.645 290.482 321.05 282.786 321.05 274.34Z" stroke="url(#paint30_linear_354_200)" stroke-opacity="0.5" stroke-width="2.80558" stroke-miterlimit="10"/>
<path d="M287.473 289.665C275.145 278.086 274.533 258.675 286.111 246.348C292.309 252.137 295.51 259.901 295.782 267.734C296.055 275.566 293.262 283.467 287.473 289.665Z" stroke="url(#paint31_linear_354_200)" stroke-opacity="0.5" stroke-width="2.80558" stroke-miterlimit="10"/>
<path d="M307.837 366.967C307.837 350.077 321.527 336.319 338.486 336.319C338.486 344.764 335.081 352.46 329.496 357.977C323.979 363.494 316.351 366.967 307.837 366.967Z" stroke="url(#paint32_linear_354_200)" stroke-opacity="0.5" stroke-width="2.80558" stroke-miterlimit="10"/>
<path d="M352.38 396.731C352.38 379.84 338.691 366.082 321.732 366.082C321.732 374.527 325.137 382.224 330.722 387.74C336.239 393.257 343.867 396.731 352.38 396.731Z" stroke="url(#paint33_linear_354_200)" stroke-opacity="0.5" stroke-width="2.80558" stroke-miterlimit="10"/>
<path d="M338.146 366.967C338.146 350.077 351.835 336.319 368.794 336.319C368.794 344.764 365.389 352.46 359.804 357.977C354.287 363.494 346.591 366.967 338.146 366.967Z" stroke="url(#paint34_linear_354_200)" stroke-opacity="0.5" stroke-width="2.80558" stroke-miterlimit="10"/>
<path d="M382.62 396.731C382.62 379.84 368.931 366.082 351.972 366.082C351.972 374.527 355.377 382.224 360.962 387.74C366.479 393.257 374.175 396.731 382.62 396.731Z" stroke="url(#paint35_linear_354_200)" stroke-opacity="0.5" stroke-width="2.80558" stroke-miterlimit="10"/>
<path d="M367.296 363.153C378.874 350.826 398.285 350.213 410.613 361.791C404.824 367.989 397.059 371.19 389.227 371.463C381.394 371.735 373.494 368.943 367.296 363.153Z" stroke="url(#paint36_linear_354_200)" stroke-opacity="0.5" stroke-width="2.80558" stroke-miterlimit="10"/>
<path d="M280.935 386.378C289.172 386.378 295.85 379.7 295.85 371.463C295.85 363.225 289.172 356.547 280.935 356.547C272.697 356.547 266.019 363.225 266.019 371.463C266.019 379.7 272.697 386.378 280.935 386.378Z" stroke="url(#paint37_linear_354_200)" stroke-opacity="0.5" stroke-width="2.80558" stroke-miterlimit="10"/>
<path d="M581.497 52.7839C598.387 52.7839 612.145 66.4737 612.145 83.4327C603.7 83.4327 596.004 80.0273 590.487 74.4424C584.97 68.9256 581.497 61.2294 581.497 52.7839Z" stroke="url(#paint38_linear_354_200)" stroke-opacity="0.5" stroke-width="2.80558" stroke-miterlimit="10"/>
<path d="M551.733 97.2586C568.624 97.2586 582.382 83.5688 582.382 66.6099C573.937 66.6099 566.24 70.0153 560.724 75.6002C555.207 81.1169 551.733 88.8132 551.733 97.2586Z" stroke="url(#paint39_linear_354_200)" stroke-opacity="0.5" stroke-width="2.80558" stroke-miterlimit="10"/>
<path d="M581.497 83.0921C598.387 83.0921 612.145 96.7819 612.145 113.741C603.7 113.741 596.004 110.335 590.487 104.751C584.97 99.1657 581.497 91.5375 581.497 83.0921Z" stroke="url(#paint40_linear_354_200)" stroke-opacity="0.5" stroke-width="2.80558" stroke-miterlimit="10"/>
<path d="M551.733 127.567C568.624 127.567 582.382 113.877 582.382 96.9181C573.937 96.9181 566.24 100.324 560.724 105.908C555.207 111.425 551.733 119.053 551.733 127.567Z" stroke="url(#paint41_linear_354_200)" stroke-opacity="0.5" stroke-width="2.80558" stroke-miterlimit="10"/>
<path d="M585.311 112.242C597.638 123.821 598.251 143.232 586.673 155.559C580.475 149.77 577.274 142.006 577.001 134.173C576.797 126.341 579.521 118.372 585.311 112.242Z" stroke="url(#paint42_linear_354_200)" stroke-opacity="0.5" stroke-width="2.80558" stroke-miterlimit="10"/>
<path d="M564.946 34.9395C564.946 51.8304 551.257 65.5883 534.298 65.5883C534.298 57.1428 537.703 49.4466 543.288 43.9298C548.805 38.3449 556.501 34.9395 564.946 34.9395Z" stroke="url(#paint43_linear_354_200)" stroke-opacity="0.5" stroke-width="2.80558" stroke-miterlimit="10"/>
<path d="M520.471 5.17621C520.471 22.0671 534.161 35.8249 551.12 35.8249C551.12 27.3795 547.715 19.6833 542.13 14.1665C536.545 8.58162 528.917 5.17621 520.471 5.17621Z" stroke="url(#paint44_linear_354_200)" stroke-opacity="0.5" stroke-width="2.80558" stroke-miterlimit="10"/>
<path d="M534.638 34.9395C534.638 51.8304 520.948 65.5883 503.989 65.5883C503.989 57.1428 507.395 49.4466 512.98 43.9298C518.565 38.3449 526.193 34.9395 534.638 34.9395Z" stroke="url(#paint45_linear_354_200)" stroke-opacity="0.5" stroke-width="2.80558" stroke-miterlimit="10"/>
<path d="M490.163 5.17621C490.163 22.0671 503.853 35.8249 520.812 35.8249C520.812 27.3795 517.407 19.6833 511.822 14.1665C506.305 8.58162 498.609 5.17621 490.163 5.17621Z" stroke="url(#paint46_linear_354_200)" stroke-opacity="0.5" stroke-width="2.80558" stroke-miterlimit="10"/>
<path d="M505.488 38.7536C493.909 51.0812 474.498 51.6942 462.171 40.1158C467.96 33.9179 475.724 30.7168 483.557 30.4444C491.389 30.172 499.29 32.8963 505.488 38.7536Z" stroke="url(#paint47_linear_354_200)" stroke-opacity="0.5" stroke-width="2.80558" stroke-miterlimit="10"/>
<path d="M606.177 34.7701C608.553 26.9217 604.088 18.6241 596.204 16.2369C588.319 13.8496 580.002 18.2766 577.625 26.1249C575.249 33.9732 579.714 42.2709 587.598 44.6581C595.482 47.0454 603.8 42.6184 606.177 34.7701Z" stroke="url(#paint48_linear_354_200)" stroke-opacity="0.5" stroke-width="2.80558" stroke-miterlimit="10"/>
<path d="M629.513 136.898C636.188 156.717 639.729 177.899 639.729 199.966C639.729 309.484 550.916 398.229 441.466 398.229C432.203 398.229 423.145 397.616 414.223 396.39" stroke="url(#paint49_linear_354_200)" stroke-opacity="0.5" stroke-width="2.80558" stroke-miterlimit="10"/>
<path d="M256.416 271.412C247.902 249.276 243.203 225.166 243.203 199.966C243.203 90.5159 332.016 1.7027 441.466 1.7027C451.614 1.7027 461.558 2.45189 471.297 3.95027" stroke="url(#paint50_linear_354_200)" stroke-opacity="0.5" stroke-width="2.80558" stroke-miterlimit="10"/>
</g>
<path d="M78.6 129C39 129 6 161 6 200.6C6 240 39 272.2 78.6 272.2C118.2 272.2 151.2 240 151.2 200.6C151.2 161 118.2 129 78.6 129ZM99 267.4C65.6 277.6 36 252.2 25.2 216.8C14.4 181.6 24.8 144 58.2 133.8C91.6 123.6 121.2 149 132 184.2C142.8 219.6 132.4 257.2 99 267.4ZM260.38 269.6C257.18 267.8 255.78 264.8 255.78 257.8V174.8H254.38L235.58 179.2C235.58 179.2 235.58 180.2 235.58 180.6C239.38 181.2 239.98 183.2 239.98 190.2V205.6C239.98 222.4 235.98 264.2 213.58 268.6C196.38 271.8 187.38 257.4 187.38 240V174.8H185.98L167.18 179.2C167.18 179.2 167.18 180.2 167.18 180.6C170.98 181.2 171.58 183.2 171.58 190.2V237C171.58 260.6 186.18 272.2 204.58 272.2C230.58 272.2 237.38 245 239.98 222.4V271H260.38C260.38 271 260.38 270 260.38 269.6ZM323.606 174.8C302.406 174.8 296.806 204.2 294.806 228.4V174.8H293.206L274.406 179.2C274.406 179.2 274.406 180.2 274.406 180.6C278.406 181.2 279.006 183.2 279.006 190.2V257.8C279.006 264.8 277.606 267.8 274.406 269.6C274.406 270 274.406 271 274.406 271H299.206C299.206 271 299.206 270 299.206 269.6C296.206 267.8 294.806 264.8 294.806 257.8V250C294.806 233 297.406 181.4 317.006 178.4C327.806 176.8 333.406 191.6 333.806 203L335.206 203.8L347.406 186.6C340.606 178.6 334.406 174.8 323.606 174.8ZM488.155 246C478.755 258.2 462.355 269.6 440.155 269.6H421.955V144.4C421.955 137.2 423.355 134.4 426.355 132.6C426.355 132.2 426.355 131 426.355 131H401.555C401.555 131 401.555 132.2 401.555 132.6C404.755 134.4 406.155 137.2 406.155 144.4V257.8C406.155 264.8 404.755 267.8 401.555 269.6C401.555 270 401.555 271 401.555 271H484.955L489.355 246.8L488.155 246ZM553.606 174.8C526.806 174.8 499.406 194.8 499.406 227.8C499.406 255.8 522.406 272.2 549.406 272.2C576.206 272.2 603.606 251.2 603.606 219.2C603.606 191.6 580.406 174.8 553.606 174.8ZM564.806 268.6C542.006 275.4 523.206 258.2 516.206 234.2C509.206 210 515.406 185 538.206 178.4C561.006 171.8 579.806 188.8 586.806 212.8C593.806 237 587.606 262 564.806 268.6ZM703.916 176.4V174.8H680.316V176.4C689.116 183.8 686.916 194.8 679.516 213.2L663.116 254L639.316 198.4C634.716 187.2 632.916 181.8 638.116 176.4V174.8H607.516V176.4C617.116 184.4 621.316 193 629.716 212.6L654.516 271H670.316L663.916 255.8L680.916 213.4C688.316 195 695.316 185.2 703.916 176.4ZM783.052 206.4H787.452C787.452 206.4 799.852 206.4 801.652 206.4C798.852 182.2 775.452 174 758.452 174.8C736.452 176 705.052 191 706.052 225.6C706.852 258.6 733.452 272.2 761.052 272.2C789.452 272.2 802.052 253.4 803.252 239.2C804.852 221 794.452 209.4 783.052 206.4ZM749.452 177.2C769.052 173.4 784.652 187.4 787.252 204.8H723.452C727.052 191.2 735.852 179.8 749.452 177.2ZM801.452 239.6C799.452 255.2 784.452 267 767.252 267.8C746.852 268.6 731.852 259.4 724.452 238.4C721.052 228.8 720.452 217 723.052 206.4H774.852C790.052 206.4 803.852 218.8 801.452 239.6Z" fill="white"/>
<defs>
<linearGradient id="paint0_linear_354_200" x1="466.394" y1="130.223" x2="466.394" y2="130.632" gradientUnits="userSpaceOnUse">
<stop stop-color="#E7A800"/>
<stop offset="1" stop-color="#E7A800" stop-opacity="0.28"/>
</linearGradient>
<linearGradient id="paint1_linear_354_200" x1="405.062" y1="191.725" x2="405.062" y2="191.929" gradientUnits="userSpaceOnUse">
<stop stop-color="#E7A800"/>
<stop offset="1" stop-color="#E7A800" stop-opacity="0.28"/>
</linearGradient>
<linearGradient id="paint2_linear_354_200" x1="471.297" y1="87.1105" x2="471.297" y2="319.019" gradientUnits="userSpaceOnUse">
<stop stop-color="#E7A800"/>
<stop offset="1" stop-color="#E7A800" stop-opacity="0.28"/>
</linearGradient>
<linearGradient id="paint3_linear_354_200" x1="471.297" y1="87.1105" x2="471.297" y2="319.019" gradientUnits="userSpaceOnUse">
<stop stop-color="#E7A800"/>
<stop offset="1" stop-color="#E7A800" stop-opacity="0.28"/>
</linearGradient>
<linearGradient id="paint4_linear_354_200" x1="468.982" y1="125.524" x2="468.982" y2="130.155" gradientUnits="userSpaceOnUse">
<stop stop-color="#E7A800"/>
<stop offset="1" stop-color="#E7A800" stop-opacity="0.28"/>
</linearGradient>
<linearGradient id="paint5_linear_354_200" x1="436.449" y1="167.683" x2="436.449" y2="167.752" gradientUnits="userSpaceOnUse">
<stop stop-color="#E7A800"/>
<stop offset="1" stop-color="#E7A800" stop-opacity="0.28"/>
</linearGradient>
<linearGradient id="paint6_linear_354_200" x1="447.391" y1="89.5624" x2="447.391" y2="103.116" gradientUnits="userSpaceOnUse">
<stop stop-color="#E7A800"/>
<stop offset="1" stop-color="#E7A800" stop-opacity="0.28"/>
</linearGradient>
<linearGradient id="paint7_linear_354_200" x1="447.391" y1="89.5624" x2="447.391" y2="103.116" gradientUnits="userSpaceOnUse">
<stop stop-color="#E7A800"/>
<stop offset="1" stop-color="#E7A800" stop-opacity="0.28"/>
</linearGradient>
<linearGradient id="paint8_linear_354_200" x1="447.391" y1="89.5624" x2="447.391" y2="103.116" gradientUnits="userSpaceOnUse">
<stop stop-color="#E7A800"/>
<stop offset="1" stop-color="#E7A800" stop-opacity="0.28"/>
</linearGradient>
<linearGradient id="paint9_linear_354_200" x1="428.559" y1="103.184" x2="428.559" y2="253.567" gradientUnits="userSpaceOnUse">
<stop stop-color="#E7A800"/>
<stop offset="1" stop-color="#E7A800" stop-opacity="0.28"/>
</linearGradient>
<linearGradient id="paint10_linear_354_200" x1="428.559" y1="103.184" x2="428.559" y2="253.567" gradientUnits="userSpaceOnUse">
<stop stop-color="#E7A800"/>
<stop offset="1" stop-color="#E7A800" stop-opacity="0.28"/>
</linearGradient>
<linearGradient id="paint11_linear_354_200" x1="458.697" y1="130.632" x2="458.697" y2="155.014" gradientUnits="userSpaceOnUse">
<stop stop-color="#E7A800"/>
<stop offset="1" stop-color="#E7A800" stop-opacity="0.28"/>
</linearGradient>
<linearGradient id="paint12_linear_354_200" x1="458.697" y1="130.632" x2="458.697" y2="155.014" gradientUnits="userSpaceOnUse">
<stop stop-color="#E7A800"/>
<stop offset="1" stop-color="#E7A800" stop-opacity="0.28"/>
</linearGradient>
<linearGradient id="paint13_linear_354_200" x1="458.697" y1="130.632" x2="458.697" y2="155.014" gradientUnits="userSpaceOnUse">
<stop stop-color="#E7A800"/>
<stop offset="1" stop-color="#E7A800" stop-opacity="0.28"/>
</linearGradient>
<linearGradient id="paint14_linear_354_200" x1="465.474" y1="253.567" x2="465.474" y2="261.195" gradientUnits="userSpaceOnUse">
<stop stop-color="#E7A800"/>
<stop offset="1" stop-color="#E7A800" stop-opacity="0.28"/>
</linearGradient>
<linearGradient id="paint15_linear_354_200" x1="435.915" y1="167.683" x2="435.915" y2="168.091" gradientUnits="userSpaceOnUse">
<stop stop-color="#E7A800"/>
<stop offset="1" stop-color="#E7A800" stop-opacity="0.28"/>
</linearGradient>
<linearGradient id="paint16_linear_354_200" x1="503.921" y1="268.347" x2="503.921" y2="268.823" gradientUnits="userSpaceOnUse">
<stop stop-color="#E7A800"/>
<stop offset="1" stop-color="#E7A800" stop-opacity="0.28"/>
</linearGradient>
<linearGradient id="paint17_linear_354_200" x1="466.394" y1="130.223" x2="466.394" y2="130.632" gradientUnits="userSpaceOnUse">
<stop stop-color="#E7A800"/>
<stop offset="1" stop-color="#E7A800" stop-opacity="0.28"/>
</linearGradient>
<linearGradient id="paint18_linear_354_200" x1="523.502" y1="246.62" x2="523.502" y2="268.347" gradientUnits="userSpaceOnUse">
<stop stop-color="#E7A800"/>
<stop offset="1" stop-color="#E7A800" stop-opacity="0.28"/>
</linearGradient>
<linearGradient id="paint19_linear_354_200" x1="523.502" y1="246.62" x2="523.502" y2="268.347" gradientUnits="userSpaceOnUse">
<stop stop-color="#E7A800"/>
<stop offset="1" stop-color="#E7A800" stop-opacity="0.28"/>
</linearGradient>
<linearGradient id="paint20_linear_354_200" x1="523.502" y1="246.62" x2="523.502" y2="268.347" gradientUnits="userSpaceOnUse">
<stop stop-color="#E7A800"/>
<stop offset="1" stop-color="#E7A800" stop-opacity="0.28"/>
</linearGradient>
<linearGradient id="paint21_linear_354_200" x1="371.988" y1="181.791" x2="371.988" y2="202.009" gradientUnits="userSpaceOnUse">
<stop stop-color="#E7A800"/>
<stop offset="1" stop-color="#E7A800" stop-opacity="0.28"/>
</linearGradient>
<linearGradient id="paint22_linear_354_200" x1="371.988" y1="181.791" x2="371.988" y2="202.009" gradientUnits="userSpaceOnUse">
<stop stop-color="#E7A800"/>
<stop offset="1" stop-color="#E7A800" stop-opacity="0.28"/>
</linearGradient>
<linearGradient id="paint23_linear_354_200" x1="371.988" y1="181.791" x2="371.988" y2="202.009" gradientUnits="userSpaceOnUse">
<stop stop-color="#E7A800"/>
<stop offset="1" stop-color="#E7A800" stop-opacity="0.28"/>
</linearGradient>
<linearGradient id="paint24_linear_354_200" x1="453.078" y1="143.232" x2="453.078" y2="144.253" gradientUnits="userSpaceOnUse">
<stop stop-color="#E7A800"/>
<stop offset="1" stop-color="#E7A800" stop-opacity="0.28"/>
</linearGradient>
<linearGradient id="paint25_linear_354_200" x1="389.908" y1="202.009" x2="389.908" y2="319.496" gradientUnits="userSpaceOnUse">
<stop stop-color="#E7A800"/>
<stop offset="1" stop-color="#E7A800" stop-opacity="0.28"/>
</linearGradient>
<linearGradient id="paint26_linear_354_200" x1="441.602" y1="317.521" x2="441.602" y2="317.725" gradientUnits="userSpaceOnUse">
<stop stop-color="#E7A800"/>
<stop offset="1" stop-color="#E7A800" stop-opacity="0.28"/>
</linearGradient>
<linearGradient id="paint27_linear_354_200" x1="275.963" y1="318.474" x2="275.963" y2="349.123" gradientUnits="userSpaceOnUse">
<stop stop-color="#E7A800"/>
<stop offset="1" stop-color="#E7A800" stop-opacity="0.28"/>
</linearGradient>
<linearGradient id="paint28_linear_354_200" x1="305.726" y1="304.648" x2="305.726" y2="335.297" gradientUnits="userSpaceOnUse">
<stop stop-color="#E7A800"/>
<stop offset="1" stop-color="#E7A800" stop-opacity="0.28"/>
</linearGradient>
<linearGradient id="paint29_linear_354_200" x1="275.963" y1="288.166" x2="275.963" y2="318.815" gradientUnits="userSpaceOnUse">
<stop stop-color="#E7A800"/>
<stop offset="1" stop-color="#E7A800" stop-opacity="0.28"/>
</linearGradient>
<linearGradient id="paint30_linear_354_200" x1="305.726" y1="274.34" x2="305.726" y2="304.989" gradientUnits="userSpaceOnUse">
<stop stop-color="#E7A800"/>
<stop offset="1" stop-color="#E7A800" stop-opacity="0.28"/>
</linearGradient>
<linearGradient id="paint31_linear_354_200" x1="286.806" y1="246.348" x2="286.806" y2="289.665" gradientUnits="userSpaceOnUse">
<stop stop-color="#E7A800"/>
<stop offset="1" stop-color="#E7A800" stop-opacity="0.28"/>
</linearGradient>
<linearGradient id="paint32_linear_354_200" x1="323.162" y1="336.319" x2="323.162" y2="366.967" gradientUnits="userSpaceOnUse">
<stop stop-color="#E7A800"/>
<stop offset="1" stop-color="#E7A800" stop-opacity="0.28"/>
</linearGradient>
<linearGradient id="paint33_linear_354_200" x1="337.056" y1="366.082" x2="337.056" y2="396.731" gradientUnits="userSpaceOnUse">
<stop stop-color="#E7A800"/>
<stop offset="1" stop-color="#E7A800" stop-opacity="0.28"/>
</linearGradient>
<linearGradient id="paint34_linear_354_200" x1="353.47" y1="336.319" x2="353.47" y2="366.967" gradientUnits="userSpaceOnUse">
<stop stop-color="#E7A800"/>
<stop offset="1" stop-color="#E7A800" stop-opacity="0.28"/>
</linearGradient>
<linearGradient id="paint35_linear_354_200" x1="367.296" y1="366.082" x2="367.296" y2="396.731" gradientUnits="userSpaceOnUse">
<stop stop-color="#E7A800"/>
<stop offset="1" stop-color="#E7A800" stop-opacity="0.28"/>
</linearGradient>
<linearGradient id="paint36_linear_354_200" x1="388.954" y1="353.492" x2="388.954" y2="371.481" gradientUnits="userSpaceOnUse">
<stop stop-color="#E7A800"/>
<stop offset="1" stop-color="#E7A800" stop-opacity="0.28"/>
</linearGradient>
<linearGradient id="paint37_linear_354_200" x1="280.935" y1="356.547" x2="280.935" y2="386.378" gradientUnits="userSpaceOnUse">
<stop stop-color="#E7A800"/>
<stop offset="1" stop-color="#E7A800" stop-opacity="0.28"/>
</linearGradient>
<linearGradient id="paint38_linear_354_200" x1="596.821" y1="52.7839" x2="596.821" y2="83.4327" gradientUnits="userSpaceOnUse">
<stop stop-color="#E7A800"/>
<stop offset="1" stop-color="#E7A800" stop-opacity="0.28"/>
</linearGradient>
<linearGradient id="paint39_linear_354_200" x1="567.058" y1="66.6099" x2="567.058" y2="97.2586" gradientUnits="userSpaceOnUse">
<stop stop-color="#E7A800"/>
<stop offset="1" stop-color="#E7A800" stop-opacity="0.28"/>
</linearGradient>
<linearGradient id="paint40_linear_354_200" x1="596.821" y1="83.0921" x2="596.821" y2="113.741" gradientUnits="userSpaceOnUse">
<stop stop-color="#E7A800"/>
<stop offset="1" stop-color="#E7A800" stop-opacity="0.28"/>
</linearGradient>
<linearGradient id="paint41_linear_354_200" x1="567.058" y1="96.9181" x2="567.058" y2="127.567" gradientUnits="userSpaceOnUse">
<stop stop-color="#E7A800"/>
<stop offset="1" stop-color="#E7A800" stop-opacity="0.28"/>
</linearGradient>
<linearGradient id="paint42_linear_354_200" x1="585.981" y1="112.242" x2="585.981" y2="155.559" gradientUnits="userSpaceOnUse">
<stop stop-color="#E7A800"/>
<stop offset="1" stop-color="#E7A800" stop-opacity="0.28"/>
</linearGradient>
<linearGradient id="paint43_linear_354_200" x1="549.622" y1="34.9395" x2="549.622" y2="65.5883" gradientUnits="userSpaceOnUse">
<stop stop-color="#E7A800"/>
<stop offset="1" stop-color="#E7A800" stop-opacity="0.28"/>
</linearGradient>
<linearGradient id="paint44_linear_354_200" x1="535.796" y1="5.17621" x2="535.796" y2="35.8249" gradientUnits="userSpaceOnUse">
<stop stop-color="#E7A800"/>
<stop offset="1" stop-color="#E7A800" stop-opacity="0.28"/>
</linearGradient>
<linearGradient id="paint45_linear_354_200" x1="519.314" y1="34.9395" x2="519.314" y2="65.5883" gradientUnits="userSpaceOnUse">
<stop stop-color="#E7A800"/>
<stop offset="1" stop-color="#E7A800" stop-opacity="0.28"/>
</linearGradient>
<linearGradient id="paint46_linear_354_200" x1="505.488" y1="5.17621" x2="505.488" y2="35.8249" gradientUnits="userSpaceOnUse">
<stop stop-color="#E7A800"/>
<stop offset="1" stop-color="#E7A800" stop-opacity="0.28"/>
</linearGradient>
<linearGradient id="paint47_linear_354_200" x1="483.829" y1="30.4258" x2="483.829" y2="48.4147" gradientUnits="userSpaceOnUse">
<stop stop-color="#E7A800"/>
<stop offset="1" stop-color="#E7A800" stop-opacity="0.28"/>
</linearGradient>
<linearGradient id="paint48_linear_354_200" x1="577.625" y1="26.1249" x2="606.177" y2="34.7701" gradientUnits="userSpaceOnUse">
<stop stop-color="#E7A800"/>
<stop offset="1" stop-color="#E7A800" stop-opacity="0.28"/>
</linearGradient>
<linearGradient id="paint49_linear_354_200" x1="526.976" y1="136.898" x2="526.976" y2="398.229" gradientUnits="userSpaceOnUse">
<stop stop-color="#E7A800"/>
<stop offset="1" stop-color="#E7A800" stop-opacity="0.28"/>
</linearGradient>
<linearGradient id="paint50_linear_354_200" x1="357.25" y1="1.7027" x2="357.25" y2="271.412" gradientUnits="userSpaceOnUse">
<stop stop-color="#E7A800"/>
<stop offset="1" stop-color="#E7A800" stop-opacity="0.28"/>
</linearGradient>
<clipPath id="clip0_354_200">
<rect width="400" height="400" fill="white" transform="translate(241.5)"/>
</clipPath>
</defs>
</svg>
