<svg width="761" height="400" viewBox="0 0 761 400" fill="none" xmlns="http://www.w3.org/2000/svg">
<g clip-path="url(#clip0_355_360)">
<path d="M405.189 130.632C405.257 130.564 405.325 130.496 405.394 130.427C405.462 130.359 405.53 130.291 405.598 130.223" stroke="url(#paint0_linear_355_360)" stroke-opacity="0.5" stroke-width="1.12223" stroke-miterlimit="10"/>
<path d="M344.164 191.725L343.96 191.929" stroke="url(#paint1_linear_355_360)" stroke-opacity="0.5" stroke-width="1.12223" stroke-miterlimit="10"/>
<path d="M440.946 105.227C440.878 106.317 440.878 107.407 440.946 108.428H440.878V218.423V245.871C440.878 262.353 434.884 277.473 424.941 289.12C414.18 303.218 398.651 313.434 380.806 317.521C377.946 318.202 374.949 318.679 371.952 319.019C377.742 318.27 383.122 316.022 387.549 312.685C387.617 312.617 387.685 312.549 387.822 312.481C389.456 311.255 391.023 309.824 392.385 308.258C403.35 297.088 410.093 281.832 410.093 264.941V125.728L448.642 87.1104C445.033 90.9244 442.444 95.7601 441.355 101.141C441.219 102.503 441.014 103.865 440.946 105.227Z" fill="url(#paint2_linear_355_360)" fill-opacity="0.5"/>
<path d="M440.946 105.227C440.878 106.317 440.878 107.407 440.946 108.428H440.878V218.423V245.871C440.878 262.353 434.884 277.473 424.941 289.12C414.18 303.218 398.651 313.434 380.806 317.521C377.946 318.202 374.949 318.679 371.952 319.019C377.742 318.27 383.122 316.022 387.549 312.685C387.617 312.617 387.685 312.549 387.822 312.481C389.456 311.255 391.023 309.824 392.385 308.258C403.35 297.088 410.093 281.832 410.093 264.941V125.728L448.642 87.1104C445.033 90.9244 442.444 95.7601 441.355 101.141C441.219 102.503 441.014 103.865 440.946 105.227Z" stroke="url(#paint3_linear_355_360)" stroke-opacity="0.5" stroke-width="1.12223" stroke-miterlimit="10" stroke-linejoin="bevel"/>
<path d="M410.297 125.523C409.139 126.681 406.62 129.269 405.666 130.155L410.297 125.523Z" stroke="url(#paint4_linear_355_360)" stroke-opacity="0.5" stroke-width="1.12223" stroke-miterlimit="10" stroke-linejoin="bevel"/>
<path d="M374.949 167.683V167.752" stroke="url(#paint5_linear_355_360)" stroke-opacity="0.5" stroke-width="1.12223" stroke-miterlimit="10"/>
<path d="M397.902 96.0328C397.902 99.7106 394.973 102.639 391.295 102.639C390.274 102.639 389.32 102.435 388.435 101.958C387.072 101.345 385.574 100.937 384.008 100.8C383.667 100.732 383.258 100.732 382.85 100.732C379.853 100.732 377.129 101.481 374.881 103.116L386.187 91.9463L387.209 90.9928C388.366 90.1074 389.797 89.5625 391.363 89.5625C392.521 89.5625 393.679 89.903 394.632 90.4479C396.539 91.4695 397.902 93.5809 397.902 96.0328Z" fill="url(#paint6_linear_355_360)" fill-opacity="0.5"/>
<path d="M397.902 96.0328C397.902 99.7106 394.973 102.639 391.295 102.639C390.274 102.639 389.32 102.435 388.435 101.958C387.072 101.345 385.574 100.937 384.008 100.8C383.667 100.732 383.258 100.732 382.85 100.732C379.853 100.732 377.129 101.481 374.881 103.116L386.187 91.9463L387.209 90.9928C388.366 90.1074 389.797 89.5625 391.363 89.5625C392.521 89.5625 393.679 89.903 394.632 90.4479C396.539 91.4695 397.902 93.5809 397.902 96.0328Z" fill="url(#paint7_linear_355_360)" fill-opacity="0.5" stroke="url(#paint8_linear_355_360)" stroke-opacity="0.5" stroke-width="1.12223" stroke-miterlimit="10" stroke-linejoin="bevel"/>
<path d="M398.719 253.567C395.586 251.115 392.181 248.936 388.639 247.097C388.23 246.893 387.754 246.62 387.345 246.416L387.277 246.348C383.395 244.441 379.308 242.942 375.017 241.784C369.569 240.354 363.916 239.605 358.058 239.605C353.291 239.605 348.659 240.082 344.232 241.035C341.576 241.58 338.92 242.329 336.4 243.215C341.236 238.856 344.232 232.59 344.232 225.711V147.999C344.232 145.956 343.483 144.185 342.189 142.755C341.031 141.529 339.533 140.644 337.83 140.371L344.232 133.969L373.383 104.819L375.017 103.184V209.229C375.29 212.089 375.766 214.882 376.448 217.674C379.24 229.593 385.302 240.286 393.543 248.8C395.109 250.434 396.88 252.001 398.719 253.567Z" fill="url(#paint9_linear_355_360)" fill-opacity="0.5"/>
<path d="M398.719 253.567C395.586 251.115 392.181 248.936 388.639 247.097C388.23 246.893 387.754 246.62 387.345 246.416L387.277 246.348C383.395 244.441 379.308 242.942 375.017 241.784C369.569 240.354 363.916 239.605 358.058 239.605C353.291 239.605 348.659 240.082 344.232 241.035C341.576 241.58 338.92 242.329 336.4 243.215C341.236 238.856 344.232 232.59 344.232 225.711V147.999C344.232 145.956 343.483 144.185 342.189 142.755C341.031 141.529 339.533 140.644 337.83 140.371L344.232 133.969L373.383 104.819L375.017 103.184V209.229C375.29 212.089 375.766 214.882 376.448 217.674C379.24 229.593 385.302 240.286 393.543 248.8C395.109 250.434 396.88 252.001 398.719 253.567Z" stroke="url(#paint10_linear_355_360)" stroke-opacity="0.5" stroke-width="1.12223" stroke-miterlimit="10" stroke-linejoin="bevel"/>
<path d="M402.874 145.956C403.214 146.705 403.35 147.523 403.35 148.408C403.35 152.086 400.354 155.015 396.744 155.015C394.292 155.015 392.112 153.652 391.023 151.677C390.478 150.724 390.137 149.634 390.137 148.408C390.137 146.842 390.682 145.411 391.568 144.322L391.636 144.253L392.589 143.3L392.657 143.232L405.257 130.632C402.942 133.084 401.511 136.353 401.511 139.963C401.511 140.371 401.511 140.712 401.58 141.121C401.716 142.619 402.056 143.981 402.601 145.275V145.343C402.669 145.548 402.805 145.752 402.874 145.956Z" fill="url(#paint11_linear_355_360)" fill-opacity="0.5"/>
<path d="M402.874 145.956C403.214 146.705 403.35 147.523 403.35 148.408C403.35 152.086 400.354 155.015 396.744 155.015C394.292 155.015 392.112 153.652 391.023 151.677C390.478 150.724 390.137 149.634 390.137 148.408C390.137 146.842 390.682 145.411 391.568 144.322L391.636 144.253L392.589 143.3L392.657 143.232L405.257 130.632C402.942 133.084 401.511 136.353 401.511 139.963C401.511 140.371 401.511 140.712 401.58 141.121C401.716 142.619 402.056 143.981 402.601 145.275V145.343C402.669 145.548 402.805 145.752 402.874 145.956Z" fill="url(#paint12_linear_355_360)" fill-opacity="0.5" stroke="url(#paint13_linear_355_360)" stroke-opacity="0.5" stroke-width="1.12223" stroke-miterlimit="10" stroke-linejoin="bevel"/>
<path d="M398.719 253.567C399.332 254.044 399.877 254.52 400.49 254.929C400.49 254.929 400.49 254.929 400.558 254.997C403.555 257.313 406.824 259.424 410.229 261.195" stroke="url(#paint14_linear_355_360)" stroke-opacity="0.5" stroke-width="1.12223" stroke-miterlimit="10"/>
<path d="M374.949 167.683C374.949 167.819 374.949 167.955 374.881 168.091" stroke="url(#paint15_linear_355_360)" stroke-opacity="0.5" stroke-width="1.12223" stroke-miterlimit="10"/>
<path d="M436.928 268.619L441.15 268.823C443.67 268.823 446.122 268.687 448.574 268.415C448.71 268.415 448.779 268.415 448.915 268.347" stroke="url(#paint16_linear_355_360)" stroke-opacity="0.5" stroke-width="1.12223" stroke-miterlimit="10"/>
<path d="M405.189 130.632C405.257 130.564 405.325 130.496 405.394 130.427C405.462 130.359 405.53 130.291 405.598 130.223" stroke="url(#paint17_linear_355_360)" stroke-opacity="0.5" stroke-width="1.12223" stroke-miterlimit="10"/>
<path d="M476.158 254.384C476.158 257.245 474.592 259.765 472.208 261.127C472.208 261.127 472.208 261.127 472.14 261.127C472.003 261.195 471.867 261.263 471.663 261.332C471.663 261.332 471.595 261.331 471.595 261.4C464.648 265.009 456.952 267.393 448.847 268.347C455.521 267.529 460.629 261.808 460.629 254.929V254.793C460.629 254.589 460.629 254.453 460.629 254.248C460.697 250.026 464.103 246.62 468.394 246.62C472.685 246.688 476.158 250.162 476.158 254.384Z" fill="url(#paint18_linear_355_360)" fill-opacity="0.5"/>
<path d="M476.158 254.384C476.158 257.245 474.592 259.765 472.208 261.127C472.208 261.127 472.208 261.127 472.14 261.127C472.003 261.195 471.867 261.263 471.663 261.332C471.663 261.332 471.595 261.331 471.595 261.4C464.648 265.009 456.952 267.393 448.847 268.347C455.521 267.529 460.629 261.808 460.629 254.929V254.793C460.629 254.589 460.629 254.453 460.629 254.248C460.697 250.026 464.103 246.62 468.394 246.62C472.685 246.688 476.158 250.162 476.158 254.384Z" fill="url(#paint19_linear_355_360)" fill-opacity="0.5" stroke="url(#paint20_linear_355_360)" stroke-opacity="0.5" stroke-width="1.12223" stroke-miterlimit="10" stroke-linejoin="bevel"/>
<path d="M324.821 190.839C324.072 195.062 320.054 197.854 315.831 197.105C315.286 197.037 314.81 196.833 314.333 196.697C314.333 196.697 314.333 196.697 314.265 196.697C314.197 196.628 314.06 196.628 313.992 196.56C313.992 196.56 313.924 196.56 313.924 196.492C312.971 196.084 312.017 195.811 310.995 195.607C306.568 194.79 302.209 196.288 299.213 199.217C298.464 199.898 297.782 200.715 297.238 201.6C297.169 201.737 297.101 201.873 297.033 202.009C297.578 200.987 298.191 199.966 298.804 199.012C302.414 193.291 306.909 188.183 311.949 183.892C312.153 183.756 312.29 183.62 312.494 183.415C312.494 183.415 312.562 183.415 312.562 183.347C314.197 182.121 316.376 181.508 318.555 181.917C322.778 182.666 325.571 186.685 324.821 190.839Z" fill="url(#paint21_linear_355_360)" fill-opacity="0.5"/>
<path d="M324.821 190.839C324.072 195.062 320.054 197.854 315.831 197.105C315.286 197.037 314.81 196.833 314.333 196.697C314.333 196.697 314.333 196.697 314.265 196.697C314.197 196.628 314.06 196.628 313.992 196.56C313.992 196.56 313.924 196.56 313.924 196.492C312.971 196.084 312.017 195.811 310.995 195.607C306.568 194.79 302.209 196.288 299.213 199.217C298.464 199.898 297.782 200.715 297.238 201.6C297.169 201.737 297.101 201.873 297.033 202.009C297.578 200.987 298.191 199.966 298.804 199.012C302.414 193.291 306.909 188.183 311.949 183.892C312.153 183.756 312.29 183.62 312.494 183.415C312.494 183.415 312.562 183.415 312.562 183.347C314.197 182.121 316.376 181.508 318.555 181.917C322.778 182.666 325.571 186.685 324.821 190.839Z" fill="url(#paint22_linear_355_360)" fill-opacity="0.5" stroke="url(#paint23_linear_355_360)" stroke-opacity="0.5" stroke-width="1.12223" stroke-miterlimit="10" stroke-linejoin="bevel"/>
<path d="M392.589 143.231L391.568 144.253C391.908 143.844 392.249 143.504 392.589 143.231Z" stroke="url(#paint24_linear_355_360)" stroke-opacity="0.5" stroke-width="1.12223" stroke-miterlimit="10"/>
<path d="M371.952 319.087C371.135 319.156 370.318 319.224 369.501 319.292C367.457 319.428 365.482 319.496 363.371 319.496C320.531 319.496 285.864 284.761 285.864 241.989C285.864 227.346 289.882 213.656 296.965 202.009" stroke="url(#paint25_linear_355_360)" stroke-opacity="0.5" stroke-width="1.12223" stroke-miterlimit="10" stroke-linejoin="round"/>
<path d="M380.466 317.725C380.534 317.657 380.67 317.589 380.738 317.521" stroke="url(#paint26_linear_355_360)" stroke-opacity="0.5" stroke-width="1.12223" stroke-miterlimit="10" stroke-linejoin="round"/>
<path d="M230.287 349.123C213.396 349.123 199.638 335.433 199.638 318.474C208.084 318.474 215.78 321.88 221.297 327.464C226.882 332.981 230.287 340.677 230.287 349.123Z" stroke="url(#paint27_linear_355_360)" stroke-opacity="0.5" stroke-width="2.80558" stroke-miterlimit="10"/>
<path d="M260.05 304.648C243.16 304.648 229.402 318.338 229.402 335.297C237.847 335.297 245.543 331.892 251.06 326.307C256.645 320.722 260.05 313.094 260.05 304.648Z" stroke="url(#paint28_linear_355_360)" stroke-opacity="0.5" stroke-width="2.80558" stroke-miterlimit="10"/>
<path d="M230.287 318.815C213.396 318.815 199.638 305.125 199.638 288.166C208.084 288.166 215.78 291.571 221.297 297.156C226.882 302.741 230.287 310.369 230.287 318.815Z" stroke="url(#paint29_linear_355_360)" stroke-opacity="0.5" stroke-width="2.80558" stroke-miterlimit="10"/>
<path d="M260.05 274.34C243.16 274.34 229.402 288.03 229.402 304.989C237.847 304.989 245.543 301.584 251.06 295.999C256.645 290.482 260.05 282.786 260.05 274.34Z" stroke="url(#paint30_linear_355_360)" stroke-opacity="0.5" stroke-width="2.80558" stroke-miterlimit="10"/>
<path d="M226.473 289.665C214.145 278.086 213.533 258.675 225.111 246.348C231.309 252.137 234.51 259.901 234.782 267.734C235.055 275.566 232.262 283.467 226.473 289.665Z" stroke="url(#paint31_linear_355_360)" stroke-opacity="0.5" stroke-width="2.80558" stroke-miterlimit="10"/>
<path d="M246.837 366.968C246.837 350.077 260.527 336.319 277.486 336.319C277.486 344.764 274.081 352.461 268.496 357.977C262.979 363.494 255.351 366.968 246.837 366.968Z" stroke="url(#paint32_linear_355_360)" stroke-opacity="0.5" stroke-width="2.80558" stroke-miterlimit="10"/>
<path d="M291.38 396.731C291.38 379.84 277.691 366.082 260.732 366.082C260.732 374.527 264.137 382.224 269.722 387.74C275.239 393.257 282.867 396.731 291.38 396.731Z" stroke="url(#paint33_linear_355_360)" stroke-opacity="0.5" stroke-width="2.80558" stroke-miterlimit="10"/>
<path d="M277.146 366.968C277.146 350.077 290.835 336.319 307.794 336.319C307.794 344.764 304.389 352.461 298.804 357.977C293.287 363.494 285.591 366.968 277.146 366.968Z" stroke="url(#paint34_linear_355_360)" stroke-opacity="0.5" stroke-width="2.80558" stroke-miterlimit="10"/>
<path d="M321.62 396.731C321.62 379.84 307.931 366.082 290.972 366.082C290.972 374.527 294.377 382.224 299.962 387.74C305.479 393.257 313.175 396.731 321.62 396.731Z" stroke="url(#paint35_linear_355_360)" stroke-opacity="0.5" stroke-width="2.80558" stroke-miterlimit="10"/>
<path d="M306.296 363.153C317.874 350.826 337.285 350.213 349.613 361.791C343.824 367.989 336.059 371.19 328.227 371.463C320.394 371.735 312.494 368.943 306.296 363.153Z" stroke="url(#paint36_linear_355_360)" stroke-opacity="0.5" stroke-width="2.80558" stroke-miterlimit="10"/>
<path d="M219.935 386.378C228.172 386.378 234.85 379.7 234.85 371.463C234.85 363.225 228.172 356.547 219.935 356.547C211.697 356.547 205.019 363.225 205.019 371.463C205.019 379.7 211.697 386.378 219.935 386.378Z" stroke="url(#paint37_linear_355_360)" stroke-opacity="0.5" stroke-width="2.80558" stroke-miterlimit="10"/>
<path d="M520.497 52.7842C537.387 52.7842 551.145 66.4739 551.145 83.4329C542.7 83.4329 535.004 80.0275 529.487 74.4426C523.97 68.9258 520.497 61.2296 520.497 52.7842Z" stroke="url(#paint38_linear_355_360)" stroke-opacity="0.5" stroke-width="2.80558" stroke-miterlimit="10"/>
<path d="M490.733 97.2586C507.624 97.2586 521.382 83.5688 521.382 66.6099C512.937 66.6099 505.24 70.0153 499.724 75.6002C494.207 81.1169 490.733 88.8132 490.733 97.2586Z" stroke="url(#paint39_linear_355_360)" stroke-opacity="0.5" stroke-width="2.80558" stroke-miterlimit="10"/>
<path d="M520.497 83.0923C537.387 83.0923 551.145 96.7821 551.145 113.741C542.7 113.741 535.004 110.336 529.487 104.751C523.97 99.1658 520.497 91.5377 520.497 83.0923Z" stroke="url(#paint40_linear_355_360)" stroke-opacity="0.5" stroke-width="2.80558" stroke-miterlimit="10"/>
<path d="M490.733 127.567C507.624 127.567 521.382 113.877 521.382 96.918C512.937 96.918 505.24 100.323 499.724 105.908C494.207 111.425 490.733 119.053 490.733 127.567Z" stroke="url(#paint41_linear_355_360)" stroke-opacity="0.5" stroke-width="2.80558" stroke-miterlimit="10"/>
<path d="M524.311 112.243C536.638 123.821 537.251 143.232 525.673 155.56C519.475 149.77 516.274 142.006 516.001 134.174C515.797 126.341 518.521 118.372 524.311 112.243Z" stroke="url(#paint42_linear_355_360)" stroke-opacity="0.5" stroke-width="2.80558" stroke-miterlimit="10"/>
<path d="M503.946 34.9395C503.946 51.8303 490.257 65.5882 473.298 65.5882C473.298 57.1428 476.703 49.4465 482.288 43.9297C487.805 38.3449 495.501 34.9395 503.946 34.9395Z" stroke="url(#paint43_linear_355_360)" stroke-opacity="0.5" stroke-width="2.80558" stroke-miterlimit="10"/>
<path d="M459.471 5.17627C459.471 22.0671 473.161 35.825 490.12 35.825C490.12 27.3796 486.715 19.6833 481.13 14.1666C475.545 8.58168 467.917 5.17627 459.471 5.17627Z" stroke="url(#paint44_linear_355_360)" stroke-opacity="0.5" stroke-width="2.80558" stroke-miterlimit="10"/>
<path d="M473.638 34.9395C473.638 51.8303 459.948 65.5882 442.989 65.5882C442.989 57.1428 446.395 49.4465 451.98 43.9297C457.565 38.3449 465.193 34.9395 473.638 34.9395Z" stroke="url(#paint45_linear_355_360)" stroke-opacity="0.5" stroke-width="2.80558" stroke-miterlimit="10"/>
<path d="M429.163 5.17627C429.163 22.0671 442.853 35.825 459.812 35.825C459.812 27.3796 456.407 19.6833 450.822 14.1666C445.305 8.58168 437.609 5.17627 429.163 5.17627Z" stroke="url(#paint46_linear_355_360)" stroke-opacity="0.5" stroke-width="2.80558" stroke-miterlimit="10"/>
<path d="M444.488 38.7536C432.909 51.0812 413.498 51.6941 401.171 40.1157C406.96 33.9179 414.724 30.7168 422.557 30.4443C430.389 30.1719 438.29 32.8962 444.488 38.7536Z" stroke="url(#paint47_linear_355_360)" stroke-opacity="0.5" stroke-width="2.80558" stroke-miterlimit="10"/>
<path d="M545.177 34.7699C547.553 26.9216 543.088 18.624 535.204 16.2367C527.319 13.8494 519.001 18.2765 516.625 26.1248C514.249 33.9731 518.714 42.2707 526.598 44.658C534.482 47.0453 542.8 42.6183 545.177 34.7699Z" stroke="url(#paint48_linear_355_360)" stroke-opacity="0.5" stroke-width="2.80558" stroke-miterlimit="10"/>
<path d="M568.513 136.897C575.188 156.717 578.729 177.899 578.729 199.966C578.729 309.484 489.916 398.229 380.466 398.229C371.203 398.229 362.145 397.616 353.223 396.39" stroke="url(#paint49_linear_355_360)" stroke-opacity="0.5" stroke-width="2.80558" stroke-miterlimit="10"/>
<path d="M195.416 271.411C186.902 249.276 182.203 225.166 182.203 199.966C182.203 90.5159 271.016 1.70264 380.466 1.70264C390.614 1.70264 400.558 2.45183 410.297 3.95021" stroke="url(#paint50_linear_355_360)" stroke-opacity="0.5" stroke-width="2.80558" stroke-miterlimit="10"/>
</g>
<path d="M38.2 131H8C8 131 8 132.2 8 132.6C11.2 134.4 12.6 137.2 12.6 144.4V257.8C12.6 264.8 11.2 267.8 8 269.6C8 270 8 271 8 271H32.8C32.8 271 32.8 270 32.8 269.6C29.8 267.8 28.4 264.8 28.4 257.8V212.8H38.2C77.6 212.8 103.8 200.2 103.8 172C103.8 143.6 77.6 131 38.2 131ZM38.2 211.2H28.4V132.6H38.2C74.2 132.6 88 148.4 88 172C88 195.4 74.2 211.2 38.2 211.2ZM163.059 174.8C141.859 174.8 136.259 204.2 134.259 228.4V174.8H132.659L113.859 179.2C113.859 179.2 113.859 180.2 113.859 180.6C117.859 181.2 118.459 183.2 118.459 190.2V257.8C118.459 264.8 117.059 267.8 113.859 269.6C113.859 270 113.859 271 113.859 271H138.659C138.659 271 138.659 270 138.659 269.6C135.659 267.8 134.259 264.8 134.259 257.8V250C134.259 233 136.859 181.4 156.459 178.4C167.259 176.8 172.859 191.6 173.259 203L174.659 203.8L186.859 186.6C180.059 178.6 173.859 174.8 163.059 174.8ZM245.208 174.8C218.408 174.8 191.008 194.8 191.008 227.8C191.008 255.8 214.008 272.2 241.008 272.2C267.808 272.2 295.208 251.2 295.208 219.2C295.208 191.6 272.008 174.8 245.208 174.8ZM256.408 268.6C233.608 275.4 214.808 258.2 207.808 234.2C200.808 210 207.008 185 229.808 178.4C252.608 171.8 271.408 188.8 278.408 212.8C285.408 237 279.208 262 256.408 268.6ZM371.172 174.8C343.172 174.8 332.972 206.4 329.372 229.6V174.8H327.972L309.172 179.2C309.172 179.2 309.172 180.2 309.172 180.6C312.972 181.2 313.572 183.2 313.572 190.2V320.2H314.972L333.772 315.8C333.772 315.8 333.772 314.8 333.772 314.4C329.972 313.8 329.372 311.8 329.372 304.8V270.4C332.772 271.4 336.772 272.2 341.172 272.2C363.572 272.2 409.572 263.8 408.372 214.2C407.572 188.8 387.572 174.8 371.172 174.8ZM341.372 271C334.972 271.2 330.372 269.6 329.372 269.2V241.4C329.372 224.6 339.972 182.8 362.372 178.4C379.572 175 391.772 194 392.772 211.4C395.572 262.4 360.572 270.8 341.372 271ZM476.848 174.8C450.048 174.8 422.648 194.8 422.648 227.8C422.648 255.8 445.648 272.2 472.648 272.2C499.448 272.2 526.848 251.2 526.848 219.2C526.848 191.6 503.648 174.8 476.848 174.8ZM488.048 268.6C465.248 275.4 446.448 258.2 439.448 234.2C432.448 210 438.648 185 461.448 178.4C484.248 171.8 503.048 188.8 510.048 212.8C517.048 237 510.848 262 488.048 268.6ZM575.358 174.8C553.558 174.8 546.358 186.6 544.758 199.6C539.958 238.8 609.758 227.2 605.958 253.4C604.758 262 593.958 269.4 579.558 269.4C561.758 269.4 546.758 252.8 539.958 238.8H538.958L534.758 258.8C545.558 266.8 557.558 272.2 573.758 272.2C596.158 272.2 610.958 260.4 612.158 244.6C614.358 212 546.958 219.2 549.758 192.4C550.758 184.2 558.358 176.6 571.958 176.6C583.358 176.6 596.158 189 602.358 206H603.358L607.358 187.6C599.358 181.4 585.758 174.8 575.358 174.8ZM715.559 269.6C712.559 267.8 711.159 264.8 711.159 257.8V208.2C711.159 183.6 693.559 174.8 676.959 174.8C650.159 174.8 643.959 199.6 649.159 211.2C633.759 217.6 621.559 229.6 624.959 250C627.559 264.4 643.559 272.2 659.959 272.2C679.159 272.2 690.159 260.6 695.359 243V271H715.559C715.559 271 715.559 270 715.559 269.6ZM675.159 176.8C689.359 176.8 695.359 190.2 695.359 205.4V206.8C691.959 205.8 687.959 205 683.359 205C673.959 205 661.959 206.4 651.159 210.4C645.159 194.2 657.159 176.8 675.159 176.8ZM664.759 269.6C654.759 270.2 643.159 263.6 640.559 252.8C631.959 217.6 661.559 206.8 683.359 206.8C689.559 206.8 694.359 208.2 695.359 208.6V239.4C691.359 253.8 682.159 268.6 664.759 269.6ZM749.684 257.8V126.8H748.284L729.484 131C729.484 131 729.484 132.2 729.484 132.6C733.284 133.2 733.884 135.2 733.884 142.2V257.8C733.884 264.8 732.484 267.8 729.484 269.6C729.484 270 729.484 271 729.484 271H754.084C754.084 271 754.084 270 754.084 269.6C751.084 267.8 749.684 264.8 749.684 257.8Z" fill="white"/>
<defs>
<linearGradient id="paint0_linear_355_360" x1="405.394" y1="130.223" x2="405.394" y2="130.632" gradientUnits="userSpaceOnUse">
<stop stop-color="#E7A800"/>
<stop offset="1" stop-color="#E7A800" stop-opacity="0.28"/>
</linearGradient>
<linearGradient id="paint1_linear_355_360" x1="344.062" y1="191.725" x2="344.062" y2="191.929" gradientUnits="userSpaceOnUse">
<stop stop-color="#E7A800"/>
<stop offset="1" stop-color="#E7A800" stop-opacity="0.28"/>
</linearGradient>
<linearGradient id="paint2_linear_355_360" x1="410.297" y1="87.1104" x2="410.297" y2="319.019" gradientUnits="userSpaceOnUse">
<stop stop-color="#E7A800"/>
<stop offset="1" stop-color="#E7A800" stop-opacity="0.28"/>
</linearGradient>
<linearGradient id="paint3_linear_355_360" x1="410.297" y1="87.1104" x2="410.297" y2="319.019" gradientUnits="userSpaceOnUse">
<stop stop-color="#E7A800"/>
<stop offset="1" stop-color="#E7A800" stop-opacity="0.28"/>
</linearGradient>
<linearGradient id="paint4_linear_355_360" x1="407.982" y1="125.523" x2="407.982" y2="130.155" gradientUnits="userSpaceOnUse">
<stop stop-color="#E7A800"/>
<stop offset="1" stop-color="#E7A800" stop-opacity="0.28"/>
</linearGradient>
<linearGradient id="paint5_linear_355_360" x1="375.449" y1="167.683" x2="375.449" y2="167.752" gradientUnits="userSpaceOnUse">
<stop stop-color="#E7A800"/>
<stop offset="1" stop-color="#E7A800" stop-opacity="0.28"/>
</linearGradient>
<linearGradient id="paint6_linear_355_360" x1="386.391" y1="89.5625" x2="386.391" y2="103.116" gradientUnits="userSpaceOnUse">
<stop stop-color="#E7A800"/>
<stop offset="1" stop-color="#E7A800" stop-opacity="0.28"/>
</linearGradient>
<linearGradient id="paint7_linear_355_360" x1="386.391" y1="89.5625" x2="386.391" y2="103.116" gradientUnits="userSpaceOnUse">
<stop stop-color="#E7A800"/>
<stop offset="1" stop-color="#E7A800" stop-opacity="0.28"/>
</linearGradient>
<linearGradient id="paint8_linear_355_360" x1="386.391" y1="89.5625" x2="386.391" y2="103.116" gradientUnits="userSpaceOnUse">
<stop stop-color="#E7A800"/>
<stop offset="1" stop-color="#E7A800" stop-opacity="0.28"/>
</linearGradient>
<linearGradient id="paint9_linear_355_360" x1="367.559" y1="103.184" x2="367.559" y2="253.567" gradientUnits="userSpaceOnUse">
<stop stop-color="#E7A800"/>
<stop offset="1" stop-color="#E7A800" stop-opacity="0.28"/>
</linearGradient>
<linearGradient id="paint10_linear_355_360" x1="367.559" y1="103.184" x2="367.559" y2="253.567" gradientUnits="userSpaceOnUse">
<stop stop-color="#E7A800"/>
<stop offset="1" stop-color="#E7A800" stop-opacity="0.28"/>
</linearGradient>
<linearGradient id="paint11_linear_355_360" x1="397.697" y1="130.632" x2="397.697" y2="155.015" gradientUnits="userSpaceOnUse">
<stop stop-color="#E7A800"/>
<stop offset="1" stop-color="#E7A800" stop-opacity="0.28"/>
</linearGradient>
<linearGradient id="paint12_linear_355_360" x1="397.697" y1="130.632" x2="397.697" y2="155.015" gradientUnits="userSpaceOnUse">
<stop stop-color="#E7A800"/>
<stop offset="1" stop-color="#E7A800" stop-opacity="0.28"/>
</linearGradient>
<linearGradient id="paint13_linear_355_360" x1="397.697" y1="130.632" x2="397.697" y2="155.015" gradientUnits="userSpaceOnUse">
<stop stop-color="#E7A800"/>
<stop offset="1" stop-color="#E7A800" stop-opacity="0.28"/>
</linearGradient>
<linearGradient id="paint14_linear_355_360" x1="404.474" y1="253.567" x2="404.474" y2="261.195" gradientUnits="userSpaceOnUse">
<stop stop-color="#E7A800"/>
<stop offset="1" stop-color="#E7A800" stop-opacity="0.28"/>
</linearGradient>
<linearGradient id="paint15_linear_355_360" x1="374.915" y1="167.683" x2="374.915" y2="168.091" gradientUnits="userSpaceOnUse">
<stop stop-color="#E7A800"/>
<stop offset="1" stop-color="#E7A800" stop-opacity="0.28"/>
</linearGradient>
<linearGradient id="paint16_linear_355_360" x1="442.921" y1="268.347" x2="442.921" y2="268.823" gradientUnits="userSpaceOnUse">
<stop stop-color="#E7A800"/>
<stop offset="1" stop-color="#E7A800" stop-opacity="0.28"/>
</linearGradient>
<linearGradient id="paint17_linear_355_360" x1="405.394" y1="130.223" x2="405.394" y2="130.632" gradientUnits="userSpaceOnUse">
<stop stop-color="#E7A800"/>
<stop offset="1" stop-color="#E7A800" stop-opacity="0.28"/>
</linearGradient>
<linearGradient id="paint18_linear_355_360" x1="462.502" y1="246.62" x2="462.502" y2="268.347" gradientUnits="userSpaceOnUse">
<stop stop-color="#E7A800"/>
<stop offset="1" stop-color="#E7A800" stop-opacity="0.28"/>
</linearGradient>
<linearGradient id="paint19_linear_355_360" x1="462.502" y1="246.62" x2="462.502" y2="268.347" gradientUnits="userSpaceOnUse">
<stop stop-color="#E7A800"/>
<stop offset="1" stop-color="#E7A800" stop-opacity="0.28"/>
</linearGradient>
<linearGradient id="paint20_linear_355_360" x1="462.502" y1="246.62" x2="462.502" y2="268.347" gradientUnits="userSpaceOnUse">
<stop stop-color="#E7A800"/>
<stop offset="1" stop-color="#E7A800" stop-opacity="0.28"/>
</linearGradient>
<linearGradient id="paint21_linear_355_360" x1="310.988" y1="181.791" x2="310.988" y2="202.009" gradientUnits="userSpaceOnUse">
<stop stop-color="#E7A800"/>
<stop offset="1" stop-color="#E7A800" stop-opacity="0.28"/>
</linearGradient>
<linearGradient id="paint22_linear_355_360" x1="310.988" y1="181.791" x2="310.988" y2="202.009" gradientUnits="userSpaceOnUse">
<stop stop-color="#E7A800"/>
<stop offset="1" stop-color="#E7A800" stop-opacity="0.28"/>
</linearGradient>
<linearGradient id="paint23_linear_355_360" x1="310.988" y1="181.791" x2="310.988" y2="202.009" gradientUnits="userSpaceOnUse">
<stop stop-color="#E7A800"/>
<stop offset="1" stop-color="#E7A800" stop-opacity="0.28"/>
</linearGradient>
<linearGradient id="paint24_linear_355_360" x1="392.078" y1="143.231" x2="392.078" y2="144.253" gradientUnits="userSpaceOnUse">
<stop stop-color="#E7A800"/>
<stop offset="1" stop-color="#E7A800" stop-opacity="0.28"/>
</linearGradient>
<linearGradient id="paint25_linear_355_360" x1="328.908" y1="202.009" x2="328.908" y2="319.496" gradientUnits="userSpaceOnUse">
<stop stop-color="#E7A800"/>
<stop offset="1" stop-color="#E7A800" stop-opacity="0.28"/>
</linearGradient>
<linearGradient id="paint26_linear_355_360" x1="380.602" y1="317.521" x2="380.602" y2="317.725" gradientUnits="userSpaceOnUse">
<stop stop-color="#E7A800"/>
<stop offset="1" stop-color="#E7A800" stop-opacity="0.28"/>
</linearGradient>
<linearGradient id="paint27_linear_355_360" x1="214.963" y1="318.474" x2="214.963" y2="349.123" gradientUnits="userSpaceOnUse">
<stop stop-color="#E7A800"/>
<stop offset="1" stop-color="#E7A800" stop-opacity="0.28"/>
</linearGradient>
<linearGradient id="paint28_linear_355_360" x1="244.726" y1="304.648" x2="244.726" y2="335.297" gradientUnits="userSpaceOnUse">
<stop stop-color="#E7A800"/>
<stop offset="1" stop-color="#E7A800" stop-opacity="0.28"/>
</linearGradient>
<linearGradient id="paint29_linear_355_360" x1="214.963" y1="288.166" x2="214.963" y2="318.815" gradientUnits="userSpaceOnUse">
<stop stop-color="#E7A800"/>
<stop offset="1" stop-color="#E7A800" stop-opacity="0.28"/>
</linearGradient>
<linearGradient id="paint30_linear_355_360" x1="244.726" y1="274.34" x2="244.726" y2="304.989" gradientUnits="userSpaceOnUse">
<stop stop-color="#E7A800"/>
<stop offset="1" stop-color="#E7A800" stop-opacity="0.28"/>
</linearGradient>
<linearGradient id="paint31_linear_355_360" x1="225.806" y1="246.348" x2="225.806" y2="289.665" gradientUnits="userSpaceOnUse">
<stop stop-color="#E7A800"/>
<stop offset="1" stop-color="#E7A800" stop-opacity="0.28"/>
</linearGradient>
<linearGradient id="paint32_linear_355_360" x1="262.162" y1="336.319" x2="262.162" y2="366.968" gradientUnits="userSpaceOnUse">
<stop stop-color="#E7A800"/>
<stop offset="1" stop-color="#E7A800" stop-opacity="0.28"/>
</linearGradient>
<linearGradient id="paint33_linear_355_360" x1="276.056" y1="366.082" x2="276.056" y2="396.731" gradientUnits="userSpaceOnUse">
<stop stop-color="#E7A800"/>
<stop offset="1" stop-color="#E7A800" stop-opacity="0.28"/>
</linearGradient>
<linearGradient id="paint34_linear_355_360" x1="292.47" y1="336.319" x2="292.47" y2="366.968" gradientUnits="userSpaceOnUse">
<stop stop-color="#E7A800"/>
<stop offset="1" stop-color="#E7A800" stop-opacity="0.28"/>
</linearGradient>
<linearGradient id="paint35_linear_355_360" x1="306.296" y1="366.082" x2="306.296" y2="396.731" gradientUnits="userSpaceOnUse">
<stop stop-color="#E7A800"/>
<stop offset="1" stop-color="#E7A800" stop-opacity="0.28"/>
</linearGradient>
<linearGradient id="paint36_linear_355_360" x1="327.954" y1="353.492" x2="327.954" y2="371.481" gradientUnits="userSpaceOnUse">
<stop stop-color="#E7A800"/>
<stop offset="1" stop-color="#E7A800" stop-opacity="0.28"/>
</linearGradient>
<linearGradient id="paint37_linear_355_360" x1="219.935" y1="356.547" x2="219.935" y2="386.378" gradientUnits="userSpaceOnUse">
<stop stop-color="#E7A800"/>
<stop offset="1" stop-color="#E7A800" stop-opacity="0.28"/>
</linearGradient>
<linearGradient id="paint38_linear_355_360" x1="535.821" y1="52.7842" x2="535.821" y2="83.4329" gradientUnits="userSpaceOnUse">
<stop stop-color="#E7A800"/>
<stop offset="1" stop-color="#E7A800" stop-opacity="0.28"/>
</linearGradient>
<linearGradient id="paint39_linear_355_360" x1="506.058" y1="66.6099" x2="506.058" y2="97.2586" gradientUnits="userSpaceOnUse">
<stop stop-color="#E7A800"/>
<stop offset="1" stop-color="#E7A800" stop-opacity="0.28"/>
</linearGradient>
<linearGradient id="paint40_linear_355_360" x1="535.821" y1="83.0923" x2="535.821" y2="113.741" gradientUnits="userSpaceOnUse">
<stop stop-color="#E7A800"/>
<stop offset="1" stop-color="#E7A800" stop-opacity="0.28"/>
</linearGradient>
<linearGradient id="paint41_linear_355_360" x1="506.058" y1="96.918" x2="506.058" y2="127.567" gradientUnits="userSpaceOnUse">
<stop stop-color="#E7A800"/>
<stop offset="1" stop-color="#E7A800" stop-opacity="0.28"/>
</linearGradient>
<linearGradient id="paint42_linear_355_360" x1="524.981" y1="112.243" x2="524.981" y2="155.56" gradientUnits="userSpaceOnUse">
<stop stop-color="#E7A800"/>
<stop offset="1" stop-color="#E7A800" stop-opacity="0.28"/>
</linearGradient>
<linearGradient id="paint43_linear_355_360" x1="488.622" y1="34.9395" x2="488.622" y2="65.5882" gradientUnits="userSpaceOnUse">
<stop stop-color="#E7A800"/>
<stop offset="1" stop-color="#E7A800" stop-opacity="0.28"/>
</linearGradient>
<linearGradient id="paint44_linear_355_360" x1="474.796" y1="5.17627" x2="474.796" y2="35.825" gradientUnits="userSpaceOnUse">
<stop stop-color="#E7A800"/>
<stop offset="1" stop-color="#E7A800" stop-opacity="0.28"/>
</linearGradient>
<linearGradient id="paint45_linear_355_360" x1="458.314" y1="34.9395" x2="458.314" y2="65.5882" gradientUnits="userSpaceOnUse">
<stop stop-color="#E7A800"/>
<stop offset="1" stop-color="#E7A800" stop-opacity="0.28"/>
</linearGradient>
<linearGradient id="paint46_linear_355_360" x1="444.488" y1="5.17627" x2="444.488" y2="35.825" gradientUnits="userSpaceOnUse">
<stop stop-color="#E7A800"/>
<stop offset="1" stop-color="#E7A800" stop-opacity="0.28"/>
</linearGradient>
<linearGradient id="paint47_linear_355_360" x1="422.829" y1="30.4258" x2="422.829" y2="48.4147" gradientUnits="userSpaceOnUse">
<stop stop-color="#E7A800"/>
<stop offset="1" stop-color="#E7A800" stop-opacity="0.28"/>
</linearGradient>
<linearGradient id="paint48_linear_355_360" x1="516.625" y1="26.1248" x2="545.177" y2="34.77" gradientUnits="userSpaceOnUse">
<stop stop-color="#E7A800"/>
<stop offset="1" stop-color="#E7A800" stop-opacity="0.28"/>
</linearGradient>
<linearGradient id="paint49_linear_355_360" x1="465.976" y1="136.897" x2="465.976" y2="398.229" gradientUnits="userSpaceOnUse">
<stop stop-color="#E7A800"/>
<stop offset="1" stop-color="#E7A800" stop-opacity="0.28"/>
</linearGradient>
<linearGradient id="paint50_linear_355_360" x1="296.25" y1="1.70264" x2="296.25" y2="271.411" gradientUnits="userSpaceOnUse">
<stop stop-color="#E7A800"/>
<stop offset="1" stop-color="#E7A800" stop-opacity="0.28"/>
</linearGradient>
<clipPath id="clip0_355_360">
<rect width="400" height="400" fill="white" transform="translate(180.5)"/>
</clipPath>
</defs>
</svg>
