<svg width="36" height="26" viewBox="0 0 36 26" fill="none" xmlns="http://www.w3.org/2000/svg">
<path d="M28.7241 12.104C26.9321 12.104 25.2681 12.744 23.9881 13.896C25.5241 9.03202 28.8521 5.06402 33.9721 0.712021L33.3321 0.0720215C26.1641 5.83202 21.8121 12.104 21.8121 19.016C21.8121 22.856 24.8841 25.928 28.7241 25.928C32.5641 25.928 35.6361 22.856 35.6361 19.016C35.6361 15.176 32.5641 12.104 28.7241 12.104ZM7.22011 12.104C5.42811 12.104 3.76411 12.744 2.61211 13.896C4.02011 9.03202 7.34811 5.06402 12.4681 0.712021L11.8281 0.0720215C4.6601 5.83202 0.308105 12.104 0.308105 19.016C0.308105 22.856 3.38011 25.928 7.22011 25.928C11.0601 25.928 14.1321 22.856 14.1321 19.016C14.1321 15.176 11.0601 12.104 7.22011 12.104Z" fill="#A90000"/>
</svg>
