<svg width="36" height="26" viewBox="0 0 36 26" fill="none" xmlns="http://www.w3.org/2000/svg">
<path d="M7.27589 12.104C9.06789 12.104 10.7319 12.744 12.0119 13.896C10.4759 9.03202 7.14789 5.06402 2.02789 0.712021L2.66789 0.0720215C9.83589 5.83202 14.1879 12.104 14.1879 19.016C14.1879 22.856 11.1159 25.928 7.27589 25.928C3.43589 25.928 0.363892 22.856 0.363892 19.016C0.363892 15.176 3.43589 12.104 7.27589 12.104ZM28.7799 12.104C30.5719 12.104 32.2359 12.744 33.3879 13.896C31.9799 9.03202 28.6519 5.06402 23.5319 0.712021L24.1719 0.0720215C31.3399 5.83202 35.6919 12.104 35.6919 19.016C35.6919 22.856 32.6199 25.928 28.7799 25.928C24.9399 25.928 21.8679 22.856 21.8679 19.016C21.8679 15.176 24.9399 12.104 28.7799 12.104Z" fill="#A90000"/>
</svg>
