<svg width="461" height="400" viewBox="0 0 461 400" fill="none" xmlns="http://www.w3.org/2000/svg">
<g clip-path="url(#clip0_318_291)">
<path d="M254.951 130.632C255.019 130.564 255.087 130.496 255.155 130.428C255.223 130.36 255.291 130.292 255.359 130.224" stroke="url(#paint0_linear_318_291)" stroke-opacity="0.5" stroke-width="1.12223" stroke-miterlimit="10"/>
<path d="M193.926 191.726L193.721 191.93" stroke="url(#paint1_linear_318_291)" stroke-opacity="0.5" stroke-width="1.12223" stroke-miterlimit="10"/>
<path d="M290.708 105.228C290.639 106.318 290.639 107.408 290.708 108.429H290.639V218.424V245.872C290.639 262.354 284.646 277.474 274.702 289.121C263.941 303.219 248.412 313.435 230.568 317.522C227.707 318.203 224.711 318.68 221.714 319.02C227.503 318.271 232.884 316.023 237.311 312.686C237.379 312.618 237.447 312.55 237.583 312.482C239.218 311.256 240.784 309.825 242.146 308.259C253.112 297.089 259.855 281.833 259.855 264.942V125.729L298.404 87.1113C294.794 90.9254 292.206 95.7611 291.116 101.142C290.98 102.504 290.776 103.866 290.708 105.228Z" fill="url(#paint2_linear_318_291)" fill-opacity="0.5"/>
<path d="M290.708 105.228C290.639 106.318 290.639 107.408 290.708 108.429H290.639V218.424V245.872C290.639 262.354 284.646 277.474 274.702 289.121C263.941 303.219 248.412 313.435 230.568 317.522C227.707 318.203 224.711 318.68 221.714 319.02C227.503 318.271 232.884 316.023 237.311 312.686C237.379 312.618 237.447 312.55 237.583 312.482C239.218 311.256 240.784 309.825 242.146 308.259C253.112 297.089 259.855 281.833 259.855 264.942V125.729L298.404 87.1113C294.794 90.9254 292.206 95.7611 291.116 101.142C290.98 102.504 290.776 103.866 290.708 105.228Z" stroke="url(#paint3_linear_318_291)" stroke-opacity="0.5" stroke-width="1.12223" stroke-miterlimit="10" stroke-linejoin="bevel"/>
<path d="M260.059 125.524C258.901 126.682 256.381 129.27 255.427 130.156L260.059 125.524Z" stroke="url(#paint4_linear_318_291)" stroke-opacity="0.5" stroke-width="1.12223" stroke-miterlimit="10" stroke-linejoin="bevel"/>
<path d="M224.711 167.683V167.752" stroke="url(#paint5_linear_318_291)" stroke-opacity="0.5" stroke-width="1.12223" stroke-miterlimit="10"/>
<path d="M247.663 96.0328C247.663 99.7106 244.734 102.639 241.057 102.639C240.035 102.639 239.081 102.435 238.196 101.958C236.834 101.345 235.336 100.937 233.769 100.8C233.428 100.732 233.02 100.732 232.611 100.732C229.614 100.732 226.89 101.481 224.643 103.116L235.948 91.9463L236.97 90.9928C238.128 90.1074 239.558 89.5625 241.125 89.5625C242.283 89.5625 243.44 89.903 244.394 90.4479C246.301 91.4695 247.663 93.5809 247.663 96.0328Z" fill="url(#paint6_linear_318_291)" fill-opacity="0.5"/>
<path d="M247.663 96.0328C247.663 99.7106 244.734 102.639 241.057 102.639C240.035 102.639 239.081 102.435 238.196 101.958C236.834 101.345 235.336 100.937 233.769 100.8C233.428 100.732 233.02 100.732 232.611 100.732C229.614 100.732 226.89 101.481 224.643 103.116L235.948 91.9463L236.97 90.9928C238.128 90.1074 239.558 89.5625 241.125 89.5625C242.283 89.5625 243.44 89.903 244.394 90.4479C246.301 91.4695 247.663 93.5809 247.663 96.0328Z" fill="url(#paint7_linear_318_291)" fill-opacity="0.5" stroke="url(#paint8_linear_318_291)" stroke-opacity="0.5" stroke-width="1.12223" stroke-miterlimit="10" stroke-linejoin="bevel"/>
<path d="M248.48 253.568C245.347 251.116 241.942 248.936 238.4 247.097C237.992 246.893 237.515 246.621 237.106 246.416L237.038 246.348C233.156 244.441 229.07 242.943 224.779 241.785C219.33 240.355 213.677 239.605 207.82 239.605C203.052 239.605 198.421 240.082 193.994 241.036C191.338 241.581 188.681 242.33 186.161 243.215C190.997 238.856 193.994 232.59 193.994 225.711V148C193.994 145.957 193.245 144.186 191.951 142.755C190.793 141.53 189.294 140.644 187.592 140.372L193.994 133.97L223.144 104.819L224.779 103.185V209.229C225.051 212.09 225.528 214.882 226.209 217.675C229.001 229.594 235.063 240.287 243.304 248.8C244.871 250.435 246.641 252.001 248.48 253.568Z" fill="url(#paint9_linear_318_291)" fill-opacity="0.5"/>
<path d="M248.48 253.568C245.347 251.116 241.942 248.936 238.4 247.097C237.992 246.893 237.515 246.621 237.106 246.416L237.038 246.348C233.156 244.441 229.07 242.943 224.779 241.785C219.33 240.355 213.677 239.605 207.82 239.605C203.052 239.605 198.421 240.082 193.994 241.036C191.338 241.581 188.681 242.33 186.161 243.215C190.997 238.856 193.994 232.59 193.994 225.711V148C193.994 145.957 193.245 144.186 191.951 142.755C190.793 141.53 189.294 140.644 187.592 140.372L193.994 133.97L223.144 104.819L224.779 103.185V209.229C225.051 212.09 225.528 214.882 226.209 217.675C229.001 229.594 235.063 240.287 243.304 248.8C244.871 250.435 246.641 252.001 248.48 253.568Z" stroke="url(#paint10_linear_318_291)" stroke-opacity="0.5" stroke-width="1.12223" stroke-miterlimit="10" stroke-linejoin="bevel"/>
<path d="M252.635 145.956C252.976 146.705 253.112 147.523 253.112 148.408C253.112 152.086 250.115 155.015 246.505 155.015C244.053 155.015 241.874 153.652 240.784 151.677C240.239 150.724 239.899 149.634 239.899 148.408C239.899 146.842 240.444 145.411 241.329 144.322L241.397 144.253L242.351 143.3L242.419 143.232L255.019 130.632C252.703 133.084 251.273 136.353 251.273 139.963C251.273 140.371 251.273 140.712 251.341 141.121C251.477 142.619 251.818 143.981 252.363 145.275V145.343C252.431 145.548 252.567 145.752 252.635 145.956Z" fill="url(#paint11_linear_318_291)" fill-opacity="0.5"/>
<path d="M252.635 145.956C252.976 146.705 253.112 147.523 253.112 148.408C253.112 152.086 250.115 155.015 246.505 155.015C244.053 155.015 241.874 153.652 240.784 151.677C240.239 150.724 239.899 149.634 239.899 148.408C239.899 146.842 240.444 145.411 241.329 144.322L241.397 144.253L242.351 143.3L242.419 143.232L255.019 130.632C252.703 133.084 251.273 136.353 251.273 139.963C251.273 140.371 251.273 140.712 251.341 141.121C251.477 142.619 251.818 143.981 252.363 145.275V145.343C252.431 145.548 252.567 145.752 252.635 145.956Z" fill="url(#paint12_linear_318_291)" fill-opacity="0.5" stroke="url(#paint13_linear_318_291)" stroke-opacity="0.5" stroke-width="1.12223" stroke-miterlimit="10" stroke-linejoin="bevel"/>
<path d="M248.48 253.567C249.093 254.044 249.638 254.521 250.251 254.93C250.251 254.93 250.251 254.93 250.319 254.998C253.316 257.313 256.585 259.425 259.991 261.196" stroke="url(#paint14_linear_318_291)" stroke-opacity="0.5" stroke-width="1.12223" stroke-miterlimit="10"/>
<path d="M224.711 167.683C224.711 167.819 224.711 167.955 224.643 168.091" stroke="url(#paint15_linear_318_291)" stroke-opacity="0.5" stroke-width="1.12223" stroke-miterlimit="10"/>
<path d="M286.689 268.619L290.912 268.823C293.432 268.823 295.884 268.687 298.336 268.415C298.472 268.415 298.54 268.415 298.676 268.347" stroke="url(#paint16_linear_318_291)" stroke-opacity="0.5" stroke-width="1.12223" stroke-miterlimit="10"/>
<path d="M254.951 130.632C255.019 130.564 255.087 130.496 255.155 130.428C255.223 130.36 255.291 130.292 255.359 130.224" stroke="url(#paint17_linear_318_291)" stroke-opacity="0.5" stroke-width="1.12223" stroke-miterlimit="10"/>
<path d="M325.92 254.384C325.92 257.245 324.353 259.765 321.969 261.127C321.969 261.127 321.969 261.127 321.901 261.127C321.765 261.195 321.629 261.263 321.424 261.332C321.424 261.332 321.356 261.331 321.356 261.4C314.409 265.009 306.713 267.393 298.608 268.347C305.283 267.529 310.391 261.808 310.391 254.929V254.793C310.391 254.589 310.391 254.453 310.391 254.248C310.459 250.026 313.864 246.62 318.155 246.62C322.446 246.688 325.92 250.162 325.92 254.384Z" fill="url(#paint18_linear_318_291)" fill-opacity="0.5"/>
<path d="M325.92 254.384C325.92 257.245 324.353 259.765 321.969 261.127C321.969 261.127 321.969 261.127 321.901 261.127C321.765 261.195 321.629 261.263 321.424 261.332C321.424 261.332 321.356 261.331 321.356 261.4C314.409 265.009 306.713 267.393 298.608 268.347C305.283 267.529 310.391 261.808 310.391 254.929V254.793C310.391 254.589 310.391 254.453 310.391 254.248C310.459 250.026 313.864 246.62 318.155 246.62C322.446 246.688 325.92 250.162 325.92 254.384Z" fill="url(#paint19_linear_318_291)" fill-opacity="0.5" stroke="url(#paint20_linear_318_291)" stroke-opacity="0.5" stroke-width="1.12223" stroke-miterlimit="10" stroke-linejoin="bevel"/>
<path d="M174.583 190.84C173.834 195.063 169.815 197.855 165.593 197.106C165.048 197.038 164.571 196.834 164.094 196.698C164.094 196.698 164.094 196.698 164.026 196.698C163.958 196.629 163.822 196.629 163.754 196.561C163.754 196.561 163.686 196.561 163.686 196.493C162.732 196.085 161.779 195.812 160.757 195.608C156.33 194.791 151.971 196.289 148.974 199.218C148.225 199.899 147.544 200.716 146.999 201.601C146.931 201.738 146.863 201.874 146.795 202.01C147.34 200.988 147.953 199.967 148.566 199.013C152.175 193.292 156.67 188.184 161.71 183.893C161.915 183.757 162.051 183.621 162.255 183.416C162.255 183.416 162.323 183.416 162.323 183.348C163.958 182.122 166.138 181.509 168.317 181.918C172.54 182.667 175.332 186.686 174.583 190.84Z" fill="url(#paint21_linear_318_291)" fill-opacity="0.5"/>
<path d="M174.583 190.84C173.834 195.063 169.815 197.855 165.593 197.106C165.048 197.038 164.571 196.834 164.094 196.698C164.094 196.698 164.094 196.698 164.026 196.698C163.958 196.629 163.822 196.629 163.754 196.561C163.754 196.561 163.686 196.561 163.686 196.493C162.732 196.085 161.779 195.812 160.757 195.608C156.33 194.791 151.971 196.289 148.974 199.218C148.225 199.899 147.544 200.716 146.999 201.601C146.931 201.738 146.863 201.874 146.795 202.01C147.34 200.988 147.953 199.967 148.566 199.013C152.175 193.292 156.67 188.184 161.71 183.893C161.915 183.757 162.051 183.621 162.255 183.416C162.255 183.416 162.323 183.416 162.323 183.348C163.958 182.122 166.138 181.509 168.317 181.918C172.54 182.667 175.332 186.686 174.583 190.84Z" fill="url(#paint22_linear_318_291)" fill-opacity="0.5" stroke="url(#paint23_linear_318_291)" stroke-opacity="0.5" stroke-width="1.12223" stroke-miterlimit="10" stroke-linejoin="bevel"/>
<path d="M242.351 143.232L241.329 144.254C241.67 143.845 242.01 143.505 242.351 143.232Z" stroke="url(#paint24_linear_318_291)" stroke-opacity="0.5" stroke-width="1.12223" stroke-miterlimit="10"/>
<path d="M221.714 319.088C220.897 319.156 220.079 319.224 219.262 319.292C217.219 319.428 215.244 319.497 213.132 319.497C170.292 319.497 135.625 284.761 135.625 241.989C135.625 227.346 139.643 213.656 146.727 202.01" stroke="url(#paint25_linear_318_291)" stroke-opacity="0.5" stroke-width="1.12223" stroke-miterlimit="10" stroke-linejoin="round"/>
<path d="M230.227 317.726C230.296 317.658 230.432 317.59 230.5 317.521" stroke="url(#paint26_linear_318_291)" stroke-opacity="0.5" stroke-width="1.12223" stroke-miterlimit="10" stroke-linejoin="round"/>
<path d="M80.0486 349.123C63.1578 349.123 49.3999 335.434 49.3999 318.475C57.8453 318.475 65.5416 321.88 71.0583 327.465C76.6432 332.982 80.0486 340.678 80.0486 349.123Z" stroke="url(#paint27_linear_318_291)" stroke-opacity="0.5" stroke-width="2.80558" stroke-miterlimit="10"/>
<path d="M109.812 304.648C92.9211 304.648 79.1632 318.338 79.1632 335.297C87.6086 335.297 95.3049 331.892 100.822 326.307C106.407 320.722 109.812 313.094 109.812 304.648Z" stroke="url(#paint28_linear_318_291)" stroke-opacity="0.5" stroke-width="2.80558" stroke-miterlimit="10"/>
<path d="M80.0486 318.816C63.1578 318.816 49.3999 305.126 49.3999 288.167C57.8453 288.167 65.5416 291.572 71.0583 297.157C76.6432 302.742 80.0486 310.37 80.0486 318.816Z" stroke="url(#paint29_linear_318_291)" stroke-opacity="0.5" stroke-width="2.80558" stroke-miterlimit="10"/>
<path d="M109.812 274.341C92.9211 274.341 79.1632 288.031 79.1632 304.99C87.6086 304.99 95.3049 301.584 100.822 295.999C106.407 290.482 109.812 282.786 109.812 274.341Z" stroke="url(#paint30_linear_318_291)" stroke-opacity="0.5" stroke-width="2.80558" stroke-miterlimit="10"/>
<path d="M76.2346 289.665C63.907 278.086 63.294 258.675 74.8724 246.348C81.0702 252.137 84.2713 259.901 84.5438 267.734C84.8162 275.566 82.0238 283.467 76.2346 289.665Z" stroke="url(#paint31_linear_318_291)" stroke-opacity="0.5" stroke-width="2.80558" stroke-miterlimit="10"/>
<path d="M96.5989 366.968C96.5989 350.077 110.289 336.319 127.248 336.319C127.248 344.765 123.842 352.461 118.257 357.978C112.741 363.495 105.112 366.968 96.5989 366.968Z" stroke="url(#paint32_linear_318_291)" stroke-opacity="0.5" stroke-width="2.80558" stroke-miterlimit="10"/>
<path d="M141.142 396.731C141.142 379.84 127.452 366.082 110.493 366.082C110.493 374.527 113.898 382.224 119.483 387.74C125 393.257 132.628 396.731 141.142 396.731Z" stroke="url(#paint33_linear_318_291)" stroke-opacity="0.5" stroke-width="2.80558" stroke-miterlimit="10"/>
<path d="M126.907 366.968C126.907 350.077 140.597 336.319 157.556 336.319C157.556 344.765 154.15 352.461 148.566 357.978C143.049 363.495 135.353 366.968 126.907 366.968Z" stroke="url(#paint34_linear_318_291)" stroke-opacity="0.5" stroke-width="2.80558" stroke-miterlimit="10"/>
<path d="M171.382 396.731C171.382 379.84 157.692 366.082 140.733 366.082C140.733 374.527 144.139 382.224 149.723 387.74C155.24 393.257 162.936 396.731 171.382 396.731Z" stroke="url(#paint35_linear_318_291)" stroke-opacity="0.5" stroke-width="2.80558" stroke-miterlimit="10"/>
<path d="M156.057 363.154C167.636 350.827 187.047 350.214 199.374 361.792C193.585 367.99 185.821 371.191 177.988 371.464C170.156 371.736 162.255 368.944 156.057 363.154Z" stroke="url(#paint36_linear_318_291)" stroke-opacity="0.5" stroke-width="2.80558" stroke-miterlimit="10"/>
<path d="M69.6962 386.378C77.9339 386.378 84.6119 379.7 84.6119 371.463C84.6119 363.225 77.9339 356.547 69.6962 356.547C61.4584 356.547 54.7804 363.225 54.7804 371.463C54.7804 379.7 61.4584 386.378 69.6962 386.378Z" stroke="url(#paint37_linear_318_291)" stroke-opacity="0.5" stroke-width="2.80558" stroke-miterlimit="10"/>
<path d="M370.258 52.7842C387.149 52.7842 400.907 66.4739 400.907 83.4329C392.461 83.4329 384.765 80.0275 379.248 74.4426C373.732 68.9258 370.258 61.2296 370.258 52.7842Z" stroke="url(#paint38_linear_318_291)" stroke-opacity="0.5" stroke-width="2.80558" stroke-miterlimit="10"/>
<path d="M340.495 97.2591C357.386 97.2591 371.143 83.5693 371.143 66.6104C362.698 66.6104 355.002 70.0158 349.485 75.6006C343.968 81.1174 340.495 88.8137 340.495 97.2591Z" stroke="url(#paint39_linear_318_291)" stroke-opacity="0.5" stroke-width="2.80558" stroke-miterlimit="10"/>
<path d="M370.258 83.0928C387.149 83.0928 400.907 96.7825 400.907 113.742C392.461 113.742 384.765 110.336 379.248 104.751C373.732 99.1663 370.258 91.5382 370.258 83.0928Z" stroke="url(#paint40_linear_318_291)" stroke-opacity="0.5" stroke-width="2.80558" stroke-miterlimit="10"/>
<path d="M340.495 127.568C357.386 127.568 371.143 113.878 371.143 96.9189C362.698 96.9189 355.002 100.324 349.485 105.909C343.968 111.426 340.495 119.054 340.495 127.568Z" stroke="url(#paint41_linear_318_291)" stroke-opacity="0.5" stroke-width="2.80558" stroke-miterlimit="10"/>
<path d="M374.072 112.243C386.4 123.822 387.013 143.232 375.434 155.56C369.236 149.771 366.035 142.006 365.763 134.174C365.559 126.342 368.283 118.373 374.072 112.243Z" stroke="url(#paint42_linear_318_291)" stroke-opacity="0.5" stroke-width="2.80558" stroke-miterlimit="10"/>
<path d="M353.708 34.9404C353.708 51.8313 340.018 65.5892 323.059 65.5892C323.059 57.1437 326.464 49.4475 332.049 43.9307C337.566 38.3458 345.262 34.9404 353.708 34.9404Z" stroke="url(#paint43_linear_318_291)" stroke-opacity="0.5" stroke-width="2.80558" stroke-miterlimit="10"/>
<path d="M309.233 5.17676C309.233 22.0676 322.923 35.8255 339.882 35.8255C339.882 27.3801 336.476 19.6838 330.891 14.1671C325.307 8.58217 317.678 5.17676 309.233 5.17676Z" stroke="url(#paint44_linear_318_291)" stroke-opacity="0.5" stroke-width="2.80558" stroke-miterlimit="10"/>
<path d="M323.4 34.9404C323.4 51.8313 309.71 65.5892 292.751 65.5892C292.751 57.1437 296.156 49.4475 301.741 43.9307C307.326 38.3458 314.954 34.9404 323.4 34.9404Z" stroke="url(#paint45_linear_318_291)" stroke-opacity="0.5" stroke-width="2.80558" stroke-miterlimit="10"/>
<path d="M278.925 5.17676C278.925 22.0676 292.615 35.8255 309.574 35.8255C309.574 27.3801 306.168 19.6838 300.583 14.1671C295.067 8.58217 287.37 5.17676 278.925 5.17676Z" stroke="url(#paint46_linear_318_291)" stroke-opacity="0.5" stroke-width="2.80558" stroke-miterlimit="10"/>
<path d="M294.249 38.7545C282.671 51.0821 263.26 51.6951 250.932 40.1167C256.722 33.9188 264.486 30.7178 272.318 30.4453C280.151 30.1729 288.051 32.8972 294.249 38.7545Z" stroke="url(#paint47_linear_318_291)" stroke-opacity="0.5" stroke-width="2.80558" stroke-miterlimit="10"/>
<path d="M394.938 34.7704C397.315 26.9221 392.85 18.6245 384.965 16.2372C377.081 13.8499 368.763 18.277 366.387 26.1253C364.01 33.9736 368.475 42.2712 376.36 44.6585C384.244 47.0458 392.562 42.6188 394.938 34.7704Z" stroke="url(#paint48_linear_318_291)" stroke-opacity="0.5" stroke-width="2.80558" stroke-miterlimit="10"/>
<path d="M418.274 136.898C424.949 156.718 428.491 177.9 428.491 199.967C428.491 309.485 339.677 398.23 230.227 398.23C220.965 398.23 211.906 397.617 202.984 396.391" stroke="url(#paint49_linear_318_291)" stroke-opacity="0.5" stroke-width="2.80558" stroke-miterlimit="10"/>
<path d="M45.1772 271.412C36.6636 249.277 31.9642 225.166 31.9642 199.966C31.9642 90.5163 120.777 1.70312 230.227 1.70312C240.376 1.70312 250.319 2.45232 260.059 3.9507" stroke="url(#paint50_linear_318_291)" stroke-opacity="0.5" stroke-width="2.80558" stroke-miterlimit="10"/>
</g>
<path d="M88.8 218.189L70.8 186.589C90.8 181.989 105.8 170.589 105.8 151.789C105.8 125.589 77.8 113.989 46.8 113.989H8C8 113.989 8 115.189 8 115.589C11 117.389 12.4 120.189 12.4 127.389V240.789C12.4 247.789 11 250.789 8 252.589C8 252.989 8 253.989 8 253.989H32.6C32.6 253.989 32.6 252.989 32.6 252.589C29.6 250.789 28.2 247.789 28.2 240.789V189.389H46.8C49.8 189.389 52.8 189.189 55.8 188.989L77.2 226.389C85 240.189 89.2 247.389 84 252.589V253.989H114.8V252.589C107 245.589 100.6 238.789 88.8 218.189ZM46.8 187.789H28.2V115.589H46.8C84.8 115.589 90 136.189 90 151.789C90 167.189 84.6 187.789 46.8 187.789ZM178.491 111.989C146.291 111.989 133.291 132.189 133.291 148.389C133.291 198.589 219.291 184.989 214.091 227.589C212.491 240.189 198.291 251.189 181.291 251.189C155.091 251.189 136.491 232.989 126.291 212.589H124.891L118.891 235.389C134.491 247.189 149.291 255.189 173.091 255.189C201.491 255.189 222.891 238.389 222.891 214.589C222.891 164.589 137.091 177.789 140.891 137.789C142.091 125.789 153.491 114.589 173.291 114.589C189.091 114.589 203.691 124.789 215.091 151.589H216.491L222.491 130.789C210.691 121.589 193.891 111.989 178.491 111.989ZM349.153 115.589V113.989H325.353V115.589C333.953 124.589 332.953 134.389 326.553 152.389L297.353 234.789L261.753 142.389C256.153 127.789 254.553 120.789 259.553 115.589V113.989H228.953V115.589C236.353 124.589 243.753 136.989 249.753 152.389C255.753 167.989 288.953 253.989 288.953 253.989H304.753L298.153 236.789L328.153 152.389C334.753 133.789 340.553 124.589 349.153 115.589ZM389.372 113.989H359.172C359.172 113.989 359.172 115.189 359.172 115.589C362.372 117.389 363.772 120.189 363.772 127.389V240.789C363.772 247.789 362.372 250.789 359.172 252.589C359.172 252.989 359.172 253.989 359.172 253.989H383.972C383.972 253.989 383.972 252.989 383.972 252.589C380.972 250.789 379.572 247.789 379.572 240.789V195.789H389.372C428.772 195.789 454.972 183.189 454.972 154.989C454.972 126.589 428.772 113.989 389.372 113.989ZM389.372 194.189H379.572V115.589H389.372C425.372 115.589 439.172 131.389 439.172 154.989C439.172 178.389 425.372 194.189 389.372 194.189Z" fill="white"/>
<defs>
<linearGradient id="paint0_linear_318_291" x1="255.155" y1="130.224" x2="255.155" y2="130.632" gradientUnits="userSpaceOnUse">
<stop stop-color="#E7A800"/>
<stop offset="1" stop-color="#E7A800" stop-opacity="0.28"/>
</linearGradient>
<linearGradient id="paint1_linear_318_291" x1="193.824" y1="191.726" x2="193.824" y2="191.93" gradientUnits="userSpaceOnUse">
<stop stop-color="#E7A800"/>
<stop offset="1" stop-color="#E7A800" stop-opacity="0.28"/>
</linearGradient>
<linearGradient id="paint2_linear_318_291" x1="260.059" y1="87.1113" x2="260.059" y2="319.02" gradientUnits="userSpaceOnUse">
<stop stop-color="#E7A800"/>
<stop offset="1" stop-color="#E7A800" stop-opacity="0.28"/>
</linearGradient>
<linearGradient id="paint3_linear_318_291" x1="260.059" y1="87.1113" x2="260.059" y2="319.02" gradientUnits="userSpaceOnUse">
<stop stop-color="#E7A800"/>
<stop offset="1" stop-color="#E7A800" stop-opacity="0.28"/>
</linearGradient>
<linearGradient id="paint4_linear_318_291" x1="257.743" y1="125.524" x2="257.743" y2="130.156" gradientUnits="userSpaceOnUse">
<stop stop-color="#E7A800"/>
<stop offset="1" stop-color="#E7A800" stop-opacity="0.28"/>
</linearGradient>
<linearGradient id="paint5_linear_318_291" x1="225.211" y1="167.683" x2="225.211" y2="167.752" gradientUnits="userSpaceOnUse">
<stop stop-color="#E7A800"/>
<stop offset="1" stop-color="#E7A800" stop-opacity="0.28"/>
</linearGradient>
<linearGradient id="paint6_linear_318_291" x1="236.153" y1="89.5625" x2="236.153" y2="103.116" gradientUnits="userSpaceOnUse">
<stop stop-color="#E7A800"/>
<stop offset="1" stop-color="#E7A800" stop-opacity="0.28"/>
</linearGradient>
<linearGradient id="paint7_linear_318_291" x1="236.153" y1="89.5625" x2="236.153" y2="103.116" gradientUnits="userSpaceOnUse">
<stop stop-color="#E7A800"/>
<stop offset="1" stop-color="#E7A800" stop-opacity="0.28"/>
</linearGradient>
<linearGradient id="paint8_linear_318_291" x1="236.153" y1="89.5625" x2="236.153" y2="103.116" gradientUnits="userSpaceOnUse">
<stop stop-color="#E7A800"/>
<stop offset="1" stop-color="#E7A800" stop-opacity="0.28"/>
</linearGradient>
<linearGradient id="paint9_linear_318_291" x1="217.321" y1="103.185" x2="217.321" y2="253.568" gradientUnits="userSpaceOnUse">
<stop stop-color="#E7A800"/>
<stop offset="1" stop-color="#E7A800" stop-opacity="0.28"/>
</linearGradient>
<linearGradient id="paint10_linear_318_291" x1="217.321" y1="103.185" x2="217.321" y2="253.568" gradientUnits="userSpaceOnUse">
<stop stop-color="#E7A800"/>
<stop offset="1" stop-color="#E7A800" stop-opacity="0.28"/>
</linearGradient>
<linearGradient id="paint11_linear_318_291" x1="247.459" y1="130.632" x2="247.459" y2="155.015" gradientUnits="userSpaceOnUse">
<stop stop-color="#E7A800"/>
<stop offset="1" stop-color="#E7A800" stop-opacity="0.28"/>
</linearGradient>
<linearGradient id="paint12_linear_318_291" x1="247.459" y1="130.632" x2="247.459" y2="155.015" gradientUnits="userSpaceOnUse">
<stop stop-color="#E7A800"/>
<stop offset="1" stop-color="#E7A800" stop-opacity="0.28"/>
</linearGradient>
<linearGradient id="paint13_linear_318_291" x1="247.459" y1="130.632" x2="247.459" y2="155.015" gradientUnits="userSpaceOnUse">
<stop stop-color="#E7A800"/>
<stop offset="1" stop-color="#E7A800" stop-opacity="0.28"/>
</linearGradient>
<linearGradient id="paint14_linear_318_291" x1="254.236" y1="253.567" x2="254.236" y2="261.196" gradientUnits="userSpaceOnUse">
<stop stop-color="#E7A800"/>
<stop offset="1" stop-color="#E7A800" stop-opacity="0.28"/>
</linearGradient>
<linearGradient id="paint15_linear_318_291" x1="224.677" y1="167.683" x2="224.677" y2="168.091" gradientUnits="userSpaceOnUse">
<stop stop-color="#E7A800"/>
<stop offset="1" stop-color="#E7A800" stop-opacity="0.28"/>
</linearGradient>
<linearGradient id="paint16_linear_318_291" x1="292.683" y1="268.347" x2="292.683" y2="268.823" gradientUnits="userSpaceOnUse">
<stop stop-color="#E7A800"/>
<stop offset="1" stop-color="#E7A800" stop-opacity="0.28"/>
</linearGradient>
<linearGradient id="paint17_linear_318_291" x1="255.155" y1="130.224" x2="255.155" y2="130.632" gradientUnits="userSpaceOnUse">
<stop stop-color="#E7A800"/>
<stop offset="1" stop-color="#E7A800" stop-opacity="0.28"/>
</linearGradient>
<linearGradient id="paint18_linear_318_291" x1="312.264" y1="246.62" x2="312.264" y2="268.347" gradientUnits="userSpaceOnUse">
<stop stop-color="#E7A800"/>
<stop offset="1" stop-color="#E7A800" stop-opacity="0.28"/>
</linearGradient>
<linearGradient id="paint19_linear_318_291" x1="312.264" y1="246.62" x2="312.264" y2="268.347" gradientUnits="userSpaceOnUse">
<stop stop-color="#E7A800"/>
<stop offset="1" stop-color="#E7A800" stop-opacity="0.28"/>
</linearGradient>
<linearGradient id="paint20_linear_318_291" x1="312.264" y1="246.62" x2="312.264" y2="268.347" gradientUnits="userSpaceOnUse">
<stop stop-color="#E7A800"/>
<stop offset="1" stop-color="#E7A800" stop-opacity="0.28"/>
</linearGradient>
<linearGradient id="paint21_linear_318_291" x1="160.75" y1="181.792" x2="160.75" y2="202.01" gradientUnits="userSpaceOnUse">
<stop stop-color="#E7A800"/>
<stop offset="1" stop-color="#E7A800" stop-opacity="0.28"/>
</linearGradient>
<linearGradient id="paint22_linear_318_291" x1="160.75" y1="181.792" x2="160.75" y2="202.01" gradientUnits="userSpaceOnUse">
<stop stop-color="#E7A800"/>
<stop offset="1" stop-color="#E7A800" stop-opacity="0.28"/>
</linearGradient>
<linearGradient id="paint23_linear_318_291" x1="160.75" y1="181.792" x2="160.75" y2="202.01" gradientUnits="userSpaceOnUse">
<stop stop-color="#E7A800"/>
<stop offset="1" stop-color="#E7A800" stop-opacity="0.28"/>
</linearGradient>
<linearGradient id="paint24_linear_318_291" x1="241.84" y1="143.232" x2="241.84" y2="144.254" gradientUnits="userSpaceOnUse">
<stop stop-color="#E7A800"/>
<stop offset="1" stop-color="#E7A800" stop-opacity="0.28"/>
</linearGradient>
<linearGradient id="paint25_linear_318_291" x1="178.669" y1="202.01" x2="178.669" y2="319.497" gradientUnits="userSpaceOnUse">
<stop stop-color="#E7A800"/>
<stop offset="1" stop-color="#E7A800" stop-opacity="0.28"/>
</linearGradient>
<linearGradient id="paint26_linear_318_291" x1="230.364" y1="317.521" x2="230.364" y2="317.726" gradientUnits="userSpaceOnUse">
<stop stop-color="#E7A800"/>
<stop offset="1" stop-color="#E7A800" stop-opacity="0.28"/>
</linearGradient>
<linearGradient id="paint27_linear_318_291" x1="64.7243" y1="318.475" x2="64.7243" y2="349.123" gradientUnits="userSpaceOnUse">
<stop stop-color="#E7A800"/>
<stop offset="1" stop-color="#E7A800" stop-opacity="0.28"/>
</linearGradient>
<linearGradient id="paint28_linear_318_291" x1="94.4876" y1="304.648" x2="94.4876" y2="335.297" gradientUnits="userSpaceOnUse">
<stop stop-color="#E7A800"/>
<stop offset="1" stop-color="#E7A800" stop-opacity="0.28"/>
</linearGradient>
<linearGradient id="paint29_linear_318_291" x1="64.7243" y1="288.167" x2="64.7243" y2="318.816" gradientUnits="userSpaceOnUse">
<stop stop-color="#E7A800"/>
<stop offset="1" stop-color="#E7A800" stop-opacity="0.28"/>
</linearGradient>
<linearGradient id="paint30_linear_318_291" x1="94.4876" y1="274.341" x2="94.4876" y2="304.99" gradientUnits="userSpaceOnUse">
<stop stop-color="#E7A800"/>
<stop offset="1" stop-color="#E7A800" stop-opacity="0.28"/>
</linearGradient>
<linearGradient id="paint31_linear_318_291" x1="75.5677" y1="246.348" x2="75.5677" y2="289.665" gradientUnits="userSpaceOnUse">
<stop stop-color="#E7A800"/>
<stop offset="1" stop-color="#E7A800" stop-opacity="0.28"/>
</linearGradient>
<linearGradient id="paint32_linear_318_291" x1="111.923" y1="336.319" x2="111.923" y2="366.968" gradientUnits="userSpaceOnUse">
<stop stop-color="#E7A800"/>
<stop offset="1" stop-color="#E7A800" stop-opacity="0.28"/>
</linearGradient>
<linearGradient id="paint33_linear_318_291" x1="125.817" y1="366.082" x2="125.817" y2="396.731" gradientUnits="userSpaceOnUse">
<stop stop-color="#E7A800"/>
<stop offset="1" stop-color="#E7A800" stop-opacity="0.28"/>
</linearGradient>
<linearGradient id="paint34_linear_318_291" x1="142.231" y1="336.319" x2="142.231" y2="366.968" gradientUnits="userSpaceOnUse">
<stop stop-color="#E7A800"/>
<stop offset="1" stop-color="#E7A800" stop-opacity="0.28"/>
</linearGradient>
<linearGradient id="paint35_linear_318_291" x1="156.057" y1="366.082" x2="156.057" y2="396.731" gradientUnits="userSpaceOnUse">
<stop stop-color="#E7A800"/>
<stop offset="1" stop-color="#E7A800" stop-opacity="0.28"/>
</linearGradient>
<linearGradient id="paint36_linear_318_291" x1="177.716" y1="353.493" x2="177.716" y2="371.482" gradientUnits="userSpaceOnUse">
<stop stop-color="#E7A800"/>
<stop offset="1" stop-color="#E7A800" stop-opacity="0.28"/>
</linearGradient>
<linearGradient id="paint37_linear_318_291" x1="69.6962" y1="356.547" x2="69.6962" y2="386.378" gradientUnits="userSpaceOnUse">
<stop stop-color="#E7A800"/>
<stop offset="1" stop-color="#E7A800" stop-opacity="0.28"/>
</linearGradient>
<linearGradient id="paint38_linear_318_291" x1="385.582" y1="52.7842" x2="385.582" y2="83.4329" gradientUnits="userSpaceOnUse">
<stop stop-color="#E7A800"/>
<stop offset="1" stop-color="#E7A800" stop-opacity="0.28"/>
</linearGradient>
<linearGradient id="paint39_linear_318_291" x1="355.819" y1="66.6104" x2="355.819" y2="97.2591" gradientUnits="userSpaceOnUse">
<stop stop-color="#E7A800"/>
<stop offset="1" stop-color="#E7A800" stop-opacity="0.28"/>
</linearGradient>
<linearGradient id="paint40_linear_318_291" x1="385.582" y1="83.0928" x2="385.582" y2="113.742" gradientUnits="userSpaceOnUse">
<stop stop-color="#E7A800"/>
<stop offset="1" stop-color="#E7A800" stop-opacity="0.28"/>
</linearGradient>
<linearGradient id="paint41_linear_318_291" x1="355.819" y1="96.9189" x2="355.819" y2="127.568" gradientUnits="userSpaceOnUse">
<stop stop-color="#E7A800"/>
<stop offset="1" stop-color="#E7A800" stop-opacity="0.28"/>
</linearGradient>
<linearGradient id="paint42_linear_318_291" x1="374.743" y1="112.243" x2="374.743" y2="155.56" gradientUnits="userSpaceOnUse">
<stop stop-color="#E7A800"/>
<stop offset="1" stop-color="#E7A800" stop-opacity="0.28"/>
</linearGradient>
<linearGradient id="paint43_linear_318_291" x1="338.383" y1="34.9404" x2="338.383" y2="65.5892" gradientUnits="userSpaceOnUse">
<stop stop-color="#E7A800"/>
<stop offset="1" stop-color="#E7A800" stop-opacity="0.28"/>
</linearGradient>
<linearGradient id="paint44_linear_318_291" x1="324.557" y1="5.17676" x2="324.557" y2="35.8255" gradientUnits="userSpaceOnUse">
<stop stop-color="#E7A800"/>
<stop offset="1" stop-color="#E7A800" stop-opacity="0.28"/>
</linearGradient>
<linearGradient id="paint45_linear_318_291" x1="308.075" y1="34.9404" x2="308.075" y2="65.5892" gradientUnits="userSpaceOnUse">
<stop stop-color="#E7A800"/>
<stop offset="1" stop-color="#E7A800" stop-opacity="0.28"/>
</linearGradient>
<linearGradient id="paint46_linear_318_291" x1="294.249" y1="5.17676" x2="294.249" y2="35.8255" gradientUnits="userSpaceOnUse">
<stop stop-color="#E7A800"/>
<stop offset="1" stop-color="#E7A800" stop-opacity="0.28"/>
</linearGradient>
<linearGradient id="paint47_linear_318_291" x1="272.591" y1="30.4268" x2="272.591" y2="48.4157" gradientUnits="userSpaceOnUse">
<stop stop-color="#E7A800"/>
<stop offset="1" stop-color="#E7A800" stop-opacity="0.28"/>
</linearGradient>
<linearGradient id="paint48_linear_318_291" x1="366.387" y1="26.1253" x2="394.938" y2="34.7704" gradientUnits="userSpaceOnUse">
<stop stop-color="#E7A800"/>
<stop offset="1" stop-color="#E7A800" stop-opacity="0.28"/>
</linearGradient>
<linearGradient id="paint49_linear_318_291" x1="315.737" y1="136.898" x2="315.737" y2="398.23" gradientUnits="userSpaceOnUse">
<stop stop-color="#E7A800"/>
<stop offset="1" stop-color="#E7A800" stop-opacity="0.28"/>
</linearGradient>
<linearGradient id="paint50_linear_318_291" x1="146.012" y1="1.70312" x2="146.012" y2="271.412" gradientUnits="userSpaceOnUse">
<stop stop-color="#E7A800"/>
<stop offset="1" stop-color="#E7A800" stop-opacity="0.28"/>
</linearGradient>
<clipPath id="clip0_318_291">
<rect width="400" height="400" fill="white" transform="translate(30.2615)"/>
</clipPath>
</defs>
</svg>
