<svg width="85" height="85" viewBox="0 0 85 85" fill="none" xmlns="http://www.w3.org/2000/svg">
<g clip-path="url(#clip0_8_522)">
<path d="M47.627 27.6905C47.6415 27.6759 47.656 27.6614 47.6706 27.6468C47.6851 27.6323 47.6997 27.6178 47.7142 27.6032" stroke="url(#paint0_linear_8_522)" stroke-width="0.317172" stroke-miterlimit="10"/>
<path d="M34.6921 40.6398L34.6484 40.6834" stroke="url(#paint1_linear_8_522)" stroke-width="0.317172" stroke-miterlimit="10"/>
<path d="M55.2063 22.305C55.1919 22.536 55.1919 22.767 55.2063 22.9835H55.1919V46.299V52.1171C55.1919 55.6108 53.9214 58.8158 51.8137 61.2845C49.5326 64.2729 46.241 66.4384 42.4586 67.3046C41.8522 67.449 41.217 67.5501 40.5818 67.6222C41.8089 67.4634 42.9494 66.987 43.8878 66.2796C43.9023 66.2652 43.9167 66.2507 43.9456 66.2363C44.2921 65.9764 44.6241 65.6733 44.9128 65.3412C47.2372 62.9736 48.6664 59.7397 48.6664 56.1594V26.6505L56.8377 18.4648C56.0725 19.2732 55.5239 20.2983 55.2929 21.4388C55.2641 21.7275 55.2207 22.0162 55.2063 22.305Z" fill="url(#paint2_linear_8_522)"/>
<path d="M55.2063 22.305C55.1919 22.536 55.1919 22.767 55.2063 22.9835H55.1919V46.299V52.1171C55.1919 55.6108 53.9214 58.8158 51.8137 61.2845C49.5326 64.2729 46.241 66.4384 42.4586 67.3046C41.8522 67.449 41.217 67.5501 40.5818 67.6222C41.8089 67.4634 42.9494 66.987 43.8878 66.2796C43.9023 66.2652 43.9167 66.2507 43.9456 66.2363C44.2921 65.9764 44.6241 65.6733 44.9128 65.3412C47.2372 62.9736 48.6664 59.7397 48.6664 56.1594V26.6505L56.8377 18.4648C56.0725 19.2732 55.5239 20.2983 55.2929 21.4388C55.2641 21.7275 55.2207 22.0162 55.2063 22.305Z" stroke="url(#paint3_linear_8_522)" stroke-width="0.317172" stroke-miterlimit="10" stroke-linejoin="bevel"/>
<path d="M48.7097 26.6071C48.4643 26.8525 47.9301 27.4011 47.728 27.5888L48.7097 26.6071Z" stroke="url(#paint4_linear_8_522)" stroke-width="0.317172" stroke-miterlimit="10" stroke-linejoin="bevel"/>
<path d="M41.217 35.5435V35.5591" stroke="url(#paint5_linear_8_522)" stroke-width="0.317172" stroke-miterlimit="10"/>
<path d="M46.0823 20.356C46.0823 21.1356 45.4615 21.7564 44.6819 21.7564C44.4654 21.7564 44.2632 21.7131 44.0756 21.612C43.7868 21.4821 43.4692 21.3955 43.1372 21.3666C43.065 21.3521 42.9784 21.3521 42.8917 21.3521C42.2565 21.3521 41.6791 21.5109 41.2026 21.8574L43.5992 19.4898L43.8157 19.2877C44.0611 19.1 44.3643 18.9845 44.6964 18.9845C44.9418 18.9845 45.1872 19.0567 45.3893 19.1722C45.7936 19.3887 46.0823 19.8363 46.0823 20.356Z" fill="url(#paint6_linear_8_522)"/>
<path d="M46.0823 20.356C46.0823 21.1356 45.4615 21.7564 44.6819 21.7564C44.4654 21.7564 44.2632 21.7131 44.0756 21.612C43.7868 21.4821 43.4692 21.3955 43.1372 21.3666C43.065 21.3521 42.9784 21.3521 42.8917 21.3521C42.2565 21.3521 41.6791 21.5109 41.2026 21.8574L43.5992 19.4898L43.8157 19.2877C44.0611 19.1 44.3643 18.9845 44.6964 18.9845C44.9418 18.9845 45.1872 19.0567 45.3893 19.1722C45.7936 19.3887 46.0823 19.8363 46.0823 20.356Z" fill="url(#paint7_linear_8_522)" stroke="url(#paint8_linear_8_522)" stroke-width="0.317172" stroke-miterlimit="10" stroke-linejoin="bevel"/>
<path d="M46.2556 53.7484C45.5915 53.2287 44.8697 52.7667 44.119 52.3769C44.0323 52.3336 43.9313 52.2759 43.8447 52.2326L43.8302 52.2181C43.0073 51.8139 42.1411 51.4963 41.2316 51.2509C40.0766 50.9477 38.8784 50.7889 37.6368 50.7889C36.6262 50.7889 35.6445 50.8899 34.7061 51.0921C34.1431 51.2076 33.5801 51.3664 33.0459 51.554C34.0709 50.6301 34.7061 49.3019 34.7061 47.8438V31.3713C34.7061 30.9382 34.5473 30.5629 34.273 30.2597C34.0276 29.9998 33.71 29.8122 33.3491 29.7544L34.7061 28.3973L40.8851 22.2184L41.2316 21.8719V44.3501C41.2893 44.9564 41.3904 45.5483 41.5348 46.1402C42.1267 48.6667 43.4116 50.9333 45.1584 52.7379C45.4905 53.0843 45.8658 53.4164 46.2556 53.7484Z" fill="url(#paint9_linear_8_522)"/>
<path d="M46.2556 53.7484C45.5915 53.2287 44.8697 52.7667 44.119 52.3769C44.0323 52.3336 43.9313 52.2759 43.8447 52.2326L43.8302 52.2181C43.0073 51.8139 42.1411 51.4963 41.2316 51.2509C40.0766 50.9477 38.8784 50.7889 37.6368 50.7889C36.6262 50.7889 35.6445 50.8899 34.7061 51.0921C34.1431 51.2076 33.5801 51.3664 33.0459 51.554C34.0709 50.6301 34.7061 49.3019 34.7061 47.8438V31.3713C34.7061 30.9382 34.5473 30.5629 34.273 30.2597C34.0276 29.9998 33.71 29.8122 33.3491 29.7544L34.7061 28.3973L40.8851 22.2184L41.2316 21.8719V44.3501C41.2893 44.9564 41.3904 45.5483 41.5348 46.1402C42.1267 48.6667 43.4116 50.9333 45.1584 52.7379C45.4905 53.0843 45.8658 53.4164 46.2556 53.7484Z" stroke="url(#paint10_linear_8_522)" stroke-width="0.317172" stroke-miterlimit="10" stroke-linejoin="bevel"/>
<path d="M47.1362 30.9381C47.2084 31.0969 47.2373 31.2702 47.2373 31.4578C47.2373 32.2374 46.6021 32.8582 45.8369 32.8582C45.3172 32.8582 44.8552 32.5695 44.6242 32.1508C44.5087 31.9487 44.4365 31.7177 44.4365 31.4578C44.4365 31.1258 44.552 30.8226 44.7397 30.5916L44.7541 30.5772L44.9563 30.3751L44.9707 30.3606L47.6415 27.6898C47.1507 28.2095 46.8475 28.9025 46.8475 29.6677C46.8475 29.7543 46.8475 29.8265 46.8619 29.9131C46.8908 30.2307 46.963 30.5194 47.0785 30.7937V30.8082C47.0929 30.8515 47.1218 30.8948 47.1362 30.9381Z" fill="url(#paint11_linear_8_522)"/>
<path d="M47.1362 30.9381C47.2084 31.0969 47.2373 31.2702 47.2373 31.4578C47.2373 32.2374 46.6021 32.8582 45.8369 32.8582C45.3172 32.8582 44.8552 32.5695 44.6242 32.1508C44.5087 31.9487 44.4365 31.7177 44.4365 31.4578C44.4365 31.1258 44.552 30.8226 44.7397 30.5916L44.7541 30.5772L44.9563 30.3751L44.9707 30.3606L47.6415 27.6898C47.1507 28.2095 46.8475 28.9025 46.8475 29.6677C46.8475 29.7543 46.8475 29.8265 46.8619 29.9131C46.8908 30.2307 46.963 30.5194 47.0785 30.7937V30.8082C47.0929 30.8515 47.1218 30.8948 47.1362 30.9381Z" fill="url(#paint12_linear_8_522)" stroke="url(#paint13_linear_8_522)" stroke-width="0.317172" stroke-miterlimit="10" stroke-linejoin="bevel"/>
<path d="M46.2556 53.7484C46.3855 53.8494 46.501 53.9505 46.631 54.0371C46.631 54.0371 46.631 54.0371 46.6454 54.0515C47.2806 54.5424 47.9736 54.9899 48.6954 55.3653" stroke="url(#paint14_linear_8_522)" stroke-width="0.317172" stroke-miterlimit="10"/>
<path d="M41.2172 35.5435C41.2172 35.5726 41.2172 35.6017 41.2026 35.6308" stroke="url(#paint15_linear_8_522)" stroke-width="0.317172" stroke-miterlimit="10"/>
<path d="M54.3547 56.9389L55.2498 56.9822C55.784 56.9822 56.3037 56.9533 56.8234 56.8956C56.8523 56.8956 56.8667 56.8956 56.8956 56.8812" stroke="url(#paint16_linear_8_522)" stroke-width="0.317172" stroke-miterlimit="10"/>
<path d="M47.627 27.6905C47.6415 27.6759 47.656 27.6614 47.6706 27.6468C47.6851 27.6323 47.6997 27.6178 47.7142 27.6032" stroke="url(#paint17_linear_8_522)" stroke-width="0.317172" stroke-miterlimit="10"/>
<path d="M62.6703 53.9216C62.6703 54.528 62.3382 55.0621 61.8329 55.3509C61.8329 55.3509 61.8329 55.3509 61.8185 55.3509C61.7896 55.3653 61.7608 55.3797 61.7174 55.3942C61.7174 55.3942 61.703 55.3942 61.703 55.4086C60.2305 56.1738 58.5991 56.6791 56.8811 56.8812C58.2959 56.7079 59.3787 55.4952 59.3787 54.0371V54.0082C59.3787 53.9649 59.3787 53.9361 59.3787 53.8927C59.3931 52.9977 60.115 52.2758 61.0245 52.2758C61.934 52.2903 62.6703 53.0265 62.6703 53.9216Z" fill="url(#paint18_linear_8_522)"/>
<path d="M62.6703 53.9216C62.6703 54.528 62.3382 55.0621 61.8329 55.3509C61.8329 55.3509 61.8329 55.3509 61.8185 55.3509C61.7896 55.3653 61.7608 55.3797 61.7174 55.3942C61.7174 55.3942 61.703 55.3942 61.703 55.4086C60.2305 56.1738 58.5991 56.6791 56.8811 56.8812C58.2959 56.7079 59.3787 55.4952 59.3787 54.0371V54.0082C59.3787 53.9649 59.3787 53.9361 59.3787 53.8927C59.3931 52.9977 60.115 52.2758 61.0245 52.2758C61.934 52.2903 62.6703 53.0265 62.6703 53.9216Z" fill="url(#paint19_linear_8_522)" stroke="url(#paint20_linear_8_522)" stroke-width="0.317172" stroke-miterlimit="10" stroke-linejoin="bevel"/>
<path d="M30.5916 40.452C30.4328 41.3471 29.5811 41.939 28.686 41.7802C28.5705 41.7658 28.4694 41.7224 28.3684 41.6936C28.3684 41.6936 28.3684 41.6936 28.3539 41.6936C28.3395 41.6791 28.3106 41.6791 28.2962 41.6647C28.2962 41.6647 28.2818 41.6647 28.2818 41.6503C28.0796 41.5636 27.8775 41.5059 27.661 41.4626C26.7226 41.2893 25.7986 41.607 25.1634 42.2277C25.0046 42.3721 24.8602 42.5454 24.7447 42.733C24.7303 42.7619 24.7159 42.7908 24.7014 42.8197C24.8169 42.6031 24.9468 42.3865 25.0768 42.1844C25.8419 40.9717 26.7948 39.889 27.8631 38.9794C27.9064 38.9506 27.9353 38.9217 27.9786 38.8784C27.9786 38.8784 27.993 38.8784 27.993 38.864C28.3395 38.6041 28.8015 38.4742 29.2635 38.5608C30.1585 38.7196 30.7505 39.5714 30.5916 40.452Z" fill="url(#paint21_linear_8_522)"/>
<path d="M30.5916 40.452C30.4328 41.3471 29.5811 41.939 28.686 41.7802C28.5705 41.7658 28.4694 41.7224 28.3684 41.6936C28.3684 41.6936 28.3684 41.6936 28.3539 41.6936C28.3395 41.6791 28.3106 41.6791 28.2962 41.6647C28.2962 41.6647 28.2818 41.6647 28.2818 41.6503C28.0796 41.5636 27.8775 41.5059 27.661 41.4626C26.7226 41.2893 25.7986 41.607 25.1634 42.2277C25.0046 42.3721 24.8602 42.5454 24.7447 42.733C24.7303 42.7619 24.7159 42.7908 24.7014 42.8197C24.8169 42.6031 24.9468 42.3865 25.0768 42.1844C25.8419 40.9717 26.7948 39.889 27.8631 38.9794C27.9064 38.9506 27.9353 38.9217 27.9786 38.8784C27.9786 38.8784 27.993 38.8784 27.993 38.864C28.3395 38.6041 28.8015 38.4742 29.2635 38.5608C30.1585 38.7196 30.7505 39.5714 30.5916 40.452Z" fill="url(#paint22_linear_8_522)" stroke="url(#paint23_linear_8_522)" stroke-width="0.317172" stroke-miterlimit="10" stroke-linejoin="bevel"/>
<path d="M44.9563 30.3607L44.7397 30.5773C44.8119 30.4906 44.8841 30.4185 44.9563 30.3607Z" stroke="url(#paint24_linear_8_522)" stroke-width="0.317172" stroke-miterlimit="10"/>
<path d="M40.5819 67.6366C40.4087 67.651 40.2354 67.6655 40.0622 67.6799C39.6291 67.7088 39.2104 67.7232 38.7629 67.7232C29.6821 67.7232 22.3337 60.3604 22.3337 51.2941C22.3337 48.1901 23.1855 45.2883 24.6869 42.8196" stroke="url(#paint25_linear_8_522)" stroke-width="0.317172" stroke-miterlimit="10" stroke-linejoin="round"/>
<path d="M42.3865 67.3482C42.401 67.3337 42.4301 67.3191 42.4447 67.3046" stroke="url(#paint26_linear_8_522)" stroke-width="0.317172" stroke-miterlimit="10" stroke-linejoin="round"/>
<path d="M10.5532 74.0033C6.97288 74.0033 4.05664 71.1015 4.05664 67.5067C5.84681 67.5067 7.47817 68.2286 8.64756 69.4124C9.83138 70.5818 10.5532 72.2131 10.5532 74.0033Z" stroke="url(#paint27_linear_8_522)" stroke-width="0.792929" stroke-miterlimit="10"/>
<path d="M16.8621 64.576C13.2817 64.576 10.3655 67.4779 10.3655 71.0726C12.1556 71.0726 13.787 70.3508 14.9564 69.167C16.1402 67.9831 16.8621 66.3662 16.8621 64.576Z" stroke="url(#paint28_linear_8_522)" stroke-width="0.792929" stroke-miterlimit="10"/>
<path d="M10.5532 67.5789C6.97288 67.5789 4.05664 64.6771 4.05664 61.0823C5.84681 61.0823 7.47817 61.8041 8.64756 62.9879C9.83138 64.1718 10.5532 65.7887 10.5532 67.5789Z" stroke="url(#paint29_linear_8_522)" stroke-width="0.792929" stroke-miterlimit="10"/>
<path d="M16.8621 58.1516C13.2817 58.1516 10.3655 61.0534 10.3655 64.6482C12.1556 64.6482 13.787 63.9264 14.9564 62.7425C16.1402 61.5731 16.8621 59.9418 16.8621 58.1516Z" stroke="url(#paint30_linear_8_522)" stroke-width="0.792929" stroke-miterlimit="10"/>
<path d="M9.74488 61.3999C7.13181 58.9456 7.00188 54.8311 9.45615 52.2181C10.7699 53.4452 11.4484 55.091 11.5062 56.7512C11.5639 58.4115 10.972 60.0862 9.74488 61.3999Z" stroke="url(#paint31_linear_8_522)" stroke-width="0.792929" stroke-miterlimit="10"/>
<path d="M14.0615 77.7857C14.0615 74.2054 16.9633 71.2891 20.5581 71.2891C20.5581 73.0793 19.8363 74.7107 18.6524 75.88C17.4831 77.0494 15.8661 77.7857 14.0615 77.7857Z" stroke="url(#paint32_linear_8_522)" stroke-width="0.792929" stroke-miterlimit="10"/>
<path d="M23.5032 84.0946C23.5032 80.5143 20.6014 77.598 17.0066 77.598C17.0066 79.3882 17.7284 81.0196 18.9123 82.1889C20.0816 83.3583 21.6986 84.0946 23.5032 84.0946Z" stroke="url(#paint33_linear_8_522)" stroke-width="0.792929" stroke-miterlimit="10"/>
<path d="M20.4858 77.7857C20.4858 74.2054 23.3876 71.2891 26.9824 71.2891C26.9824 73.0793 26.2606 74.7107 25.0768 75.88C23.9074 77.0494 22.276 77.7857 20.4858 77.7857Z" stroke="url(#paint34_linear_8_522)" stroke-width="0.792929" stroke-miterlimit="10"/>
<path d="M29.9131 84.0946C29.9131 80.5143 27.0113 77.598 23.4165 77.598C23.4165 79.3882 24.1383 81.0196 25.3222 82.1889C26.4916 83.3583 28.1229 84.0946 29.9131 84.0946Z" stroke="url(#paint35_linear_8_522)" stroke-width="0.792929" stroke-miterlimit="10"/>
<path d="M26.6648 76.9772C29.1191 74.3642 33.2336 74.2342 35.8466 76.6885C34.6195 78.0023 32.9737 78.6808 31.3135 78.7385C29.6532 78.7963 27.9785 78.2044 26.6648 76.9772Z" stroke="url(#paint36_linear_8_522)" stroke-width="0.792929" stroke-miterlimit="10"/>
<path d="M8.35894 81.9002C10.1051 81.9002 11.5206 80.4847 11.5206 78.7386C11.5206 76.9924 10.1051 75.5769 8.35894 75.5769C6.61279 75.5769 5.19727 76.9924 5.19727 78.7386C5.19727 80.4847 6.61279 81.9002 8.35894 81.9002Z" stroke="url(#paint37_linear_8_522)" stroke-width="0.792929" stroke-miterlimit="10"/>
<path d="M72.0686 11.1885C75.6489 11.1885 78.5652 14.0903 78.5652 17.6851C76.775 17.6851 75.1437 16.9633 73.9743 15.7795C72.8049 14.6101 72.0686 12.9787 72.0686 11.1885Z" stroke="url(#paint38_linear_8_522)" stroke-width="0.792929" stroke-miterlimit="10"/>
<path d="M65.7598 20.6158C69.3401 20.6158 72.2563 17.714 72.2563 14.1193C70.4662 14.1193 68.8348 14.8411 67.6654 16.0249C66.496 17.1943 65.7598 18.8257 65.7598 20.6158Z" stroke="url(#paint39_linear_8_522)" stroke-width="0.792929" stroke-miterlimit="10"/>
<path d="M72.0686 17.613C75.6489 17.613 78.5652 20.5148 78.5652 24.1096C76.775 24.1096 75.1437 23.3877 73.9743 22.2039C72.8049 21.0201 72.0686 19.4031 72.0686 17.613Z" stroke="url(#paint40_linear_8_522)" stroke-width="0.792929" stroke-miterlimit="10"/>
<path d="M65.7598 27.0402C69.3401 27.0402 72.2563 24.1384 72.2563 20.5436C70.4662 20.5436 68.8348 21.2654 67.6654 22.4492C66.496 23.6186 65.7598 25.2356 65.7598 27.0402Z" stroke="url(#paint41_linear_8_522)" stroke-width="0.792929" stroke-miterlimit="10"/>
<path d="M72.8771 23.7919C75.4902 26.2462 75.6201 30.3607 73.1658 32.9738C71.8521 31.7466 71.1735 30.1008 71.1158 28.4406C71.0725 26.7804 71.65 25.0912 72.8771 23.7919Z" stroke="url(#paint42_linear_8_522)" stroke-width="0.792929" stroke-miterlimit="10"/>
<path d="M68.5605 7.40607C68.5605 10.9864 65.6587 13.9026 62.064 13.9026C62.064 12.1125 62.7858 10.4811 63.9696 9.31173C65.139 8.12791 66.7704 7.40607 68.5605 7.40607Z" stroke="url(#paint43_linear_8_522)" stroke-width="0.792929" stroke-miterlimit="10"/>
<path d="M59.1333 1.09723C59.1333 4.67757 62.0351 7.59381 65.6299 7.59381C65.6299 5.80364 64.908 4.17228 63.7242 3.00289C62.5404 1.81907 60.9235 1.09723 59.1333 1.09723Z" stroke="url(#paint44_linear_8_522)" stroke-width="0.792929" stroke-miterlimit="10"/>
<path d="M62.136 7.40607C62.136 10.9864 59.2342 13.9026 55.6394 13.9026C55.6394 12.1125 56.3612 10.4811 57.5451 9.31173C58.7289 8.12791 60.3458 7.40607 62.136 7.40607Z" stroke="url(#paint45_linear_8_522)" stroke-width="0.792929" stroke-miterlimit="10"/>
<path d="M52.7087 1.09723C52.7087 4.67757 55.6105 7.59381 59.2053 7.59381C59.2053 5.80364 58.4835 4.17228 57.2997 3.00289C56.1303 1.81907 54.4989 1.09723 52.7087 1.09723Z" stroke="url(#paint46_linear_8_522)" stroke-width="0.792929" stroke-miterlimit="10"/>
<path d="M55.9572 8.21457C53.503 10.8276 49.3885 10.9576 46.7754 8.50331C48.0025 7.18955 49.6483 6.51102 51.3086 6.45328C52.9688 6.39553 54.6435 6.973 55.9572 8.21457Z" stroke="url(#paint47_linear_8_522)" stroke-width="0.792929" stroke-miterlimit="10"/>
<path d="M77.3001 7.37021C77.8038 5.70661 76.8573 3.94778 75.1861 3.44175C73.5149 2.93571 71.7517 3.87411 71.248 5.53771C70.7443 7.20131 71.6907 8.96015 73.362 9.46618C75.0332 9.97221 76.7964 9.03381 77.3001 7.37021Z" stroke="url(#paint48_linear_8_522)" stroke-width="0.792929" stroke-miterlimit="10"/>
<path d="M82.2467 29.0181C83.6615 33.2192 84.4122 37.709 84.4122 42.3866C84.4122 65.601 65.5866 84.4122 42.3866 84.4122C40.4231 84.4122 38.503 84.2823 36.6118 84.0225" stroke="url(#paint49_linear_8_522)" stroke-width="0.792929" stroke-miterlimit="10"/>
<path d="M3.16159 57.5309C1.35698 52.8389 0.36084 47.7283 0.36084 42.3866C0.36084 19.1866 19.1865 0.360962 42.3865 0.360962C44.5376 0.360962 46.6454 0.519767 48.7098 0.837378" stroke="url(#paint50_linear_8_522)" stroke-width="0.792929" stroke-miterlimit="10"/>
</g>
<defs>
<linearGradient id="paint0_linear_8_522" x1="47.6706" y1="27.6032" x2="47.6706" y2="27.6905" gradientUnits="userSpaceOnUse">
<stop stop-color="#E7A800"/>
<stop offset="1" stop-color="#E7A800" stop-opacity="0.28"/>
</linearGradient>
<linearGradient id="paint1_linear_8_522" x1="34.6703" y1="40.6398" x2="34.6703" y2="40.6834" gradientUnits="userSpaceOnUse">
<stop stop-color="#E7A800"/>
<stop offset="1" stop-color="#E7A800" stop-opacity="0.28"/>
</linearGradient>
<linearGradient id="paint2_linear_8_522" x1="48.7097" y1="18.4648" x2="48.7097" y2="67.6222" gradientUnits="userSpaceOnUse">
<stop stop-color="#E7A800"/>
<stop offset="1" stop-color="#E7A800" stop-opacity="0.28"/>
</linearGradient>
<linearGradient id="paint3_linear_8_522" x1="48.7097" y1="18.4648" x2="48.7097" y2="67.6222" gradientUnits="userSpaceOnUse">
<stop stop-color="#E7A800"/>
<stop offset="1" stop-color="#E7A800" stop-opacity="0.28"/>
</linearGradient>
<linearGradient id="paint4_linear_8_522" x1="48.2189" y1="26.6071" x2="48.2189" y2="27.5888" gradientUnits="userSpaceOnUse">
<stop stop-color="#E7A800"/>
<stop offset="1" stop-color="#E7A800" stop-opacity="0.28"/>
</linearGradient>
<linearGradient id="paint5_linear_8_522" x1="41.717" y1="35.5435" x2="41.717" y2="35.5591" gradientUnits="userSpaceOnUse">
<stop stop-color="#E7A800"/>
<stop offset="1" stop-color="#E7A800" stop-opacity="0.28"/>
</linearGradient>
<linearGradient id="paint6_linear_8_522" x1="43.6425" y1="18.9845" x2="43.6425" y2="21.8574" gradientUnits="userSpaceOnUse">
<stop stop-color="#E7A800"/>
<stop offset="1" stop-color="#E7A800" stop-opacity="0.28"/>
</linearGradient>
<linearGradient id="paint7_linear_8_522" x1="43.6425" y1="18.9845" x2="43.6425" y2="21.8574" gradientUnits="userSpaceOnUse">
<stop stop-color="#E7A800"/>
<stop offset="1" stop-color="#E7A800" stop-opacity="0.28"/>
</linearGradient>
<linearGradient id="paint8_linear_8_522" x1="43.6425" y1="18.9845" x2="43.6425" y2="21.8574" gradientUnits="userSpaceOnUse">
<stop stop-color="#E7A800"/>
<stop offset="1" stop-color="#E7A800" stop-opacity="0.28"/>
</linearGradient>
<linearGradient id="paint9_linear_8_522" x1="39.6508" y1="21.8719" x2="39.6508" y2="53.7484" gradientUnits="userSpaceOnUse">
<stop stop-color="#E7A800"/>
<stop offset="1" stop-color="#E7A800" stop-opacity="0.28"/>
</linearGradient>
<linearGradient id="paint10_linear_8_522" x1="39.6508" y1="21.8719" x2="39.6508" y2="53.7484" gradientUnits="userSpaceOnUse">
<stop stop-color="#E7A800"/>
<stop offset="1" stop-color="#E7A800" stop-opacity="0.28"/>
</linearGradient>
<linearGradient id="paint11_linear_8_522" x1="46.039" y1="27.6898" x2="46.039" y2="32.8582" gradientUnits="userSpaceOnUse">
<stop stop-color="#E7A800"/>
<stop offset="1" stop-color="#E7A800" stop-opacity="0.28"/>
</linearGradient>
<linearGradient id="paint12_linear_8_522" x1="46.039" y1="27.6898" x2="46.039" y2="32.8582" gradientUnits="userSpaceOnUse">
<stop stop-color="#E7A800"/>
<stop offset="1" stop-color="#E7A800" stop-opacity="0.28"/>
</linearGradient>
<linearGradient id="paint13_linear_8_522" x1="46.039" y1="27.6898" x2="46.039" y2="32.8582" gradientUnits="userSpaceOnUse">
<stop stop-color="#E7A800"/>
<stop offset="1" stop-color="#E7A800" stop-opacity="0.28"/>
</linearGradient>
<linearGradient id="paint14_linear_8_522" x1="47.4755" y1="53.7484" x2="47.4755" y2="55.3653" gradientUnits="userSpaceOnUse">
<stop stop-color="#E7A800"/>
<stop offset="1" stop-color="#E7A800" stop-opacity="0.28"/>
</linearGradient>
<linearGradient id="paint15_linear_8_522" x1="41.2099" y1="35.5435" x2="41.2099" y2="35.6308" gradientUnits="userSpaceOnUse">
<stop stop-color="#E7A800"/>
<stop offset="1" stop-color="#E7A800" stop-opacity="0.28"/>
</linearGradient>
<linearGradient id="paint16_linear_8_522" x1="55.6252" y1="56.8812" x2="55.6252" y2="56.9822" gradientUnits="userSpaceOnUse">
<stop stop-color="#E7A800"/>
<stop offset="1" stop-color="#E7A800" stop-opacity="0.28"/>
</linearGradient>
<linearGradient id="paint17_linear_8_522" x1="47.6706" y1="27.6032" x2="47.6706" y2="27.6905" gradientUnits="userSpaceOnUse">
<stop stop-color="#E7A800"/>
<stop offset="1" stop-color="#E7A800" stop-opacity="0.28"/>
</linearGradient>
<linearGradient id="paint18_linear_8_522" x1="59.7757" y1="52.2758" x2="59.7757" y2="56.8812" gradientUnits="userSpaceOnUse">
<stop stop-color="#E7A800"/>
<stop offset="1" stop-color="#E7A800" stop-opacity="0.28"/>
</linearGradient>
<linearGradient id="paint19_linear_8_522" x1="59.7757" y1="52.2758" x2="59.7757" y2="56.8812" gradientUnits="userSpaceOnUse">
<stop stop-color="#E7A800"/>
<stop offset="1" stop-color="#E7A800" stop-opacity="0.28"/>
</linearGradient>
<linearGradient id="paint20_linear_8_522" x1="59.7757" y1="52.2758" x2="59.7757" y2="56.8812" gradientUnits="userSpaceOnUse">
<stop stop-color="#E7A800"/>
<stop offset="1" stop-color="#E7A800" stop-opacity="0.28"/>
</linearGradient>
<linearGradient id="paint21_linear_8_522" x1="27.6594" y1="38.5341" x2="27.6594" y2="42.8197" gradientUnits="userSpaceOnUse">
<stop stop-color="#E7A800"/>
<stop offset="1" stop-color="#E7A800" stop-opacity="0.28"/>
</linearGradient>
<linearGradient id="paint22_linear_8_522" x1="27.6594" y1="38.5341" x2="27.6594" y2="42.8197" gradientUnits="userSpaceOnUse">
<stop stop-color="#E7A800"/>
<stop offset="1" stop-color="#E7A800" stop-opacity="0.28"/>
</linearGradient>
<linearGradient id="paint23_linear_8_522" x1="27.6594" y1="38.5341" x2="27.6594" y2="42.8197" gradientUnits="userSpaceOnUse">
<stop stop-color="#E7A800"/>
<stop offset="1" stop-color="#E7A800" stop-opacity="0.28"/>
</linearGradient>
<linearGradient id="paint24_linear_8_522" x1="44.848" y1="30.3607" x2="44.848" y2="30.5773" gradientUnits="userSpaceOnUse">
<stop stop-color="#E7A800"/>
<stop offset="1" stop-color="#E7A800" stop-opacity="0.28"/>
</linearGradient>
<linearGradient id="paint25_linear_8_522" x1="31.4578" y1="42.8196" x2="31.4578" y2="67.7232" gradientUnits="userSpaceOnUse">
<stop stop-color="#E7A800"/>
<stop offset="1" stop-color="#E7A800" stop-opacity="0.28"/>
</linearGradient>
<linearGradient id="paint26_linear_8_522" x1="42.4156" y1="67.3046" x2="42.4156" y2="67.3482" gradientUnits="userSpaceOnUse">
<stop stop-color="#E7A800"/>
<stop offset="1" stop-color="#E7A800" stop-opacity="0.28"/>
</linearGradient>
<linearGradient id="paint27_linear_8_522" x1="7.30493" y1="67.5067" x2="7.30493" y2="74.0033" gradientUnits="userSpaceOnUse">
<stop stop-color="#E7A800"/>
<stop offset="1" stop-color="#E7A800" stop-opacity="0.28"/>
</linearGradient>
<linearGradient id="paint28_linear_8_522" x1="13.6138" y1="64.576" x2="13.6138" y2="71.0726" gradientUnits="userSpaceOnUse">
<stop stop-color="#E7A800"/>
<stop offset="1" stop-color="#E7A800" stop-opacity="0.28"/>
</linearGradient>
<linearGradient id="paint29_linear_8_522" x1="7.30493" y1="61.0823" x2="7.30493" y2="67.5789" gradientUnits="userSpaceOnUse">
<stop stop-color="#E7A800"/>
<stop offset="1" stop-color="#E7A800" stop-opacity="0.28"/>
</linearGradient>
<linearGradient id="paint30_linear_8_522" x1="13.6138" y1="58.1516" x2="13.6138" y2="64.6482" gradientUnits="userSpaceOnUse">
<stop stop-color="#E7A800"/>
<stop offset="1" stop-color="#E7A800" stop-opacity="0.28"/>
</linearGradient>
<linearGradient id="paint31_linear_8_522" x1="9.60352" y1="52.2181" x2="9.60352" y2="61.3999" gradientUnits="userSpaceOnUse">
<stop stop-color="#E7A800"/>
<stop offset="1" stop-color="#E7A800" stop-opacity="0.28"/>
</linearGradient>
<linearGradient id="paint32_linear_8_522" x1="17.3098" y1="71.2891" x2="17.3098" y2="77.7857" gradientUnits="userSpaceOnUse">
<stop stop-color="#E7A800"/>
<stop offset="1" stop-color="#E7A800" stop-opacity="0.28"/>
</linearGradient>
<linearGradient id="paint33_linear_8_522" x1="20.2549" y1="77.598" x2="20.2549" y2="84.0946" gradientUnits="userSpaceOnUse">
<stop stop-color="#E7A800"/>
<stop offset="1" stop-color="#E7A800" stop-opacity="0.28"/>
</linearGradient>
<linearGradient id="paint34_linear_8_522" x1="23.7341" y1="71.2891" x2="23.7341" y2="77.7857" gradientUnits="userSpaceOnUse">
<stop stop-color="#E7A800"/>
<stop offset="1" stop-color="#E7A800" stop-opacity="0.28"/>
</linearGradient>
<linearGradient id="paint35_linear_8_522" x1="26.6648" y1="77.598" x2="26.6648" y2="84.0946" gradientUnits="userSpaceOnUse">
<stop stop-color="#E7A800"/>
<stop offset="1" stop-color="#E7A800" stop-opacity="0.28"/>
</linearGradient>
<linearGradient id="paint36_linear_8_522" x1="31.2557" y1="74.9294" x2="31.2557" y2="78.7424" gradientUnits="userSpaceOnUse">
<stop stop-color="#E7A800"/>
<stop offset="1" stop-color="#E7A800" stop-opacity="0.28"/>
</linearGradient>
<linearGradient id="paint37_linear_8_522" x1="8.35894" y1="75.5769" x2="8.35894" y2="81.9002" gradientUnits="userSpaceOnUse">
<stop stop-color="#E7A800"/>
<stop offset="1" stop-color="#E7A800" stop-opacity="0.28"/>
</linearGradient>
<linearGradient id="paint38_linear_8_522" x1="75.3169" y1="11.1885" x2="75.3169" y2="17.6851" gradientUnits="userSpaceOnUse">
<stop stop-color="#E7A800"/>
<stop offset="1" stop-color="#E7A800" stop-opacity="0.28"/>
</linearGradient>
<linearGradient id="paint39_linear_8_522" x1="69.0081" y1="14.1193" x2="69.0081" y2="20.6158" gradientUnits="userSpaceOnUse">
<stop stop-color="#E7A800"/>
<stop offset="1" stop-color="#E7A800" stop-opacity="0.28"/>
</linearGradient>
<linearGradient id="paint40_linear_8_522" x1="75.3169" y1="17.613" x2="75.3169" y2="24.1096" gradientUnits="userSpaceOnUse">
<stop stop-color="#E7A800"/>
<stop offset="1" stop-color="#E7A800" stop-opacity="0.28"/>
</linearGradient>
<linearGradient id="paint41_linear_8_522" x1="69.0081" y1="20.5436" x2="69.0081" y2="27.0402" gradientUnits="userSpaceOnUse">
<stop stop-color="#E7A800"/>
<stop offset="1" stop-color="#E7A800" stop-opacity="0.28"/>
</linearGradient>
<linearGradient id="paint42_linear_8_522" x1="73.0192" y1="23.7919" x2="73.0192" y2="32.9738" gradientUnits="userSpaceOnUse">
<stop stop-color="#E7A800"/>
<stop offset="1" stop-color="#E7A800" stop-opacity="0.28"/>
</linearGradient>
<linearGradient id="paint43_linear_8_522" x1="65.3123" y1="7.40607" x2="65.3123" y2="13.9026" gradientUnits="userSpaceOnUse">
<stop stop-color="#E7A800"/>
<stop offset="1" stop-color="#E7A800" stop-opacity="0.28"/>
</linearGradient>
<linearGradient id="paint44_linear_8_522" x1="62.3816" y1="1.09723" x2="62.3816" y2="7.59381" gradientUnits="userSpaceOnUse">
<stop stop-color="#E7A800"/>
<stop offset="1" stop-color="#E7A800" stop-opacity="0.28"/>
</linearGradient>
<linearGradient id="paint45_linear_8_522" x1="58.8877" y1="7.40607" x2="58.8877" y2="13.9026" gradientUnits="userSpaceOnUse">
<stop stop-color="#E7A800"/>
<stop offset="1" stop-color="#E7A800" stop-opacity="0.28"/>
</linearGradient>
<linearGradient id="paint46_linear_8_522" x1="55.957" y1="1.09723" x2="55.957" y2="7.59381" gradientUnits="userSpaceOnUse">
<stop stop-color="#E7A800"/>
<stop offset="1" stop-color="#E7A800" stop-opacity="0.28"/>
</linearGradient>
<linearGradient id="paint47_linear_8_522" x1="51.3663" y1="6.44934" x2="51.3663" y2="10.2624" gradientUnits="userSpaceOnUse">
<stop stop-color="#E7A800"/>
<stop offset="1" stop-color="#E7A800" stop-opacity="0.28"/>
</linearGradient>
<linearGradient id="paint48_linear_8_522" x1="71.248" y1="5.53771" x2="77.3001" y2="7.37021" gradientUnits="userSpaceOnUse">
<stop stop-color="#E7A800"/>
<stop offset="1" stop-color="#E7A800" stop-opacity="0.28"/>
</linearGradient>
<linearGradient id="paint49_linear_8_522" x1="60.512" y1="29.0181" x2="60.512" y2="84.4123" gradientUnits="userSpaceOnUse">
<stop stop-color="#E7A800"/>
<stop offset="1" stop-color="#E7A800" stop-opacity="0.28"/>
</linearGradient>
<linearGradient id="paint50_linear_8_522" x1="24.5353" y1="0.360962" x2="24.5353" y2="57.5309" gradientUnits="userSpaceOnUse">
<stop stop-color="#E7A800"/>
<stop offset="1" stop-color="#E7A800" stop-opacity="0.28"/>
</linearGradient>
<clipPath id="clip0_8_522">
<rect width="84.7876" height="84.7876" fill="white"/>
</clipPath>
</defs>
</svg>
