<svg width="101" height="101" viewBox="0 0 101 101" fill="none" xmlns="http://www.w3.org/2000/svg">
<rect x="0.5" y="0.224609" width="100" height="100" rx="50" fill="#F2994A"/>
<mask id="mask0_38_129" style="mask-type:alpha" maskUnits="userSpaceOnUse" x="38" y="27" width="25" height="25">
<rect x="38.5" y="27.2246" width="24" height="24" fill="#D9D9D9"/>
</mask>
<g mask="url(#mask0_38_129)">
<path d="M54.7427 44.5279L50.5 40.2853L46.2574 44.5279L45.1967 43.4672L49.4394 39.2246L45.1967 34.982L46.2574 33.9213L50.5 38.1639L54.7427 33.9213L55.8033 34.982L51.5607 39.2246L55.8033 43.4672L54.7427 44.5279Z" fill="white"/>
</g>
<path d="M39.4432 61.3723H37.6705C37.6023 60.9935 37.4754 60.6602 37.2898 60.3723C37.1042 60.0845 36.8769 59.8401 36.608 59.6394C36.339 59.4386 36.0379 59.2871 35.7045 59.1848C35.375 59.0826 35.0246 59.0314 34.6534 59.0314C33.983 59.0314 33.3826 59.2 32.8523 59.5371C32.3258 59.8742 31.9091 60.3685 31.6023 61.0201C31.2992 61.6716 31.1477 62.467 31.1477 63.4064C31.1477 64.3534 31.2992 65.1526 31.6023 65.8042C31.9091 66.4557 32.3277 66.9481 32.858 67.2814C33.3883 67.6148 33.9848 67.7814 34.6477 67.7814C35.0152 67.7814 35.3636 67.7322 35.6932 67.6337C36.0265 67.5314 36.3277 67.3818 36.5966 67.1848C36.8655 66.9879 37.0928 66.7473 37.2784 66.4632C37.4678 66.1754 37.5985 65.8458 37.6705 65.4746L39.4432 65.4803C39.3485 66.0523 39.1648 66.5788 38.892 67.0598C38.6231 67.5371 38.2765 67.95 37.8523 68.2985C37.4318 68.6432 36.9508 68.9102 36.4091 69.0996C35.8674 69.289 35.2765 69.3837 34.6364 69.3837C33.6288 69.3837 32.7311 69.1451 31.9432 68.6678C31.1553 68.1867 30.5341 67.4992 30.0795 66.6053C29.6288 65.7114 29.4034 64.6451 29.4034 63.4064C29.4034 62.164 29.6307 61.0977 30.0852 60.2076C30.5398 59.3136 31.161 58.628 31.9489 58.1507C32.7367 57.6697 33.6326 57.4292 34.6364 57.4292C35.2538 57.4292 35.8295 57.5182 36.3636 57.6962C36.9015 57.8704 37.3845 58.128 37.8125 58.4689C38.2405 58.806 38.5947 59.2189 38.875 59.7076C39.1553 60.1924 39.3447 60.7473 39.4432 61.3723ZM43.1065 57.5882V69.2246H41.4077V57.5882H43.1065ZM49.0682 69.4007C48.25 69.4007 47.536 69.2132 46.9261 68.8382C46.3163 68.4632 45.8428 67.9386 45.5057 67.2644C45.1686 66.5901 45 65.8023 45 64.9007C45 63.9954 45.1686 63.2038 45.5057 62.5257C45.8428 61.8477 46.3163 61.3212 46.9261 60.9462C47.536 60.5712 48.25 60.3837 49.0682 60.3837C49.8864 60.3837 50.6004 60.5712 51.2102 60.9462C51.8201 61.3212 52.2936 61.8477 52.6307 62.5257C52.9678 63.2038 53.1364 63.9954 53.1364 64.9007C53.1364 65.8023 52.9678 66.5901 52.6307 67.2644C52.2936 67.9386 51.8201 68.4632 51.2102 68.8382C50.6004 69.2132 49.8864 69.4007 49.0682 69.4007ZM49.0739 67.9746C49.6042 67.9746 50.0436 67.8345 50.392 67.5542C50.7405 67.2739 50.9981 66.9007 51.1648 66.4348C51.3352 65.9689 51.4205 65.4557 51.4205 64.8951C51.4205 64.3382 51.3352 63.8269 51.1648 63.361C50.9981 62.8913 50.7405 62.5144 50.392 62.2303C50.0436 61.9462 49.6042 61.8042 49.0739 61.8042C48.5398 61.8042 48.0966 61.9462 47.7443 62.2303C47.3958 62.5144 47.1364 62.8913 46.9659 63.361C46.7992 63.8269 46.7159 64.3382 46.7159 64.8951C46.7159 65.4557 46.7992 65.9689 46.9659 66.4348C47.1364 66.9007 47.3958 67.2739 47.7443 67.5542C48.0966 67.8345 48.5398 67.9746 49.0739 67.9746ZM61.5724 62.628L60.0327 62.9007C59.9683 62.7038 59.866 62.5163 59.7259 62.3382C59.5895 62.1602 59.4039 62.0144 59.169 61.9007C58.9342 61.7871 58.6406 61.7303 58.2884 61.7303C57.8073 61.7303 57.4058 61.8382 57.0838 62.0542C56.7618 62.2663 56.6009 62.5409 56.6009 62.878C56.6009 63.1697 56.7088 63.4045 56.9247 63.5826C57.1406 63.7606 57.4891 63.9064 57.9702 64.0201L59.3565 64.3382C60.1596 64.5239 60.758 64.8098 61.152 65.1962C61.5459 65.5826 61.7429 66.0845 61.7429 66.7019C61.7429 67.2246 61.5914 67.6905 61.2884 68.0996C60.9891 68.5049 60.5705 68.8231 60.0327 69.0542C59.4986 69.2852 58.8793 69.4007 58.1747 69.4007C57.1974 69.4007 56.4001 69.1924 55.7827 68.7757C55.1652 68.3553 54.7865 67.7587 54.6463 66.986L56.2884 66.736C56.3906 67.164 56.6009 67.4879 56.919 67.7076C57.2372 67.9235 57.652 68.0314 58.1634 68.0314C58.7202 68.0314 59.1652 67.9159 59.4986 67.6848C59.8319 67.45 59.9986 67.164 59.9986 66.8269C59.9986 66.5542 59.8963 66.325 59.6918 66.1394C59.491 65.9538 59.1823 65.8136 58.7656 65.7189L57.2884 65.3951C56.474 65.2095 55.8717 64.914 55.4815 64.5087C55.0952 64.1034 54.902 63.5901 54.902 62.9689C54.902 62.4538 55.0459 62.003 55.3338 61.6167C55.6217 61.2303 56.0194 60.9292 56.527 60.7132C57.0346 60.4935 57.616 60.3837 58.2713 60.3837C59.2145 60.3837 59.9569 60.5882 60.4986 60.9973C61.0402 61.4026 61.3982 61.9462 61.5724 62.628ZM67.3722 69.4007C66.5123 69.4007 65.7718 69.217 65.1506 68.8496C64.5331 68.4784 64.0559 67.9576 63.7188 67.2871C63.3854 66.6129 63.2188 65.8231 63.2188 64.9178C63.2188 64.0239 63.3854 63.236 63.7188 62.5542C64.0559 61.8723 64.5256 61.3401 65.1278 60.9576C65.7339 60.575 66.4422 60.3837 67.2528 60.3837C67.7453 60.3837 68.2225 60.4651 68.6847 60.628C69.1468 60.7909 69.5616 61.0466 69.929 61.3951C70.2964 61.7435 70.5862 62.1962 70.7983 62.753C71.0104 63.306 71.1165 63.9784 71.1165 64.7701V65.3723H64.179V64.0996H69.4517C69.4517 63.6526 69.3608 63.2568 69.179 62.9121C68.9972 62.5636 68.7415 62.289 68.4119 62.0882C68.0862 61.8875 67.7036 61.7871 67.2642 61.7871C66.7869 61.7871 66.3703 61.9045 66.0142 62.1394C65.6619 62.3704 65.3892 62.6735 65.196 63.0485C65.0066 63.4197 64.9119 63.8231 64.9119 64.2587V65.253C64.9119 65.8364 65.0142 66.3326 65.2188 66.7417C65.4271 67.1507 65.7169 67.4632 66.0881 67.6792C66.4593 67.8913 66.893 67.9973 67.3892 67.9973C67.7112 67.9973 68.0047 67.9519 68.2699 67.861C68.535 67.7663 68.7642 67.6261 68.9574 67.4405C69.1506 67.2549 69.2983 67.0257 69.4006 66.753L71.0085 67.0428C70.8797 67.5163 70.6487 67.931 70.3153 68.2871C69.9858 68.6394 69.571 68.914 69.071 69.111C68.5748 69.3042 68.0085 69.4007 67.3722 69.4007Z" fill="white"/>
</svg>
